<svg xmlns="http://www.w3.org/2000/svg" viewBox="0 0 500 500"><g id="freepik--background-complete--inject-334"><rect y="382.4" width="500" height="0.25" style="fill:#ebebeb"></rect><rect x="416.78" y="398.49" width="33.12" height="0.25" style="fill:#ebebeb"></rect><rect x="322.53" y="401.21" width="8.69" height="0.25" style="fill:#ebebeb"></rect><rect x="396.59" y="389.21" width="19.19" height="0.25" style="fill:#ebebeb"></rect><rect x="52.46" y="390.89" width="43.19" height="0.25" style="fill:#ebebeb"></rect><rect x="104.56" y="390.89" width="6.33" height="0.25" style="fill:#ebebeb"></rect><rect x="131.47" y="395.11" width="93.68" height="0.25" style="fill:#ebebeb"></rect><path d="M237,337.8H43.91a5.71,5.71,0,0,1-5.7-5.71V60.66A5.71,5.71,0,0,1,43.91,55H237a5.71,5.71,0,0,1,5.71,5.71V332.09A5.71,5.71,0,0,1,237,337.8ZM43.91,55.2a5.46,5.46,0,0,0-5.45,5.46V332.09a5.46,5.46,0,0,0,5.45,5.46H237a5.47,5.47,0,0,0,5.46-5.46V60.66A5.47,5.47,0,0,0,237,55.2Z" style="fill:#ebebeb"></path><path d="M453.31,337.8H260.21a5.72,5.72,0,0,1-5.71-5.71V60.66A5.72,5.72,0,0,1,260.21,55h193.1A5.71,5.71,0,0,1,459,60.66V332.09A5.71,5.71,0,0,1,453.31,337.8ZM260.21,55.2a5.47,5.47,0,0,0-5.46,5.46V332.09a5.47,5.47,0,0,0,5.46,5.46h193.1a5.47,5.47,0,0,0,5.46-5.46V60.66a5.47,5.47,0,0,0-5.46-5.46Z" style="fill:#ebebeb"></path><rect x="69.02" y="88.61" width="251.58" height="144.13" style="fill:#e6e6e6"></rect><rect x="70.77" y="88.61" width="253.57" height="144.13" style="fill:#f0f0f0"></rect><rect x="131.37" y="39.12" width="132.36" height="243.1" transform="translate(358.23 -36.88) rotate(90)" style="fill:#fafafa"></rect><polygon points="105.84 226.85 136.59 94.49 176.89 94.49 146.15 226.85 105.84 226.85" style="fill:#fff"></polygon><polygon points="152.67 226.85 183.41 94.49 201.61 94.49 170.87 226.85 152.67 226.85" style="fill:#fff"></polygon><polygon points="224.89 226.85 255.63 94.49 286.72 94.49 255.98 226.85 224.89 226.85" style="fill:#fff"></polygon><rect x="252.59" y="160.34" width="132.36" height="0.67" transform="translate(479.44 -158.1) rotate(90)" style="fill:#e6e6e6"></rect><rect x="190" y="88.61" width="15.11" height="144.13" style="fill:#f0f0f0"></rect><rect x="123.48" y="160.34" width="132.36" height="0.67" transform="translate(350.34 -28.99) rotate(90)" style="fill:#e6e6e6"></rect><rect x="197.29" y="88.61" width="0.53" height="144.13" style="fill:#e6e6e6"></rect><rect x="208.5" y="289.11" width="21.33" height="93.28" style="fill:#e6e6e6"></rect><polygon points="220.6 382.4 229.83 382.4 229.83 366.92 210.91 366.92 220.6 382.4" style="fill:#f5f5f5"></polygon><rect x="43.02" y="289.11" width="21.33" height="93.28" style="fill:#e6e6e6"></rect><rect x="56.29" y="289.11" width="173.54" height="87.96" style="fill:#f5f5f5"></rect><polygon points="65.53 382.4 56.29 382.4 56.29 366.92 75.22 366.92 65.53 382.4" style="fill:#f5f5f5"></polygon><rect x="63.46" y="296.51" width="159.21" height="32.44" style="fill:#f0f0f0"></rect><path d="M143.06,322.21a9.48,9.48,0,1,1,9.48-9.47A9.48,9.48,0,0,1,143.06,322.21Zm0-17.95a8.48,8.48,0,1,0,8.48,8.48A8.48,8.48,0,0,0,143.06,304.26Z" style="fill:#fff"></path><rect x="63.46" y="336.79" width="159.21" height="32.44" style="fill:#f0f0f0"></rect><path d="M143.06,362.49a9.48,9.48,0,1,1,9.48-9.48A9.49,9.49,0,0,1,143.06,362.49Zm0-17.95a8.48,8.48,0,1,0,8.48,8.47A8.48,8.48,0,0,0,143.06,344.54Z" style="fill:#fff"></path><rect x="251.44" y="313.28" width="70.88" height="69.11" transform="translate(573.76 695.68) rotate(180)" style="fill:#e6e6e6"></rect><rect x="322.32" y="313.28" width="93.15" height="69.11" style="fill:#f0f0f0"></rect><rect x="251.44" y="307.4" width="164.03" height="11.46" transform="translate(666.91 626.26) rotate(180)" style="fill:#e6e6e6;opacity:0.7000000000000001;mix-blend-mode:multiply"></rect><rect x="247.87" y="306.67" width="74.45" height="6.62" transform="translate(570.18 619.95) rotate(180)" style="fill:#e6e6e6"></rect><rect x="322.32" y="306.67" width="96.73" height="6.62" style="fill:#f0f0f0"></rect><circle cx="423.99" cy="357.52" r="24.88" transform="translate(-78.61 591.99) rotate(-65.15)" style="fill:#e6e6e6"></circle><path d="M418.34,339.18c-2.09.39-3.95-.13-4.14-1.16s1.36-2.17,3.46-2.56,3.95.13,4.14,1.16S420.44,338.79,418.34,339.18Z" style="fill:#e6e6e6;opacity:0.7000000000000001;mix-blend-mode:multiply"></path><ellipse cx="407.4" cy="343.91" rx="3.86" ry="1.89" transform="translate(-123.3 394.87) rotate(-45.65)" style="fill:#e6e6e6;opacity:0.7000000000000001;mix-blend-mode:multiply"></ellipse><path d="M417.17,348.24c-1.7,1.29-3.72,1.49-4.51.45s-.06-2.93,1.64-4.22S418,343,418.81,344,418.87,347,417.17,348.24Z" style="fill:#e6e6e6;opacity:0.7000000000000001;mix-blend-mode:multiply"></path><rect x="358.8" y="105.73" width="71.67" height="109.88" style="fill:#e6e6e6"></rect><rect x="360.47" y="105.73" width="76.07" height="109.88" style="fill:#f5f5f5"></rect><rect x="348.41" y="127.49" width="100.18" height="66.37" transform="translate(559.17 -237.83) rotate(90)" style="fill:#fff"></rect><rect x="395.69" y="139.17" width="5.62" height="43.01" transform="translate(559.17 -237.83) rotate(90)" style="fill:#f5f5f5"></rect><rect x="395.69" y="124.99" width="5.62" height="43.01" transform="translate(545 -252) rotate(90)" style="fill:#f5f5f5"></rect><rect x="395.69" y="110.82" width="5.62" height="43.01" transform="translate(530.83 -266.18) rotate(90)" style="fill:#f5f5f5"></rect><rect x="395.69" y="153.34" width="5.62" height="43.01" transform="translate(573.35 -223.66) rotate(90)" style="fill:#f5f5f5"></rect><rect x="395.69" y="167.51" width="5.62" height="43.01" transform="translate(587.52 -209.48) rotate(90)" style="fill:#f5f5f5"></rect></g><g id="freepik--Shadow--inject-334"><ellipse id="freepik--path--inject-334" cx="250" cy="416.24" rx="193.89" ry="11.32" style="fill:#f5f5f5"></ellipse></g></svg>