<svg xmlns="http://www.w3.org/2000/svg" viewBox="0 0 500 500"><g id="freepik--Character--inject-334"><polygon points="211.75 407.54 219.33 405.45 216.51 387.34 208.93 389.43 211.75 407.54" style="fill:#ffc3bd"></polygon><polygon points="147.26 407.73 155.12 407.73 157.08 389.52 149.22 389.52 147.26 407.73" style="fill:#ffc3bd"></polygon><path d="M155.77,406.82h-9.59a.69.69,0,0,0-.67.54l-1.55,7a1.16,1.16,0,0,0,1.15,1.4c3.08-.05,5.34-.24,9.22-.24,2.39,0,9.6.25,12.9.25s3.73-3.26,2.38-3.56c-6.06-1.32-10.63-3.15-12.56-4.89A1.9,1.9,0,0,0,155.77,406.82Z" style="fill:#263238"></path><path d="M219,404.59l-8.28,2.28a.67.67,0,0,0-.5.69l.36,7.16a1.14,1.14,0,0,0,1.46,1c3-.87,7.24-2.23,11-3.27,4.39-1.21,8.25-2,13.39-3.43,3.12-.86,3.11-4.24,1.73-4.17-6.29.34-11.17,1.53-17.16-.22A3.65,3.65,0,0,0,219,404.59Z" style="fill:#263238"></path><path d="M190.28,161.54c.31.37.75.9,1.16,1.35l1.25,1.43c.84,1,1.72,1.88,2.61,2.78,1.79,1.81,3.61,3.57,5.51,5.17,3.75,3.21,7.86,6,11.82,7.19a13.59,13.59,0,0,0,1.45.39l.71.12c.43.06,0,0,0,.08s.08,0,.4-.06a7.82,7.82,0,0,0,1.17-.5,22.32,22.32,0,0,0,2.83-1.83c1-.71,2-1.5,2.94-2.33,3.91-3.32,7.8-7.14,11.57-10.9l4.74,3.52a87.16,87.16,0,0,1-9.82,13.94,38.28,38.28,0,0,1-6.81,6.31,18.28,18.28,0,0,1-2.44,1.43,11.3,11.3,0,0,1-3.52,1.06,9.67,9.67,0,0,1-2.08,0l-1.32-.12c-.86-.13-1.73-.26-2.56-.46a28.22,28.22,0,0,1-4.74-1.51,41.62,41.62,0,0,1-4.3-2.07,54.81,54.81,0,0,1-7.55-5.1,71.56,71.56,0,0,1-6.56-5.94q-1.53-1.56-3-3.2c-.49-.55-1-1.1-1.44-1.67s-.91-1.11-1.44-1.82Z" style="fill:#ffc3bd"></path><polygon points="193.03 185.57 196.09 188.64 210.17 177.36 205.13 173.45 193.03 185.57" style="fill:#263238"></polygon><path d="M176.53,164.93c-.58,7.49,16.3,22.79,16.3,22.79l14.92-12.94s-6.29-6.66-13.34-13.35C189.55,156.83,177.16,156.82,176.53,164.93Z" style="fill:#263238"></path><path d="M176.53,164.93c-.58,7.49,16.3,22.79,16.3,22.79l14.92-12.94s-6.29-6.66-13.34-13.35C189.55,156.83,177.16,156.82,176.53,164.93Z" style="fill:#133E9E;opacity:0.5"></path><path d="M198,183.24c-.15-.7-.34-1.4-.55-2.09-1.94-6.16-6.37-11.74-13.31-12.37-3.13-.28-4,1.92-3.81,5.15a101.2,101.2,0,0,0,12.5,13.79l1.26-1.09,2,2,2.41-1.93A23.44,23.44,0,0,0,198,183.24Z" style="opacity:0.2"></path><path d="M233.07,167.12l2.24-6.6,8.84,2.27a42.12,42.12,0,0,1-6,5.72Z" style="fill:#ffc3bd"></path><polygon points="238.81 157.68 246.13 160.22 244.15 162.79 235.31 160.52 238.81 157.68" style="fill:#ffc3bd"></polygon><polygon points="216.51 387.34 217.97 396.68 210.38 398.77 208.93 389.43 216.51 387.34" style="opacity:0.2"></polygon><polygon points="149.21 389.53 157.08 389.53 156.07 398.92 148.2 398.92 149.21 389.53" style="opacity:0.2"></polygon><path d="M144.57,161.3a176,176,0,0,1,5,25.87c.74,6.09,1.19,11.9,1.47,17.18.65,12.36.38,21.78.75,25,6.15-.42,29.32-2,42-2.92,5.72-44.73-5.19-67.77-5.19-67.77a82.41,82.41,0,0,0-10.05-1.25c-.71,0-1.43-.07-2.16-.08a155,155,0,0,0-17.84,1.24c-1.13.13-2.26.3-3.36.48C149.52,159.93,144.57,161.3,144.57,161.3Z" style="fill:#263238"></path><path d="M144.57,161.3a176,176,0,0,1,5,25.87c.74,6.09,1.19,11.9,1.47,17.18.65,12.36.38,21.78.75,25,6.15-.42,29.32-2,42-2.92,5.72-44.73-5.19-67.77-5.19-67.77a82.41,82.41,0,0,0-10.05-1.25c-.71,0-1.43-.07-2.16-.08a155,155,0,0,0-17.84,1.24c-1.13.13-2.26.3-3.36.48C149.52,159.93,144.57,161.3,144.57,161.3Z" style="fill:#133E9E;opacity:0.5"></path><path d="M184.33,184.43l-9.16.61a.58.58,0,0,1-.59-.46l-.08-.44a.54.54,0,0,0-.85-.36l-4.93,4.06a.51.51,0,0,0,.14.83l6.25,3.32a.46.46,0,0,0,.71-.47l-.08-.43a.45.45,0,0,1,.41-.54l9.16-.61a.45.45,0,0,0,.42-.53l-.8-4.52A.58.58,0,0,0,184.33,184.43Z" style="fill:#fff"></path><path d="M168,182.16l9.16-.61a.57.57,0,0,1,.59.46l.08.44a.55.55,0,0,0,.86.36l4.93-4.06a.52.52,0,0,0-.15-.84l-6.24-3.31a.46.46,0,0,0-.71.47l.07.43a.44.44,0,0,1-.41.53l-9.16.62a.45.45,0,0,0-.42.53l.81,4.51A.57.57,0,0,0,168,182.16Z" style="fill:#fff"></path><path d="M158.49,158.54a155.11,155.11,0,0,1,17.84-1.24c.73,0,1.46,0,2.17.08l.25,0c1.27,2.63,2.92,10.46-2.93,11.27-7.94,1.1-16.92-5.76-20.69-9.65C156.23,158.84,157.37,158.67,158.49,158.54Z" style="fill:#263238"></path><path d="M155.17,172.62A33.1,33.1,0,0,1,150,190.8c-.11-1.2-.25-2.41-.4-3.63-.56-4.58-1.28-9.32-2.24-14.11Z" style="opacity:0.2"></path><path d="M158.87,138.33c1.52,5.67,3.38,16.1-.37,20.21a17.87,17.87,0,0,0,14.13,4.51c4.93-.45,4.94-3.92,3.71-5.75-6.51-1.08-6.68-5.84-5.87-10.38Z" style="fill:#ffc3bd"></path><path d="M163.6,141.84l6.86,5.07a18.7,18.7,0,0,0-.33,3.21c-2.47-.18-6-2.63-6.45-5.17A8.5,8.5,0,0,1,163.6,141.84Z" style="opacity:0.2"></path><path d="M187.73,108.43c2.91,6.12-8.52,21-17.85,19.37A158,158,0,0,1,154.26,124c-4.53-1.32-6.19-7.3-1.88-8.06C167,113.33,182.91,98.27,187.73,108.43Z" style="fill:#263238"></path><path d="M157.58,129.75c1,7.73,1.22,12.31,5.43,16,6.32,5.59,15.66,1.36,17-6.53,1.19-7.1-.68-18.56-8.5-21.12A10.65,10.65,0,0,0,157.58,129.75Z" style="fill:#ffc3bd"></path><path d="M172.64,139.64h0a5.72,5.72,0,0,1-4.88-2,.2.2,0,0,1,0-.28.19.19,0,0,1,.28,0,5.45,5.45,0,0,0,4.54,1.83.2.2,0,0,1,.21.19A.19.19,0,0,1,172.64,139.64Z" style="fill:#263238"></path><path d="M163,133.25c2.93-6.38,3.56-12.91-1.8-14.91s-9.86.68-11.35,4.71S158.74,142.55,163,133.25Z" style="fill:#263238"></path><path d="M156.93,121.08c5.38,3.85,23.82,4.08,21.22-2.84C176.2,113.06,163.39,113.22,156.93,121.08Z" style="fill:#263238"></path><path d="M154.67,138.56a7.41,7.41,0,0,0,4.84,2.94c2.57.38,3.53-2,2.55-4.26-.89-2-3.3-4.68-5.75-4S153.26,136.6,154.67,138.56Z" style="fill:#ffc3bd"></path><path d="M220.32,394.15l-12.83,3.53s-16.08-50.68-20-78.51c-1.05-7.38-2.66-17.76-5.13-28.82-3.11-13.93-7-29-10.22-40.8-3.38-12.43-6-21.22-6-21.22l27.59-1.93s14.92,65.1,16.51,89C211.9,340.34,220.32,394.15,220.32,394.15Z" style="fill:#133E9E"></path><path d="M220.32,394.15l-12.83,3.53s-16.08-50.68-20-78.51c-1.05-7.38-2.66-17.76-5.13-28.82-3.11-13.93-7-29-10.22-40.8-3.38-12.43-6-21.22-6-21.22l27.59-1.93s14.92,65.1,16.51,89C211.9,340.34,220.32,394.15,220.32,394.15Z" style="fill:#fafafa;opacity:0.30000000000000004"></path><path d="M182.33,290.35c-3.11-13.93-7-29-10.22-40.8l2.86-6.17C181.81,251.51,183.65,276.68,182.33,290.35Z" style="opacity:0.2"></path><path d="M178.87,227.44s-3,67.32-6.3,90.12c-3.64,25-12.87,79.54-12.87,79.54H145.3s-.24-51.74,4.27-75.93c5.14-27.54,2.22-91.84,2.22-91.84Z" style="fill:#133E9E"></path><path d="M178.87,227.44s-3,67.32-6.3,90.12c-3.64,25-12.87,79.54-12.87,79.54H145.3s-.24-51.74,4.27-75.93c5.14-27.54,2.22-91.84,2.22-91.84Z" style="fill:#fafafa;opacity:0.30000000000000004"></path><polygon points="161.43 397.41 144.47 397.41 144.47 392.34 163.42 392.01 161.43 397.41" style="fill:#133E9E"></polygon><polygon points="221.21 394.22 206.72 398.22 204.63 393.22 221.15 388.64 221.21 394.22" style="fill:#133E9E"></polygon><path d="M169.52,131.1c0,.63.41,1.12.83,1.09s.71-.57.67-1.2-.42-1.12-.83-1.09S169.47,130.46,169.52,131.1Z" style="fill:#263238"></path><path d="M176.67,130.6c0,.63.41,1.12.83,1.09s.71-.57.67-1.2-.42-1.12-.83-1.09S176.63,130,176.67,130.6Z" style="fill:#263238"></path><path d="M174.42,131.07a22.57,22.57,0,0,0,3.4,5.2c-1,1.12-3.08.63-3.08.63Z" style="fill:#ed847e"></path><path d="M167.14,128.94a.39.39,0,0,0,.35-.17,3,3,0,0,1,2.29-1.41.37.37,0,0,0,0-.74,3.71,3.71,0,0,0-2.92,1.74.38.38,0,0,0,.11.52A.49.49,0,0,0,167.14,128.94Z" style="fill:#263238"></path><path d="M179.56,127.92a.38.38,0,0,0,.37-.56,3.7,3.7,0,0,0-2.82-1.9.36.36,0,0,0-.39.35.38.38,0,0,0,.35.39h0a3,3,0,0,1,2.21,1.54A.38.38,0,0,0,179.56,127.92Z" style="fill:#263238"></path><path d="M158.37,408.2a2.35,2.35,0,0,0,1.51-.4,1.16,1.16,0,0,0,.39-1,.58.58,0,0,0-.32-.52c-.87-.45-3.41,1.11-3.69,1.29a.17.17,0,0,0-.09.18.19.19,0,0,0,.14.16A9.41,9.41,0,0,0,158.37,408.2Zm1.17-1.63a.45.45,0,0,1,.24.05c.05,0,.11.07.12.22a.75.75,0,0,1-.26.67c-.43.36-1.45.41-2.79.14A7.56,7.56,0,0,1,159.54,406.57Z" style="fill:#133E9E"></path><path d="M156.36,407.92l.08,0c.82-.44,2.39-2.17,2.22-3a.59.59,0,0,0-.59-.49,1,1,0,0,0-.79.24c-.91.74-1.1,3-1.11,3.11a.19.19,0,0,0,.08.17A.2.2,0,0,0,156.36,407.92Zm1.58-3.19H158c.24,0,.26.14.27.19.1.51-.9,1.82-1.71,2.43a4.47,4.47,0,0,1,.92-2.46A.69.69,0,0,1,157.94,404.73Z" style="fill:#133E9E"></path><path d="M220.06,405.43h0c1.29-.09,3.54-.4,4.17-1.36a1.07,1.07,0,0,0,.1-1,.6.6,0,0,0-.43-.39c-1.06-.25-3.69,2.12-4,2.4a.18.18,0,0,0-.05.21A.21.21,0,0,0,220.06,405.43Zm3.74-2.37h0a.22.22,0,0,1,.16.16.68.68,0,0,1,0,.64c-.35.54-1.58.95-3.33,1.14C221.68,404.09,223.18,403,223.8,403.06Z" style="fill:#133E9E"></path><path d="M220.06,405.43a.23.23,0,0,0,.14,0c.8-.67,2.17-2.81,1.79-3.62-.09-.2-.3-.41-.81-.32a1.37,1.37,0,0,0-.91.58c-.74,1.06-.38,3.16-.37,3.25a.21.21,0,0,0,.12.14Zm1.4-3.63c.15,0,.18.09.19.12.23.49-.65,2.12-1.43,2.94a4.38,4.38,0,0,1,.36-2.62,1,1,0,0,1,.67-.42A.9.9,0,0,1,221.46,401.8Z" style="fill:#133E9E"></path><path d="M144.43,226.78h0a3.4,3.4,0,0,0-2.81-3.27l-23.4-2.64a3.54,3.54,0,0,0-3.64,3.4l-6.86,60.78a3.55,3.55,0,0,0,2.79,4.12l74.27,8.38a3.54,3.54,0,0,0,3.63-3.4l5.77-51a3.54,3.54,0,0,0-2.79-4.12L151,234.42C147.48,234,144.76,230.86,144.43,226.78Z" style="fill:#263238"></path><path d="M154.3,240.11h0a2.59,2.59,0,0,0-2.35-2.9l-23.4-2.64a4.17,4.17,0,0,0-4.22,2.91l-14.8,48.19a2.66,2.66,0,0,0,2.21,3.64L186,297.69a4.16,4.16,0,0,0,4.22-2.91l12.2-39.72a2.66,2.66,0,0,0-2.21-3.64l-40.41-4.56A6,6,0,0,1,154.3,240.11Z" style="fill:#133E9E"></path><path d="M153.05,172.83,150.84,176c-.75,1.08-1.48,2.17-2.2,3.28-1.44,2.2-2.83,4.43-4.19,6.66s-2.59,4.52-3.77,6.8-2.2,4.58-3.05,6.88l-.08.2,0,.08a1.22,1.22,0,0,1-.07.17c0,.18-.09.34-.13.55-.07.42-.12.92-.17,1.46a27.61,27.61,0,0,0,0,3.52c.14,2.48.42,5.1.81,7.71.75,5.24,1.74,10.62,2.75,15.91l-5.6,1.86a115.65,115.65,0,0,1-5.93-15.86,72.09,72.09,0,0,1-2-8.52,37.33,37.33,0,0,1-.49-4.68,21.7,21.7,0,0,1,.06-2.65c0-.47.12-1,.19-1.49l.19-.83.1-.41.08-.29a79.47,79.47,0,0,1,6.83-16.24q2.07-3.79,4.4-7.39c.78-1.2,1.57-2.38,2.39-3.56s1.64-2.3,2.59-3.54Z" style="fill:#ffc3bd"></path><polygon points="132.3 179.89 129.77 183.42 143.21 195.44 146.24 189.83 132.3 179.89" style="fill:#263238"></polygon><path d="M144.57,161.3c-7.37,1.49-13.83,19.51-13.83,19.51l15.38,12.53s5-9.16,9.07-18C159.58,165.71,153.5,159.5,144.57,161.3Z" style="fill:#263238"></path><path d="M144.57,161.3c-7.37,1.49-13.83,19.51-13.83,19.51l15.38,12.53s5-9.16,9.07-18C159.58,165.71,153.5,159.5,144.57,161.3Z" style="fill:#133E9E;opacity:0.5"></path><path d="M139.89,227.66l5.31,6-9.61,2.94s-3.39-6.08-.37-8.24Z" style="fill:#ffc3bd"></path><polygon points="145.65 240.18 137.6 242.23 135.59 236.56 145.2 233.62 145.65 240.18" style="fill:#ffc3bd"></polygon></g></svg>