<svg xmlns="http://www.w3.org/2000/svg" viewBox="0 0 500 500"><g id="freepik--Folder--inject-334"><path d="M325.79,133.23h0a3.39,3.39,0,0,0-3.47-2.56l-23.4,2.69a3.54,3.54,0,0,0-2.78,4.13l7,60.76a3.53,3.53,0,0,0,3.64,3.39L381,193.12a3.54,3.54,0,0,0,2.78-4.13l-5.86-51a3.55,3.55,0,0,0-3.64-3.39l-40.4,4.64C330.39,139.6,327,137.13,325.79,133.23Z" style="fill:#263238"></path><path d="M337,111.08a424,424,0,0,1,9.88,68.82q-27.68,3.28-55.35,5.17a367.08,367.08,0,0,0-11.94-74.86q19.55-5.26,38.95-11.27Q327.9,104.72,337,111.08Z" style="fill:#133E9E"></path><path d="M337,111.08a424,424,0,0,1,9.88,68.82q-27.68,3.28-55.35,5.17a367.08,367.08,0,0,0-11.94-74.86q19.55-5.26,38.95-11.27Q327.9,104.72,337,111.08Z" style="fill:#fafafa;opacity:0.7000000000000001"></path><path d="M333.89,122.67q-21.63,5.43-43.39,10a1.16,1.16,0,0,1-1.36-.93h0a1.19,1.19,0,0,1,.89-1.4q21.74-4.65,43.33-10.21a1.17,1.17,0,0,1,1.39,1h0A1.32,1.32,0,0,1,333.89,122.67Z" style="fill:#133E9E"></path><path d="M335.45,130.8q-21.74,5-43.57,9.12a1.16,1.16,0,0,1-1.35-.95h0a1.19,1.19,0,0,1,.92-1.39q21.81-4.25,43.52-9.39a1.17,1.17,0,0,1,1.37,1h0A1.34,1.34,0,0,1,335.45,130.8Z" style="fill:#133E9E"></path><path d="M336.85,139q-21.83,4.6-43.74,8.3a1.16,1.16,0,0,1-1.33-1h0a1.19,1.19,0,0,1,1-1.38q21.88-3.82,43.69-8.56a1.18,1.18,0,0,1,1.35,1.07h0A1.33,1.33,0,0,1,336.85,139Z" style="fill:#133E9E"></path><path d="M338.09,147.2q-21.91,4.19-43.9,7.47a1.16,1.16,0,0,1-1.31-1h0a1.2,1.2,0,0,1,1-1.36q22-3.42,43.85-7.74a1.18,1.18,0,0,1,1.33,1.1h0A1.32,1.32,0,0,1,338.09,147.2Z" style="fill:#133E9E"></path><path d="M321.67,158.33q-13.26,2.05-26.54,3.79a1.17,1.17,0,0,1-1.29-1.05h0a1.21,1.21,0,0,1,1-1.34q13.26-1.81,26.51-3.95a1.19,1.19,0,0,1,1.31,1.09h0A1.29,1.29,0,0,1,321.67,158.33Z" style="fill:#133E9E"></path><path d="M337,111.08q-7.21,2-14.46,4-1.83-8.11-4-16.11Q327.9,104.72,337,111.08Z" style="fill:#133E9E"></path><path d="M338.41,144h0a2.58,2.58,0,0,0-2.94-2.29l-23.4,2.68a4.18,4.18,0,0,0-3.46,3.79L305,198.46a2.65,2.65,0,0,0,3,3L382.23,193a4.16,4.16,0,0,0,3.46-3.78l3-41.45a2.66,2.66,0,0,0-3-3.05l-40.4,4.64A6,6,0,0,1,338.41,144Z" style="fill:#133E9E"></path><path d="M281.57,183q-3.12,31.08-7.68,61.83-27.37-4.34-54.78-8.39,5.44-36.87,8.76-74.28Q248,164,268.18,166,274.93,174.4,281.57,183Z" style="fill:#133E9E"></path><path d="M281.57,183q-3.12,31.08-7.68,61.83-27.37-4.34-54.78-8.39,5.44-36.87,8.76-74.28Q248,164,268.18,166,274.93,174.4,281.57,183Z" style="fill:#fafafa;opacity:0.7000000000000001"></path><path d="M275.12,191.79q-22-2.61-44.13-5a1.16,1.16,0,0,1-1-1.28h0a1.16,1.16,0,0,1,1.27-1q22.08,2.38,44.14,4.95a1.2,1.2,0,0,1,1,1.33h0A1.18,1.18,0,0,1,275.12,191.79Z" style="fill:#133E9E"></path><path d="M274.29,199.27q-22-2.72-44.1-5.26a1.18,1.18,0,0,1-1-1.3h0a1.17,1.17,0,0,1,1.28-1q22.07,2.51,44.11,5.19a1.2,1.2,0,0,1,1,1.34h0A1.17,1.17,0,0,1,274.29,199.27Z" style="fill:#133E9E"></path><path d="M273.42,206.75q-22-2.85-44.07-5.51a1.18,1.18,0,0,1-1-1.3h0a1.18,1.18,0,0,1,1.29-1q22,2.63,44.08,5.44a1.2,1.2,0,0,1,1,1.34h0A1.18,1.18,0,0,1,273.42,206.75Z" style="fill:#133E9E"></path><path d="M272.51,214.22q-22-3-44-5.75a1.17,1.17,0,0,1-1-1.3h0a1.16,1.16,0,0,1,1.29-1q22,2.74,44.05,5.68a1.2,1.2,0,0,1,1,1.35h0A1.18,1.18,0,0,1,272.51,214.22Z" style="fill:#133E9E"></path><path d="M254.07,219.25q-13.26-1.81-26.52-3.57a1.15,1.15,0,0,1-1-1.3h0a1.16,1.16,0,0,1,1.29-1q13.28,1.73,26.52,3.52a1.19,1.19,0,0,1,1,1.34h0A1.17,1.17,0,0,1,254.07,219.25Z" style="fill:#133E9E"></path><path d="M281.57,183l-14.85-1.64q.78-7.7,1.46-15.41Q274.93,174.4,281.57,183Z" style="fill:#133E9E"></path></g></svg>