<svg xmlns="http://www.w3.org/2000/svg" viewBox="0 0 500 500"><g id="freepik--Speech-bubble-1--inject-110"><path d="M228.15,186.75l-23.38-9.06a35.44,35.44,0,1,0-1.94,8.42Z" style="fill:#0033B6"></path><path d="M228.15,186.75l-23.38-9.06a35.44,35.44,0,1,0-1.94,8.42Z" style="fill:#fff;opacity:0.7000000000000001"></path><rect x="133.81" y="183.56" width="70.67" height="1.54" style="fill:#0033B6"></rect><rect x="133.81" y="183.56" width="70.67" height="1.54" style="opacity:0.30000000000000004"></rect><rect x="143.34" y="170.35" width="7.99" height="13.21" style="fill:#0033B6"></rect><rect x="143.34" y="170.35" width="7.99" height="13.21" style="fill:#fff;opacity:0.4"></rect><rect x="157.47" y="162.98" width="7.99" height="20.59" style="fill:#0033B6"></rect><rect x="157.47" y="162.98" width="7.99" height="20.59" style="fill:#fff;opacity:0.4"></rect><rect x="172.22" y="155.61" width="7.99" height="27.96" style="fill:#0033B6"></rect><rect x="172.22" y="155.61" width="7.99" height="27.96" style="fill:#fff;opacity:0.4"></rect><rect x="186.97" y="148.54" width="7.99" height="35.03" style="fill:#0033B6"></rect><rect x="186.97" y="148.54" width="7.99" height="35.03" style="fill:#263238;opacity:0.2"></rect></g></svg>
