<svg xmlns="http://www.w3.org/2000/svg" viewBox="0 0 500 500"><g id="freepik--Character--inject-110"><polygon points="304 276.14 298.3 327.02 336.4 327.02 340.9 276.14 304 276.14" style="fill:#0033B6"></polygon><polygon points="304 276.14 298.3 327.02 331.97 327.02 336.47 276.14 304 276.14" style="fill:#fff;opacity:0.30000000000000004"></polygon><polygon points="336.47 276.14 331.97 327.02 336.4 327.02 340.9 276.14 336.47 276.14" style="fill:#fff;opacity:0.1"></polygon><path d="M353.65,286.46H294.09a3.26,3.26,0,0,1-3.26-3.41l3.6-75.1a3.25,3.25,0,0,1,3.25-3.1h59.88Z" style="fill:#0033B6"></path><polygon points="352.61 204.85 348.7 286.46 353.65 286.46 357.56 204.85 352.61 204.85" style="fill:#fff;opacity:0.2"></polygon><path d="M347.15,208.34l-3.55,74.28a3.67,3.67,0,0,0,3.66,3.84h1.44l3.91-81.61h-1.79A3.68,3.68,0,0,0,347.15,208.34Z" style="opacity:0.1"></path><polygon points="293.24 328.84 293.71 344.41 295.83 414.84 302.83 414.84 304.94 344.41 305.41 328.84 293.24 328.84" style="fill:#0033B6"></polygon><polygon points="293.24 328.84 293.71 344.41 295.83 414.84 302.83 414.84 304.94 344.41 305.41 328.84 293.24 328.84" style="fill:#fff;opacity:0.4;isolation:isolate"></polygon><polygon points="293.24 328.84 293.71 344.84 304.94 344.84 305.41 328.84 293.24 328.84" style="opacity:0.2;isolation:isolate"></polygon><polygon points="255.22 414.59 261.69 329.94 272.26 329.94 263.21 414.59 255.22 414.59" style="fill:#0033B6"></polygon><polygon points="263.23 414.59 255.23 414.59 261.1 337.54 261.69 329.84 272.26 329.84 271.44 337.54 263.23 414.59" style="fill:#fff;opacity:0.5;isolation:isolate"></polygon><polygon points="272.26 329.84 271.44 337.84 261.1 337.84 261.69 329.84 272.26 329.84" style="opacity:0.2;isolation:isolate"></polygon><polygon points="335.45 414.59 326.39 329.94 336.96 329.94 343.43 414.59 335.45 414.59" style="fill:#0033B6"></polygon><polygon points="335.43 414.59 327.21 337.54 326.4 329.84 336.97 329.84 337.55 337.54 343.42 414.59 335.43 414.59" style="fill:#fff;opacity:0.5;isolation:isolate"></polygon><polygon points="326.4 329.84 327.21 337.84 337.55 337.84 336.97 329.84 326.4 329.84" style="opacity:0.2;isolation:isolate"></polygon><path d="M256,321.18h86.6a0,0,0,0,1,0,0v6.69a5,5,0,0,1-5,5H261a5,5,0,0,1-5-5v-6.69A0,0,0,0,1,256,321.18Z" transform="translate(598.65 654.04) rotate(-180)" style="fill:#0033B6"></path><rect x="251.88" y="327.02" width="94.9" height="5.84" rx="2.01" transform="translate(598.65 659.89) rotate(180)" style="fill:#0033B6"></rect><rect x="251.88" y="327.02" width="94.9" height="5.84" rx="2.01" transform="translate(598.65 659.89) rotate(180)" style="fill:#fff;opacity:0.6000000000000001;isolation:isolate"></rect><path d="M328.73,321.18H314.08L285.13,320l.46,1.92-22.4.18-1.15.32,1.15,10.44h25.93l-1.87-9.41C297.29,323.39,322.8,325.71,328.73,321.18Z" style="opacity:0.1"></path><path d="M269.62,240.71s-28.39,6-30,6.26-9.2-2-10.66-1.79-3.85,7.06-4,8.59,11.91,2.66,13,2.24a20.65,20.65,0,0,0,3.31-2.21l29.69-3.13Z" style="fill:#e6ae76"></path><polygon points="325.05 201.96 309.28 202.75 305.73 206.92 325.81 206.48 325.05 201.96" style="fill:#0033B6"></polygon><path d="M294.44,227.6s-.28.76-.79,2-1.29,3.13-2.24,5.19c-2.3,5-5.64,11.36-9.13,14.79a9.4,9.4,0,0,1-3.1,2.16c-3.72,1.43-12.87,2.1-21.2,2s-15.63.68-15.63.68v-8.84l27.39-6.36s14.44-25.87,23-29.73Z" style="fill:#263238"></path><path d="M293.65,229.61c-.52,1.3-1.29,3.13-2.24,5.19-2.3,5-5.64,11.36-9.13,14.79-3.55-13.08,9.58-25.53,9.58-25.53Z" style="opacity:0.2;isolation:isolate"></path><polygon points="290.11 408.88 282.15 407.78 281.04 388.85 289 389.95 290.11 408.88" style="fill:#e6ae76"></polygon><polygon points="289 389.95 281.04 388.86 281.68 399.68 289.62 400.38 289 389.95" style="opacity:0.2;isolation:isolate"></polygon><path d="M289.79,297.56l1.95-12.18,44.66-2.67s4.75,25.34,1.1,32.09c-6.52,12.05-41.62,6-51.89,7.15,6.14,25.11,5.54,74.18,5.54,74.18l-14.67,1.12s-11.29-52.87-13.57-78C261.37,302.3,275.41,302.72,289.79,297.56Z" style="fill:#0033B6"></path><polygon points="271.74 401.81 263.72 402.39 258.69 384.1 266.7 383.52 271.74 401.81" style="fill:#e6ae76"></polygon><path d="M262.63,402.67l-.13,0h0c0-.12-.4-2.36-1.38-2.9a.93.93,0,0,0-.8,0,.7.7,0,0,0-.49.73,3,3,0,0,0,1.19,1.63,3.24,3.24,0,0,0-2.25.06.7.7,0,0,0-.27.62,1,1,0,0,0,.5.95,2.1,2.1,0,0,0,1.56,0,9.42,9.42,0,0,0,2-.84.06.06,0,0,0,.07,0s0,0,0-.06A.11.11,0,0,0,262.63,402.67Zm-2.41-2.24c0-.11,0-.25.27-.36l.09,0a.55.55,0,0,1,.43.06c.58.31,1,1.52,1.17,2.26l-.18-.05C261.21,401.87,260.29,401,260.22,400.43Zm-1.05,2.93a.69.69,0,0,1-.31-.6.34.34,0,0,1,.14-.31c.45-.34,1.92-.05,3,.27C260.67,403.38,259.64,403.62,259.17,403.36Z" style="fill:#0033B6"></path><polygon points="266.7 383.52 258.69 384.11 261.57 394.57 269.48 393.6 266.7 383.52" style="opacity:0.2;isolation:isolate"></polygon><path d="M256,393.28l14.12-4.15s-8.43-47.58-17-64.08c.64-.21,1.49-.48,2.54-.79,1.89-.57,4.4-1.28,7.35-2.1,20.52-5.69,62.11-16.36,62.11-16.36l-19-17.73s-75.68,11.54-77.25,31.48C228.12,329.14,256,393.28,256,393.28Z" style="fill:#0033B6"></path><path d="M255.66,324.26c1.89-.57,4.58-1.33,7.53-2.15-.59-4.84-.78-10.34,1.55-13.17,4.63-5.64,16.54-8.95,23.32-10.15,5.67-1,24.72-3,24.72-3s-24.72-2.37-50,5C250.3,304.45,252.73,316.66,255.66,324.26Z" style="opacity:0.2;isolation:isolate"></path><path d="M338.88,295.44c3-2.29.11-23.59,1.64-44.55,2.33-31.89,0-42.14-2.35-43.13a88.89,88.89,0,0,0-13.12-1.3,166.05,166.05,0,0,0-19.32.41,86,86,0,0,0-13,2.65s-10.52,33.49-3.8,81.75Z" style="fill:#263238"></path><path d="M338.88,295.44c3-2.29.11-23.59,1.64-44.55,2.33-31.89,0-42.14-2.35-43.13a88.89,88.89,0,0,0-13.12-1.3,166.05,166.05,0,0,0-19.32.41,86,86,0,0,0-13,2.65s-10.52,33.49-3.8,81.75Z" style="fill:#fff;opacity:0.1"></path><path d="M322.67,184.8c-1.09,6.24-2.06,17.65,2.38,21.71a20,20,0,0,1-14,6.35c-8,.35-5.31-5.94-5.31-5.94,6.9-1.8,6.61-6.94,5.3-11.75Z" style="fill:#e6ae76"></path><path d="M317.93,189,311,195.17a20.89,20.89,0,0,1,.67,3.42c2.64-.44,8.32-6.08,8.55-8.86C320.39,188.61,318.2,190.13,317.93,189Z" style="opacity:0.2;isolation:isolate"></path><path d="M307.55,168.65c3.45,2.34,1.88,6.31-5.92,12.51-3.17-4.11-3.7-12.08-1.18-14.09S304.54,166.63,307.55,168.65Z" style="fill:#263238"></path><path d="M322.38,175.08c-.38,8.43-.17,13.37-4.34,17.77-6.29,6.6-16.74,2.93-18.9-5.44-1.92-7.52-1-20,7.19-23.53a11.51,11.51,0,0,1,16.05,11.2Z" style="fill:#e6ae76"></path><path d="M309.85,177.6c0,.69-.35,1.25-.8,1.25s-.81-.53-.82-1.22.34-1.24.78-1.26S309.79,176.93,309.85,177.6Z" style="fill:#263238"></path><path d="M302.06,177.74c0,.69-.35,1.25-.79,1.26s-.83-.54-.84-1.23.34-1.25.79-1.25S302.05,177.06,302.06,177.74Z" style="fill:#263238"></path><path d="M304.6,178a24.64,24.64,0,0,1-3.17,5.92,4,4,0,0,0,3.29.55Z" style="fill:#d08245"></path><path d="M311.93,175.11a.4.4,0,0,0,.26-.06.41.41,0,0,0,.07-.57,4,4,0,0,0-3.3-1.6.38.38,0,0,0-.37.4v0a.43.43,0,0,0,.44.37h0a3.17,3.17,0,0,1,2.59,1.29A.41.41,0,0,0,311.93,175.11Z" style="fill:#263238"></path><path d="M298.47,175.18a.42.42,0,0,0,.36-.24,3.2,3.2,0,0,1,2.23-1.85.42.42,0,0,0,.35-.46.42.42,0,0,0-.45-.35,4,4,0,0,0-2.86,2.33.4.4,0,0,0,.19.53h0A.47.47,0,0,0,298.47,175.18Z" style="fill:#263238"></path><path d="M318.9,167.68c-3.92,1.41-3.36,5.65,2.68,13.57,4.08-3.21,6.55-10.83,4.59-13.38S322.31,166.45,318.9,167.68Z" style="fill:#263238"></path><path d="M326.5,181.75a8,8,0,0,1-3.73,4.86c-2.45,1.38-4.34-.65-4.22-3.31.1-2.39,1.51-6,4.23-6.29S327.17,179.23,326.5,181.75Z" style="fill:#e6ae76"></path><path d="M311,185.89s-1.46,2.76-5.54,2.63" style="fill:none;stroke:#263238;stroke-linecap:round;stroke-linejoin:round;stroke-width:0.526291px"></path><path d="M310.35,166.34s1.25,8.44,9.38,9S327.6,171,327.6,171a9.36,9.36,0,0,0,0-8.06c-1.87-3.7-11.83-2.55-16.56-3.45-20.11-5.33-20,.75-15.94,9,0,0-1.32,3.15,3.56,5.52C298.66,174,299.59,165.45,310.35,166.34Z" style="fill:#263238"></path><path d="M296.52,246.1s-29-.66-30.64-.83-8.5-4-10-4.2-5.38,6-5.86,7.44,11,5.33,12.1,5.17a20.69,20.69,0,0,0,3.73-1.39l29.61,3.81Z" style="fill:#e6ae76"></path><path d="M341.39,234.48s0,0,0,0c-4.31,7-10.34,14.45-16.35,14.1-6.29-.37,0-13.21,6.81-24.39a15.72,15.72,0,0,1,.67,1.57c1.53,4.28,6.2-1,8.58-7.88A149,149,0,0,1,341.39,234.48Z" style="opacity:0.2;isolation:isolate"></path><path d="M262.93,401.58l8.68-2.42a.56.56,0,0,1,.72.36h0l2.34,6.76a1.42,1.42,0,0,1-1,1.75c-3,.79-4.54,1-8.37,2.06-2.35.65-6.92,2.15-10.27,2.53s-3.64-2.94-2.25-3.4c3.27-1.09,7.2-4.51,8.9-6.83A2.26,2.26,0,0,1,262.93,401.58Z" style="fill:#263238"></path><path d="M281.35,407.8h0c0-.14-.13-2.41-1-3.14a1.22,1.22,0,0,0-.89-.21.78.78,0,0,0-.68.61,2.8,2.8,0,0,0,.79,1.84,3.28,3.28,0,0,0-2.23-.41.68.68,0,0,0-.4.56,1,1,0,0,0,.29,1,2.21,2.21,0,0,0,1.53.3,10.61,10.61,0,0,0,2.09-.42H281s0,0,0-.06.2,0,.2-.08l.17,0Zm-2.21-2.67c0-.11.07-.24.34-.29h.09a.56.56,0,0,1,.41.14,4.17,4.17,0,0,1,.68,2.46l-.17-.09A3.78,3.78,0,0,1,279.14,405.13Zm-1.64,2.65a.65.65,0,0,1-.17-.65.34.34,0,0,1,.19-.28c.51-.23,1.89.35,2.86.89C279,408.11,277.9,408.13,277.5,407.78Z" style="fill:#0033B6"></path><path d="M281.55,406.82l9-.56a.56.56,0,0,1,.62.51h0l.89,7.1a1.42,1.42,0,0,1-1.31,1.5c-3.15.15-4.66.06-8.62.27-2.43.15-7.22.67-10.57.34s-2.95-3.63-1.5-3.79c3.44-.39,8-2.91,10.14-4.83A2.23,2.23,0,0,1,281.55,406.82Z" style="fill:#263238"></path><path d="M338.17,207.76a25.82,25.82,0,0,0-11.25,10.84c-4.58,8.08-12.53,25.2-15.88,26.05s-43.24-.87-43.24-.87l-1.57,10.27s44.57,7.49,52.66,3.35S353,213.1,338.17,207.76Z" style="fill:#263238"></path><path d="M305.73,206.92c-5.7,3.94-7.7,19.68-7.7,19.68-1,6.6-.79,8.63,3.4,9.45,10.46,2.4,15.2-2.81,16.1-8.1,0,0,3.2-17.39,8.29-21.47l-14.29,6.4Z" style="fill:#fff;opacity:0.30000000000000004"></path><path d="M305.73,206.92c-5.7,3.94-7.7,19.68-7.7,19.68-1,6.6-.79,8.63,3.4,9.45,10.46,2.4,15.2-2.81,16.1-8.1,0,0,3.2-17.39,8.29-21.47l-14.29,6.4Z" style="fill:#0033B6"></path><path d="M305.73,206.92c-5.7,3.94-7.7,19.68-7.7,19.68-1,6.6-.79,8.63,3.4,9.45,10.46,2.4,15.2-2.81,16.1-8.1,0,0,3.2-17.39,8.29-21.47l-14.29,6.4Z" style="fill:#fff;opacity:0.5"></path><polygon points="311.53 212.88 314.08 205.79 325.05 201.96 325.81 206.48 311.53 212.88" style="fill:#0033B6"></polygon><polygon points="311.53 212.88 314.08 205.79 325.05 201.96 325.81 206.48 311.53 212.88" style="fill:#fff;opacity:0.05"></polygon><polygon points="314.08 205.79 317.15 212.88 325.81 206.48 325.05 201.96 314.08 205.79" style="fill:#0033B6"></polygon><polygon points="314.08 205.79 317.15 212.88 325.81 206.48 325.05 201.96 314.08 205.79" style="fill:#fff;opacity:0.2"></polygon><polygon points="311.53 212.88 308.59 205.77 309.28 202.75 305.73 206.92 311.53 212.88" style="fill:#0033B6"></polygon><polygon points="311.53 212.88 308.59 205.77 309.28 202.75 305.73 206.92 311.53 212.88" style="fill:#fff;opacity:0.05"></polygon><polygon points="308.59 205.77 305.5 213.55 305.73 206.92 309.28 202.75 308.59 205.77" style="fill:#0033B6"></polygon><polygon points="308.59 205.77 305.5 213.55 305.73 206.92 309.28 202.75 308.59 205.77" style="fill:#fff;opacity:0.2"></polygon></g></svg>
