<svg xmlns="http://www.w3.org/2000/svg" viewBox="0 0 500 500"><g id="freepik--Speech-bubble-3--inject-110"><path d="M330.7,150.76l16.24-17.13a33.41,33.41,0,1,0-6.64-4.7Z" style="fill:#0033B6"></path><path d="M330.7,150.76l16.24-17.13a33.41,33.41,0,1,0-6.64-4.7Z" style="fill:#fff;opacity:0.7000000000000001"></path><polygon points="334.84 81.97 365.43 57.41 396.87 81.97 368.76 109.77 334.84 81.97" style="fill:#0033B6"></polygon><rect x="336.97" y="68.7" width="57.1" height="33.74" style="fill:#0033B6"></rect><rect x="336.97" y="68.7" width="57.1" height="33.74" style="fill:#fff;opacity:0.5"></rect><rect x="346.34" y="76.45" width="44.85" height="1.08" style="fill:#fff"></rect><rect x="339.67" y="79.69" width="51.51" height="1.26" style="fill:#fff"></rect><rect x="339.67" y="83.11" width="51.51" height="1.26" style="fill:#fff"></rect><rect x="339.67" y="86.35" width="51.51" height="1.26" style="fill:#fff"></rect><rect x="339.67" y="89.72" width="51.51" height="1.26" style="fill:#fff"></rect><rect x="339.76" y="92.66" width="51.51" height="1.26" style="fill:#fff"></rect><rect x="339.76" y="95.9" width="51.51" height="1.26" style="fill:#fff"></rect><rect x="339.67" y="98.42" width="51.51" height="1.26" style="fill:#fff"></rect><polygon points="396.87 118.35 334.84 118.35 334.84 81.97 365.85 102.5 396.87 81.97 396.87 118.35" style="fill:#0033B6"></polygon><polygon points="396.87 118.35 334.84 118.35 334.84 81.97 365.85 102.5 396.87 81.97 396.87 118.35" style="fill:#fff;opacity:0.2"></polygon></g></svg>
