<svg xmlns="http://www.w3.org/2000/svg" viewBox="0 0 500 500"><g id="freepik--Speech-bubble-2--inject-110"><path d="M274.57,156.05l-9-24.41a36.78,36.78,0,1,0-7.89,4.26Z" style="fill:#0033B6"></path><path d="M274.57,156.05l-9-24.41a36.78,36.78,0,1,0-7.89,4.26Z" style="fill:#fff;opacity:0.7000000000000001"></path><rect x="220.79" y="65.1" width="50.03" height="64.58" style="fill:#0033B6"></rect><rect x="220.79" y="68.54" width="50.03" height="61.14" style="fill:#fff;opacity:0.4"></rect><path d="M246.57,72.63h-18a2.42,2.42,0,0,0-2.43,2.42v3.57a2.43,2.43,0,0,0,2.43,2.43h.64a4,4,0,0,1-3.07,2.68c2.31-.1,3.82-1,4.55-2.68h15.87A2.43,2.43,0,0,0,249,78.62V75.05A2.42,2.42,0,0,0,246.57,72.63Z" style="fill:#fff;opacity:0.7000000000000001"></path><path d="M247,95.34H228.19a2,2,0,0,0-2,2v1.78a2,2,0,0,0,2,2h1.08a4,4,0,0,1-3.12,2.87c2.39-.11,3.92-1.07,4.62-2.87H247a2.05,2.05,0,0,0,2.05-2V97.39A2.05,2.05,0,0,0,247,95.34Z" style="fill:#fff;opacity:0.7000000000000001"></path><path d="M263.39,105.94H252.67a2.08,2.08,0,0,0-2.08,2.07v1a2.08,2.08,0,0,0,2.08,2.07h7.53c.7,1.8,2.23,2.77,4.62,2.88a4,4,0,0,1-3.11-2.88h1.68a2.07,2.07,0,0,0,2.07-2.07v-1A2.07,2.07,0,0,0,263.39,105.94Z" style="fill:#fff;opacity:0.7000000000000001"></path><path d="M263.42,82.58H237.77a2.05,2.05,0,0,0-2.05,2v4.73a2.05,2.05,0,0,0,2.05,2h22.36c.66,1.92,2.22,3,4.69,3.06a4,4,0,0,1-3.15-3.06h1.75a2,2,0,0,0,2-2V84.62A2,2,0,0,0,263.42,82.58Z" style="fill:#fff;opacity:0.7000000000000001"></path><rect x="224.28" y="121.72" width="43.05" height="4.42" rx="1.8" style="fill:#fff;opacity:0.8"></rect></g></svg>
