<svg xmlns="http://www.w3.org/2000/svg" viewBox="0 0 500 500"><g id="freepik--Speech-bubble-4--inject-110"><path d="M359.51,194.79l22.28,5.13a32.4,32.4,0,1,0,.66-7.85Z" style="fill:#0033B6"></path><path d="M359.51,194.79l22.28,5.13a32.4,32.4,0,1,0,.66-7.85Z" style="fill:#fff;opacity:0.7000000000000001"></path><path d="M434.43,177a18.9,18.9,0,0,0-7.15,1.4,16.62,16.62,0,0,0-32.66,4.37c0,.34,0,.68.05,1h-.05a15.6,15.6,0,0,0-2.26,31V215h42.07a19,19,0,0,0,0-38Z" style="fill:#0033B6"></path><path d="M434.43,177a18.9,18.9,0,0,0-7.15,1.4,16.62,16.62,0,0,0-32.66,4.37c0,.34,0,.68.05,1h-.05a15.6,15.6,0,0,0-2.26,31V215h42.07a19,19,0,0,0,0-38Z" style="fill:#fff;opacity:0.9"></path><polygon points="424.18 221.93 424.18 205.83 406.77 205.83 406.77 221.93 401.18 221.93 414.98 234.09 428.78 221.93 424.18 221.93" style="fill:#0033B6"></polygon></g></svg>
