<svg xmlns="http://www.w3.org/2000/svg" viewBox="0 0 500 500"><g id="freepik--Desk--inject-110"><rect x="129.17" y="215.01" width="2.25" height="18.58" transform="translate(-44.07 32.24) rotate(-12.08)" style="fill:#0033B6"></rect><rect x="129.17" y="215.01" width="2.25" height="18.58" transform="translate(-44.07 32.24) rotate(-12.08)" style="fill:#fff;opacity:0.30000000000000004"></rect><rect x="134.67" y="213.21" width="2.25" height="18.58" style="fill:#0033B6"></rect><rect x="134.67" y="213.21" width="2.25" height="18.58" style="fill:#fff;opacity:0.30000000000000004"></rect><rect x="142.1" y="216.7" width="2.25" height="18.58" transform="translate(76.31 -33.06) rotate(17.88)" style="fill:#0033B6"></rect><rect x="142.1" y="216.7" width="2.25" height="18.58" transform="translate(76.31 -33.06) rotate(17.88)" style="fill:#fff;opacity:0.30000000000000004"></rect><path d="M129,231.8h15.78a0,0,0,0,1,0,0v21.13a3.17,3.17,0,0,1-3.17,3.17H132.2a3.17,3.17,0,0,1-3.17-3.17V231.8A0,0,0,0,1,129,231.8Z" style="fill:#0033B6"></path><path d="M129,231.8h15.78a0,0,0,0,1,0,0v21.13a3.17,3.17,0,0,1-3.17,3.17H132.2a3.17,3.17,0,0,1-3.17-3.17V231.8A0,0,0,0,1,129,231.8Z" style="fill:#fff;opacity:0.1"></path><polygon points="350.86 362.64 349.29 365.57 349.29 368.42 352.66 369.62 357.16 369.17 356.19 365.72 350.86 362.64" style="fill:#0033B6"></polygon><polygon points="350.86 362.64 349.29 365.57 349.29 368.42 352.66 369.62 357.16 369.17 356.19 365.72 350.86 362.64" style="fill:#fff;opacity:0.30000000000000004"></polygon><polygon points="350.11 365.34 352.36 366.13 352.36 368.72 351.76 367.03 350.71 367.44 351.24 366.54 350.11 365.34" style="fill:#263238;opacity:0.30000000000000004"></polygon><polygon points="354.01 366.13 355.65 366.13 356.71 368.72 355.36 367.03 354.01 366.13" style="fill:#263238;opacity:0.30000000000000004"></polygon><polygon points="345.28 371.75 341.9 369.24 344 365.53 348.5 364.48 351.05 366.5 350.6 371.75 345.28 371.75" style="fill:#0033B6"></polygon><polygon points="345.28 371.75 341.9 369.24 344 365.53 348.5 364.48 351.05 366.5 350.6 371.75 345.28 371.75" style="fill:#fff;opacity:0.2"></polygon><polygon points="342.58 369.06 345.5 368.12 348.35 369.06 350.15 371.38 347.38 369.62 345.43 370.18 345.43 368.75 342.58 369.06" style="fill:#263238;opacity:0.30000000000000004"></polygon><polygon points="344.9 366.13 346.48 367.33 348.13 367.33 349.7 366.73 347.3 366.73 344.9 366.13" style="fill:#263238;opacity:0.30000000000000004"></polygon><polygon points="358.77 363.75 356.29 367.27 358.77 371.1 360.94 370.57 363.87 370.65 365.07 367.42 360.68 363.75 358.77 363.75" style="fill:#0033B6"></polygon><polygon points="358.77 363.75 356.29 367.27 358.77 371.1 360.94 370.57 363.87 370.65 365.07 367.42 360.68 363.75 358.77 363.75" style="fill:#fff;opacity:0.2"></polygon><polygon points="357.12 366.95 359.74 366.95 359.07 370.27 358.92 367.8 357.12 366.95" style="fill:#263238;opacity:0.30000000000000004"></polygon><polygon points="360.44 369.9 360.68 366.95 364.24 367.8 362.34 368.25 363.19 369.9 361.39 367.8 360.44 369.9" style="fill:#263238;opacity:0.30000000000000004"></polygon><polygon points="358.43 365.66 359.74 364.87 361.39 365.66 363.12 366.95 359.74 365.66 358.43 365.66" style="fill:#263238;opacity:0.30000000000000004"></polygon><polygon points="360.77 365.08 362.73 371 366.17 371.75 370.97 370.78 373.37 367.56 371.12 362.68 364.15 362.15 360.77 365.08" style="fill:#0033B6"></polygon><polygon points="360.77 365.08 362.73 371 366.17 371.75 370.97 370.78 373.37 367.56 371.12 362.68 364.15 362.15 360.77 365.08" style="fill:#fff;opacity:0.1"></polygon><polygon points="363.31 369.76 365.4 367.39 368.27 367.51 368.66 369.9 367.76 368.35 365.72 368.15 363.31 369.76" style="fill:#263238;opacity:0.30000000000000004"></polygon><polygon points="369.1 367.25 371.72 366.83 372.9 367.39 371 370.26 372.23 367.68 371.53 367.39 369.1 367.25" style="fill:#263238;opacity:0.30000000000000004"></polygon><polygon points="363.17 368.35 361.37 365.29 363.85 363.74 368.66 364.92 364.37 364.47 362.36 365.65 363.17 368.35" style="fill:#263238;opacity:0.30000000000000004"></polygon><polygon points="365.99 362.78 370.41 363.18 372.17 366.05 370.09 363.74 365.99 362.78" style="fill:#263238;opacity:0.30000000000000004"></polygon><path d="M340.36,370.8h34.55a0,0,0,0,1,0,0v40.65a4.67,4.67,0,0,1-4.67,4.67H345a4.67,4.67,0,0,1-4.67-4.67V370.8A0,0,0,0,1,340.36,370.8Z" style="fill:#0033B6"></path><path d="M340.36,370.8h34.55a0,0,0,0,1,0,0v40.65a4.67,4.67,0,0,1-4.67,4.67H345a4.67,4.67,0,0,1-4.67-4.67V370.8A0,0,0,0,1,340.36,370.8Z" style="fill:#fff;opacity:0.30000000000000004"></path><path d="M341.13,368.64h33a1.27,1.27,0,0,1,1.27,1.27v1.37a0,0,0,0,1,0,0H339.86a0,0,0,0,1,0,0v-1.37A1.27,1.27,0,0,1,341.13,368.64Z" style="fill:#0033B6"></path><path d="M341.13,368.64h33a1.27,1.27,0,0,1,1.27,1.27v1.37a0,0,0,0,1,0,0H339.86a0,0,0,0,1,0,0v-1.37A1.27,1.27,0,0,1,341.13,368.64Z" style="fill:#fff;opacity:0.4"></path><rect x="165.31" y="281.31" width="12.45" height="134.93" style="fill:#0033B6"></rect><rect x="171.31" y="281.24" width="6.46" height="134.93" style="opacity:0.4"></rect><rect x="379.82" y="281.24" width="6.46" height="134.93" style="fill:#0033B6"></rect><rect x="98.02" y="281.24" width="6.46" height="134.93" style="fill:#0033B6"></rect><polygon points="392.91 416.13 386.45 416.13 386.45 281.27 283.55 281.27 283.55 416.13 271.74 416.13 271.74 281.27 98.45 281.27 98.45 416.13 92.53 416.13 92.53 256.1 392.91 256.1 392.91 416.13" style="fill:#0033B6"></polygon><polygon points="392.91 416.13 386.45 416.13 386.45 281.27 283.55 281.27 283.55 416.13 277.16 416.13 277.16 263.95 392.91 263.95 392.91 416.13" style="fill:#fff;opacity:0.1"></polygon><rect x="277.16" y="256.1" width="115.75" height="7.85" style="opacity:0.30000000000000004"></rect><rect x="92.53" y="256.1" width="184.7" height="7.85" style="opacity:0.1"></rect><polygon points="277.24 416.13 271.56 415.99 271.74 281.27 98.45 281.27 98.45 416.13 92.53 416.13 92.53 263.95 277.24 263.95 277.24 416.13" style="fill:#fff;opacity:0.4"></polygon><rect x="98.02" y="281.24" width="6.46" height="134.93" style="opacity:0.4"></rect><rect x="379.82" y="281.24" width="6.46" height="134.93" style="opacity:0.4"></rect></g><g id="freepik--Device--inject-110"><path d="M192.48,252.1v2.64c0,.8,1.37,1.36,2.15,1.36h61.8c.79,0,2.05-.56,2.05-1.36V252.1Z" style="fill:#263238"></path><path d="M192.48,252.1v2.64c0,.8,1.37,1.36,2.15,1.36h61.8c.79,0,2.05-.56,2.05-1.36V252.1Z" style="fill:#fff;opacity:0.6000000000000001;isolation:isolate"></path><path d="M192.48,252.1v2.64c0,.8,1.37,1.36,2.15,1.36h40.76c.79,0,2.09-.56,2.09-1.36V252.1Z" style="opacity:0.2;isolation:isolate"></path><path d="M182.58,219.61l7.35,33.48a2.61,2.61,0,0,0,2.39,2H232.5a1.74,1.74,0,0,0,1.51-2.24l-7.34-33.12a2.3,2.3,0,0,0-2.39-1.64H184.09C183,218.1,182.34,218.52,182.58,219.61Z" style="fill:#263238"></path><path d="M182.58,219.61l7.35,33.48a2.61,2.61,0,0,0,2.39,2H232.5a1.74,1.74,0,0,0,1.51-2.24l-7.34-33.12a2.3,2.3,0,0,0-2.39-1.64H184.09C183,218.1,182.34,218.52,182.58,219.61Z" style="fill:#fff;opacity:0.6000000000000001;isolation:isolate"></path><path d="M182.58,219.61l7.35,33.48a2.61,2.61,0,0,0,2.39,2h38.82a1.75,1.75,0,0,0,1.52-2.24l-7.36-33.12a2.3,2.3,0,0,0-2.39-1.64H184.09C183,218.1,182.34,218.52,182.58,219.61Z" style="fill:#fff;opacity:0.4;isolation:isolate"></path><path d="M206.21,241.07c-1.87,0-3.79-2-4.28-4.48s.64-4.49,2.52-4.49a2.91,2.91,0,0,1,1,.2,5.74,5.74,0,0,0,3.19,4.09,1.46,1.46,0,0,1,0,.2C209.22,239.06,208.09,241.07,206.21,241.07Z" style="opacity:0.2;isolation:isolate"></path></g></svg>
