<svg xmlns="http://www.w3.org/2000/svg" viewBox="0 0 500 500"><g id="freepik--background-complete--inject-110"><rect y="382.4" width="500" height="0.25" style="fill:#ebebeb"></rect><rect x="416.78" y="398.49" width="33.12" height="0.25" style="fill:#ebebeb"></rect><rect x="322.53" y="401.21" width="8.69" height="0.25" style="fill:#ebebeb"></rect><rect x="396.59" y="389.21" width="19.19" height="0.25" style="fill:#ebebeb"></rect><rect x="52.46" y="390.89" width="43.19" height="0.25" style="fill:#ebebeb"></rect><rect x="104.56" y="390.89" width="6.33" height="0.25" style="fill:#ebebeb"></rect><rect x="131.47" y="395.11" width="93.68" height="0.25" style="fill:#ebebeb"></rect><path d="M237,337.8H43.91a5.71,5.71,0,0,1-5.7-5.71V60.66A5.71,5.71,0,0,1,43.91,55H237a5.71,5.71,0,0,1,5.71,5.71V332.09A5.71,5.71,0,0,1,237,337.8ZM43.91,55.2a5.46,5.46,0,0,0-5.45,5.46V332.09a5.46,5.46,0,0,0,5.45,5.46H237a5.47,5.47,0,0,0,5.46-5.46V60.66A5.47,5.47,0,0,0,237,55.2Z" style="fill:#ebebeb"></path><path d="M453.31,337.8H260.21a5.72,5.72,0,0,1-5.71-5.71V60.66A5.72,5.72,0,0,1,260.21,55h193.1A5.71,5.71,0,0,1,459,60.66V332.09A5.71,5.71,0,0,1,453.31,337.8ZM260.21,55.2a5.47,5.47,0,0,0-5.46,5.46V332.09a5.47,5.47,0,0,0,5.46,5.46h193.1a5.47,5.47,0,0,0,5.46-5.46V60.66a5.47,5.47,0,0,0-5.46-5.46Z" style="fill:#ebebeb"></path><rect x="284.92" y="160.7" width="176.29" height="175.4" style="fill:#f0f0f0"></rect><rect x="291.15" y="168.84" width="163.83" height="47.74" style="fill:#e0e0e0"></rect><rect x="291.15" y="176.57" width="9.31" height="40.01" style="fill:#ebebeb"></rect><rect x="336.15" y="176.57" width="9.31" height="40.01" style="fill:#ebebeb"></rect><rect x="390.7" y="176.07" width="9.31" height="40.01" transform="translate(-27.56 70) rotate(-9.78)" style="fill:#ebebeb"></rect><rect x="302.68" y="181.84" width="9.31" height="34.74" style="fill:#ebebeb"></rect><rect x="324.07" y="181.84" width="9.31" height="34.74" style="fill:#ebebeb"></rect><rect x="378.07" y="181.84" width="9.31" height="34.74" style="fill:#ebebeb"></rect><rect x="352.25" y="181.24" width="9.31" height="34.74" transform="translate(-34.58 82.14) rotate(-12.53)" style="fill:#ebebeb"></rect><rect x="315.38" y="174.58" width="4.65" height="41.99" style="fill:#ebebeb"></rect><rect x="370.74" y="174.58" width="4.65" height="41.99" style="fill:#ebebeb"></rect><rect x="291.15" y="224.13" width="163.83" height="47.74" transform="translate(746.13 496) rotate(180)" style="fill:#e0e0e0"></rect><rect x="445.67" y="231.86" width="9.31" height="40.01" transform="translate(900.65 503.73) rotate(180)" style="fill:#ebebeb"></rect><rect x="400.67" y="231.86" width="9.31" height="40.01" transform="translate(810.65 503.73) rotate(180)" style="fill:#ebebeb"></rect><rect x="346.12" y="231.36" width="9.31" height="40.01" transform="translate(653.76 558.65) rotate(-170.22)" style="fill:#ebebeb"></rect><rect x="434.14" y="237.13" width="9.31" height="34.74" transform="translate(877.59 509) rotate(180)" style="fill:#ebebeb"></rect><rect x="412.75" y="237.13" width="9.31" height="34.74" transform="translate(834.81 509) rotate(180)" style="fill:#ebebeb"></rect><rect x="358.76" y="237.13" width="9.31" height="34.74" transform="translate(726.82 509) rotate(180)" style="fill:#ebebeb"></rect><rect x="384.57" y="236.54" width="9.31" height="34.74" transform="matrix(-0.98, -0.22, 0.22, -0.98, 714.11, 586.19)" style="fill:#ebebeb"></rect><rect x="426.09" y="229.87" width="4.65" height="41.99" transform="translate(856.84 501.74) rotate(180)" style="fill:#ebebeb"></rect><rect x="370.74" y="229.87" width="4.65" height="41.99" transform="translate(746.13 501.74) rotate(180)" style="fill:#ebebeb"></rect><rect x="291.15" y="231.86" width="9.31" height="40.01" style="fill:#ebebeb"></rect><rect x="302.68" y="237.13" width="9.31" height="34.74" style="fill:#ebebeb"></rect><rect x="324.07" y="237.13" width="9.31" height="34.74" style="fill:#ebebeb"></rect><rect x="315.38" y="229.87" width="4.65" height="41.99" style="fill:#ebebeb"></rect><rect x="291.15" y="279.43" width="163.83" height="47.74" style="fill:#e0e0e0"></rect><rect x="385.18" y="287.15" width="9.31" height="40.01" style="fill:#ebebeb"></rect><rect x="439.73" y="286.66" width="9.31" height="40.01" transform="translate(-45.63 79.93) rotate(-9.78)" style="fill:#ebebeb"></rect><rect x="351.71" y="292.43" width="9.31" height="34.74" style="fill:#ebebeb"></rect><rect x="373.11" y="292.43" width="9.31" height="34.74" style="fill:#ebebeb"></rect><rect x="427.1" y="292.43" width="9.31" height="34.74" style="fill:#ebebeb"></rect><rect x="401.28" y="291.83" width="9.31" height="34.74" transform="translate(-57.4 95.41) rotate(-12.53)" style="fill:#ebebeb"></rect><rect x="364.41" y="285.17" width="4.65" height="41.99" style="fill:#ebebeb"></rect><rect x="419.77" y="285.17" width="4.65" height="41.99" style="fill:#ebebeb"></rect><rect x="332.67" y="286.66" width="9.31" height="40.01" transform="translate(-47.18 61.75) rotate(-9.78)" style="fill:#ebebeb"></rect><rect x="320.03" y="292.43" width="9.31" height="34.74" style="fill:#ebebeb"></rect><rect x="294.22" y="291.83" width="9.31" height="34.74" transform="translate(-59.95 72.19) rotate(-12.53)" style="fill:#ebebeb"></rect><rect x="312.7" y="285.17" width="4.65" height="41.99" style="fill:#ebebeb"></rect><rect x="37.48" y="160.7" width="176.29" height="175.4" transform="translate(251.25 496.8) rotate(180)" style="fill:#f0f0f0"></rect><rect x="43.71" y="168.84" width="163.83" height="47.74" transform="translate(251.25 385.41) rotate(180)" style="fill:#e0e0e0"></rect><rect x="198.23" y="176.57" width="9.31" height="40.01" transform="translate(405.77 393.14) rotate(180)" style="fill:#ebebeb"></rect><rect x="153.23" y="176.57" width="9.31" height="40.01" transform="translate(315.77 393.14) rotate(180)" style="fill:#ebebeb"></rect><rect x="98.68" y="176.07" width="9.31" height="40.01" transform="translate(171.87 406.84) rotate(-170.22)" style="fill:#ebebeb"></rect><rect x="186.7" y="181.84" width="9.31" height="34.74" transform="translate(382.71 398.41) rotate(180)" style="fill:#ebebeb"></rect><rect x="165.31" y="181.84" width="9.31" height="34.74" transform="translate(339.92 398.41) rotate(180)" style="fill:#ebebeb"></rect><rect x="111.32" y="181.84" width="9.31" height="34.74" transform="translate(231.94 398.41) rotate(180)" style="fill:#ebebeb"></rect><rect x="137.13" y="181.24" width="9.31" height="34.74" transform="translate(237.11 423.25) rotate(-167.47)" style="fill:#ebebeb"></rect><rect x="178.65" y="174.58" width="4.65" height="41.99" transform="translate(361.96 391.15) rotate(180)" style="fill:#ebebeb"></rect><rect x="123.3" y="174.58" width="4.65" height="41.99" transform="translate(251.25 391.15) rotate(180)" style="fill:#ebebeb"></rect><rect x="43.71" y="224.13" width="163.83" height="47.74" style="fill:#e0e0e0"></rect><rect x="43.71" y="231.86" width="9.31" height="40.01" style="fill:#ebebeb"></rect><rect x="88.71" y="231.86" width="9.31" height="40.01" style="fill:#ebebeb"></rect><rect x="143.26" y="231.36" width="9.31" height="40.01" transform="matrix(0.99, -0.17, 0.17, 0.99, -40.54, 28.77)" style="fill:#ebebeb"></rect><rect x="55.24" y="237.13" width="9.31" height="34.74" style="fill:#ebebeb"></rect><rect x="76.63" y="237.13" width="9.31" height="34.74" style="fill:#ebebeb"></rect><rect x="130.63" y="237.13" width="9.31" height="34.74" style="fill:#ebebeb"></rect><rect x="104.81" y="236.54" width="9.31" height="34.74" transform="translate(-52.47 29.79) rotate(-12.53)" style="fill:#ebebeb"></rect><rect x="67.94" y="229.87" width="4.65" height="41.99" style="fill:#ebebeb"></rect><rect x="123.3" y="229.87" width="4.65" height="41.99" style="fill:#ebebeb"></rect><rect x="198.23" y="231.86" width="9.31" height="40.01" transform="translate(405.77 503.73) rotate(180)" style="fill:#ebebeb"></rect><rect x="186.7" y="237.13" width="9.31" height="34.74" transform="translate(382.71 509) rotate(180)" style="fill:#ebebeb"></rect><rect x="165.31" y="237.13" width="9.31" height="34.74" transform="translate(339.92 509) rotate(180)" style="fill:#ebebeb"></rect><rect x="178.65" y="229.87" width="4.65" height="41.99" transform="translate(361.96 501.74) rotate(180)" style="fill:#ebebeb"></rect><rect x="43.71" y="279.43" width="163.83" height="47.74" transform="translate(251.25 606.59) rotate(180)" style="fill:#e0e0e0"></rect><rect x="104.2" y="287.15" width="9.31" height="40.01" transform="translate(217.71 614.32) rotate(180)" style="fill:#ebebeb"></rect><rect x="49.65" y="286.66" width="9.31" height="40.01" transform="translate(55.73 618.09) rotate(-170.22)" style="fill:#ebebeb"></rect><rect x="137.67" y="292.43" width="9.31" height="34.74" transform="translate(284.64 619.59) rotate(180)" style="fill:#ebebeb"></rect><rect x="116.28" y="292.43" width="9.31" height="34.74" transform="translate(241.86 619.59) rotate(180)" style="fill:#ebebeb"></rect><rect x="62.29" y="292.43" width="9.31" height="34.74" transform="translate(133.88 619.59) rotate(180)" style="fill:#ebebeb"></rect><rect x="88.1" y="291.83" width="9.31" height="34.74" transform="translate(116.23 631.16) rotate(-167.47)" style="fill:#ebebeb"></rect><rect x="129.62" y="285.17" width="4.65" height="41.99" transform="translate(263.9 612.33) rotate(180)" style="fill:#ebebeb"></rect><rect x="74.27" y="285.17" width="4.65" height="41.99" transform="translate(153.19 612.33) rotate(180)" style="fill:#ebebeb"></rect><rect x="156.72" y="286.66" width="9.31" height="40.01" transform="translate(268.31 636.27) rotate(-170.22)" style="fill:#ebebeb"></rect><rect x="169.35" y="292.43" width="9.31" height="34.74" transform="translate(348.01 619.59) rotate(180)" style="fill:#ebebeb"></rect><rect x="195.17" y="291.83" width="9.31" height="34.74" transform="translate(327.82 654.38) rotate(-167.47)" style="fill:#ebebeb"></rect><rect x="181.33" y="285.17" width="4.65" height="41.99" transform="translate(367.32 612.33) rotate(180)" style="fill:#ebebeb"></rect><circle cx="252.04" cy="98.42" r="20.84" style="fill:#e0e0e0"></circle><circle cx="252.04" cy="98.42" r="17.52" style="fill:#ebebeb"></circle><path d="M252,99.42H252a1,1,0,0,1-.75-.44L244,88.23a1,1,0,1,1,1.66-1.12l6.54,9.7,4.56-5a1,1,0,1,1,1.47,1.35l-5.42,5.92A1,1,0,0,1,252,99.42Z" style="fill:#e0e0e0"></path></g><g id="freepik--Shadow--inject-110"><ellipse id="freepik--path--inject-110" cx="250" cy="416.24" rx="193.89" ry="11.32" style="fill:#f5f5f5"></ellipse></g></svg>
