<svg xmlns="http://www.w3.org/2000/svg" viewBox="0 0 500 500"><g id="freepik--Character--inject-318"><path d="M388.8,196.1s17.91,15.4,17.91,24.53c0,8.39-17.79,17.38-25.61,18.54a64.09,64.09,0,0,1-7.33,0,4,4,0,0,1-3.77-2.66l-.09-.26a3.93,3.93,0,0,1,.93-4.14,6.17,6.17,0,0,1,3.17-1.77c2.82-.44,6.79,3.53,6.79,3.53s17.37-10.45,17.37-12.36-7.94-8.17-10.3-11.63C385.88,207,383.84,202.77,388.8,196.1Z" style="fill:#b97964"></path><path d="M389.25,195.24c1.74,1,5.65,4,12,12.4,0,0-.23,4.56-8.35,8.81,0,0-8.65-6.65-8.57-13.06a10.9,10.9,0,0,1,3-7.93A1.63,1.63,0,0,1,389.25,195.24Z" style="fill:#214CA2"></path><path d="M387.42,210.94a34.06,34.06,0,0,0,5.45,5.51l.64-.35c.83-9.8-2.26-16-2.26-16l-3.06,4.18Z" style="opacity:0.2"></path><path d="M381.43,239.11a43.84,43.84,0,0,0,12.14-4.6c-1.64-1.2-2.13-5.37-2.26-7.31-4.46,3-9.56,6.1-10.38,6.6Z" style="fill:#606060;opacity:0.2"></path><path d="M391.72,216.18s7.22-3.91,9.5-9.78l1.35,2.28a18.78,18.78,0,0,1-9.45,8.93Z" style="fill:#214CA2"></path><path d="M391.72,216.18s7.22-3.91,9.5-9.78l1.35,2.28a18.78,18.78,0,0,1-9.45,8.93Z" style="fill:#fff;opacity:0.5"></path><path d="M383.13,209.49l-1-1.29a1.5,1.5,0,0,0-1.42-.56L369,209.49a1.5,1.5,0,0,0-1.25,1.72l3.55,22.38a1.56,1.56,0,0,0,1.78,1.3l26.61-4.22a1.56,1.56,0,0,0,1.3-1.78l-3.1-19.54a1.5,1.5,0,0,0-1.71-1.24L384.36,210A1.3,1.3,0,0,1,383.13,209.49Z" style="fill:#214CA2"></path><path d="M383.13,209.49l-1-1.29a1.5,1.5,0,0,0-1.42-.56L369,209.49a1.5,1.5,0,0,0-1.25,1.72l3.55,22.38a1.56,1.56,0,0,0,1.78,1.3l26.61-4.22a1.56,1.56,0,0,0,1.3-1.78l-3.1-19.54a1.5,1.5,0,0,0-1.71-1.24L384.36,210A1.3,1.3,0,0,1,383.13,209.49Z" style="fill:#fff;opacity:0.4"></path><path d="M396.18,208.11,384.47,210a1.53,1.53,0,0,0-1.18,1l-.55,1.55a1.33,1.33,0,0,1-1,.84l-11.82,1.87a1.5,1.5,0,0,0-1.25,1.71l2.65,16.69a1.56,1.56,0,0,0,1.78,1.3l26.61-4.22a1.56,1.56,0,0,0,1.3-1.78l-3.1-19.54A1.5,1.5,0,0,0,396.18,208.11Z" style="fill:#214CA2"></path><path d="M396.18,208.11,384.47,210a1.53,1.53,0,0,0-1.18,1l-.55,1.55a1.33,1.33,0,0,1-1,.84l-11.82,1.87a1.5,1.5,0,0,0-1.25,1.71l2.65,16.69a1.56,1.56,0,0,0,1.78,1.3l26.61-4.22a1.56,1.56,0,0,0,1.3-1.78l-3.1-19.54A1.5,1.5,0,0,0,396.18,208.11Z" style="fill:#fff;opacity:0.7000000000000001"></path><polygon points="410.6 391.37 414.21 403.97 420.1 402.81 418.56 389.36 410.6 391.37" style="fill:#b97964"></polygon><path d="M413.7,402l6.95-1.26a.6.6,0,0,1,.63.34l2.28,5.43a.94.94,0,0,1-.5,1.24.6.6,0,0,1-.19.06c-2.51.41-4.77.68-7.89,1.25-3.68.67-2.66.94-7,1.79-2.6.51-3.62-2.37-2.54-2.72,5-1.56,5.19-3.18,6.82-5.35A2.32,2.32,0,0,1,413.7,402Z" style="fill:#263238"></path><polygon points="359.26 388.92 359.26 405.62 365.52 405.62 368.75 389.31 359.26 388.92" style="fill:#b97964"></polygon><path d="M359.15,404.55l7.05.25a.58.58,0,0,1,.54.47l1.07,5.78a1,1,0,0,1-.75,1.11.66.66,0,0,1-.2,0c-2.54-.13-4.8-.35-8-.46-3.74-.13-2.81.35-7.2.25-2.65-.06-3-3.08-1.9-3.19,5.16-.46,5.75-2,7.8-3.76A2.26,2.26,0,0,1,359.15,404.55Z" style="fill:#263238"></path><path d="M378.27,249.47l11.69-3.3s8.29,5.31,9.51,29.47c.5,9.71,3.27,17.21,2.88,35.61a33.19,33.19,0,0,0,3.46,15.51,80.64,80.64,0,0,1,6.46,18.32c3.5,15.66,7.83,51.52,7.83,51.52L411.65,398s-7.83-26.58-18.13-53.16S376,277.7,376,277.7l-2.71-28.23Z" style="fill:#263238"></path><path d="M383.11,278.94l-2.37.51-2.68,2.68-.69,2.74c1.07,5.38,2.74,13.31,4.87,22.17C386.32,284.49,383.11,278.94,383.11,278.94Z" style="opacity:0.6000000000000001"></path><path d="M356.63,248.44l2.17,151.77h8.34s8.66-37.4,8.66-52.24c0-8.78-.58-18.07-1.05-24.19a34,34,0,0,1,1.67-13.42c2.75-8.17,7.06-22.24,7.62-31.42,0,0,10.92-.42,3.09-30.5Z" style="fill:#263238"></path><path d="M363.09,171.65l-3.85,3.73a4,4,0,0,0,3.42,1.18Z" style="fill:#a24e3f"></path><path d="M384.13,172.41c-1.55,7.61-2,10.87-6.47,14.27-6.49,3.18-15.69,1.54-16.44-6.38-.68-7.13,2-18.35,9.92-20.39a10.59,10.59,0,0,1,13,12.5Z" style="fill:#b97964"></path><path d="M364.64,166.8a.35.35,0,0,1-.24-.17,2.37,2.37,0,0,0-1.73-1.34.3.3,0,0,1-.27-.33.3.3,0,0,1,.34-.27,3,3,0,0,1,2.21,1.66.31.31,0,0,1-.13.42h0Z" style="fill:#263238"></path><path d="M366.2,184.45a8.27,8.27,0,0,1-4.18-1.18c1.38,2.93,4.3,4.5,7.58,4.85l-.11-1.61S369.78,184.56,366.2,184.45Z" style="fill:#606060;opacity:0.2"></path><path d="M369,193.61l.68-9.77s3.95-1.45,6.32,0c0,0,1.14,7.31,3.3,9.06Z" style="fill:#b97964"></path><path d="M361.37,169.93c-.14.56,0,1.1.41,1.19s.81-.31.94-.86,0-1.1-.41-1.19S361.52,169.36,361.37,169.93Z" style="fill:#263238"></path><path d="M362.62,169.06a2.45,2.45,0,0,1-1.69-1.32,2,2,0,0,0,1.47,2Z" style="fill:#263238"></path><path d="M363.85,171.67a6,6,0,0,0-.08,4.58c.79,1.95,2.86,1.66,4,.06,1.07-1.45,1.93-4.21.46-5.66A2.7,2.7,0,0,0,363.85,171.67Z" style="fill:#b97964"></path><path d="M387.28,166.8s4.13-3.93.83-6.82S388.57,163.1,387.28,166.8Z" style="fill:#263238"></path><path d="M370.23,161.49s-4.38-3.66-5.87-.87S366.88,160.25,370.23,161.49Z" style="fill:#263238"></path><path d="M369.77,169.94l-6.47-2.08.05-.14a1.07,1.07,0,0,0-.72-1.32l-1.18-.34a1,1,0,0,0-1.31.71L358.9,171A1.4,1.4,0,0,0,359,172a1.35,1.35,0,0,0,.82.66l.55.17h0a1.74,1.74,0,0,0,.39,0,1.39,1.39,0,0,0,1.33-1l1-3.47,6.45,2.07Zm-8.83-3.26a.5.5,0,0,1,.34,0l1.18.35a.43.43,0,0,1,.29.54l0,.13-2-.64,0-.08A.48.48,0,0,1,360.94,166.68Zm.58,5.06a.77.77,0,0,1-1,.52l-.54-.16a.77.77,0,0,1-.46-.37.74.74,0,0,1-.06-.58l1-3.53,2,.65Z" style="fill:#263238"></path><path d="M365.6,196.35s1-3.86,7.69-5.25A8.25,8.25,0,0,1,382.6,195Z" style="fill:#214CA2"></path><path d="M365.6,196.35s1-3.86,7.69-5.25A8.25,8.25,0,0,1,382.6,195Z" style="fill:#fff;opacity:0.5"></path><path d="M355.86,249.44s27.12,3.35,35.78-3.27A74,74,0,0,1,390,225c.83-11.28,4.31-22.41.6-28.51s-31.15-1.55-36.56,4S355.86,227.73,355.86,249.44Z" style="fill:#214CA2"></path><path d="M360.11,205.32,357.87,212l-5,6.29c.58,4.63,1.37,9.84,2,15.34a30.22,30.22,0,0,0,6.05-9.93c4.9-13.35,1-20.79,1-20.79Z" style="opacity:0.2"></path><path d="M365.6,175.28s-8,19.88,5.56,19.73,16.84-3.45,13.21-6.13,8.29-11.54,3.82-22.66c0,0-1.58-8.86-10.64-8.76a8.87,8.87,0,0,0-5.68-3.41,4.18,4.18,0,0,0-4.06,6.35l1.87,3S362.61,165.7,365.6,175.28Z" style="fill:#263238"></path><path d="M358.84,199.45s-6.66,1.47-8,9.84-2.14,14.71-4.58,15.56-14-8.75-14-8.75l.38-5.62a3.11,3.11,0,0,0-1.75-3l-.87-.43a3.14,3.14,0,0,0-3.36.4L326,208a3.15,3.15,0,0,0-1.09,3c.45,2.25,1.38,5.87,3,7,0,0,16.22,18.65,21.05,16.71s8.49-13.67,10.47-18.54C361,212.33,363,208.05,358.84,199.45Z" style="fill:#b97964"></path><path d="M359.26,198.36c-1.81-1.16-9.35.24-11.13,17.54,0,0,5.95,5,11.59,4.33C359.72,220.23,367.06,203.39,359.26,198.36Z" style="fill:#214CA2"></path><path d="M347.75,214.24s5.83,5,13.13,4.73l-.84,1.95s-6.19,1.36-12.56-4.74Z" style="fill:#214CA2"></path><path d="M347.75,214.24s5.83,5,13.13,4.73l-.84,1.95s-6.19,1.36-12.56-4.74Z" style="fill:#fff;opacity:0.5"></path><polygon points="410.2 396.04 410.99 399.15 420.89 397.26 420.55 394.18 410.2 396.04" style="fill:#214CA2"></polygon><polygon points="357.77 398.22 357.89 401.31 368.13 401.31 368.75 398.22 357.77 398.22" style="fill:#214CA2"></polygon></g></svg>