<svg xmlns="http://www.w3.org/2000/svg" viewBox="0 0 500 500"><g id="freepik--Plant--inject-318"><path d="M108.3,378.25c.86-13.57,6.81-27.3,16.38-36.62,2.39-2.32,7.41-6.92,3.34-9.35-4.65-2.78-13.57,10.2-14.82,12.6,2.64-10.34,10.64-17.83,19.32-22.12,4.29-2.12,8.38-4.13,3.81-7.28s-14.46,4.49-16.75,7.77c5.42-7.57,12.27-15.15,19.29-19.68,7.75-5,4.25-13.34-3.74-6.89-4.95,4-13.09,14-13.09,14s12.79-25.69,8.93-28c-5-3-13.76,32-16.18,38.9.65-5.72,1.26-19.56-3-20.16-3.89-.54-2.94,33.92-3.84,40-.57,2.65-.83,4-1.28,6.67-.42-4.59-3-16.69-6.86-15.29-3.28,1.18-1.25,10.24-.4,14.54,2.06,10.41,4.14,20.48,4.16,31.16Z" style="fill:#214CA2"></path><path d="M112.45,308.09c.58,7.48,1.1,15.08.38,22.6a125.17,125.17,0,0,1,5.33-12.81.75.75,0,0,1,.1-.2h0c.6-1.25,1.22-2.49,1.87-3.72.26-.49.9-.27.81.19,4.74-6,10.47-11.5,17.29-15,.5-.26.84.5.36.77-7.92,4.48-13.81,10.79-19.64,18.26a112.15,112.15,0,0,0-6.24,15.45,33,33,0,0,1,18.64-14c.52-.16.81.64.29.81-10.55,3.33-18,10.71-21,20.38a.59.59,0,0,1-.1.21c-1.47,6.18-2.59,12.18-3.45,18.48,3-8.87,9.39-16.7,16.75-22.2.44-.33.84.43.4.76a48.49,48.49,0,0,0-17.52,25.53s0,0,0,.05q-.48,6-.42,12a.42.42,0,1,1-.83,0A148.16,148.16,0,0,1,111.07,336c1.94-9.09,1.24-18.58.51-27.73C111.53,307.64,112.4,307.47,112.45,308.09Z" style="fill:#fff;opacity:0.4"></path><path d="M107.3,378.24c-1-16.1-8.07-32.39-19.43-43.44-2.83-2.75-8.78-8.21-4-11.09,5.51-3.29,16.1,12.1,17.57,14.94-3.12-12.26-12.62-21.14-22.91-26.23-5.09-2.52-9.94-4.89-4.52-8.63s17.16,5.33,19.86,9.21c-6.43-9-14.55-18-22.87-23.34-9.19-5.92-5-15.82,4.43-8.17C81.36,286.23,91,298.06,91,298.06S75.84,267.6,80.42,264.8c5.88-3.6,16.31,38,19.18,46.13-.76-6.78-1.48-23.2,3.62-23.91,4.61-.64,3.48,40.22,4.55,47.44.68,3.15,1,4.73,1.51,7.91.51-5.44,3.54-19.79,8.15-18.13,3.88,1.4,1.48,12.14.47,17.24-2.45,12.34-4.92,24.29-4.93,36.95Z" style="fill:#214CA2"></path><path d="M102.38,295c-.68,8.88-1.3,17.88-.45,26.8a147.49,147.49,0,0,0-6.32-15.18.86.86,0,0,0-.11-.24l0,0c-.72-1.48-1.45-2.95-2.21-4.4-.31-.59-1.08-.32-1,.22-5.62-7.15-12.41-13.64-20.5-17.82-.6-.31-1,.6-.43.92,9.39,5.31,16.37,12.8,23.3,21.66a135.2,135.2,0,0,1,7.4,18.32A39.12,39.12,0,0,0,80,308.63c-.62-.19-1,.76-.35.95,12.52,3.95,21.3,12.71,24.91,24.18a1,1,0,0,0,.13.25c1.74,7.33,3.06,14.45,4.09,21.91-3.54-10.51-11.14-19.81-19.86-26.32-.53-.4-1,.51-.48.9a57.55,57.55,0,0,1,20.78,30.28s0,0,0,.05q.57,7.08.5,14.22a.5.5,0,1,0,1,0A175.44,175.44,0,0,0,104,328.12c-2.3-10.77-1.47-22-.6-32.89C103.47,294.49,102.44,294.28,102.38,295Z" style="fill:#fff;opacity:0.2"></path><path d="M107.3,378.24c-1-16.1-8.07-32.39-19.43-43.44-2.83-2.75-8.78-8.21-4-11.09,5.51-3.29,16.1,12.1,17.57,14.94-3.12-12.26-12.62-21.14-22.91-26.23-5.09-2.52-9.94-4.89-4.52-8.63s17.16,5.33,19.86,9.21c-6.43-9-14.55-18-22.87-23.34-9.19-5.92-5-15.82,4.43-8.17C81.36,286.23,91,298.06,91,298.06S75.84,267.6,80.42,264.8c5.88-3.6,16.31,38,19.18,46.13-.76-6.78-1.48-23.2,3.62-23.91,4.61-.64,3.48,40.22,4.55,47.44.68,3.15,1,4.73,1.51,7.91.51-5.44,3.54-19.79,8.15-18.13,3.88,1.4,1.48,12.14.47,17.24-2.45,12.34-4.92,24.29-4.93,36.95Z" style="fill:#214CA2"></path><path d="M107.3,378.24c-1-16.1-8.07-32.39-19.43-43.44-2.83-2.75-8.78-8.21-4-11.09,5.51-3.29,16.1,12.1,17.57,14.94-3.12-12.26-12.62-21.14-22.91-26.23-5.09-2.52-9.94-4.89-4.52-8.63s17.16,5.33,19.86,9.21c-6.43-9-14.55-18-22.87-23.34-9.19-5.92-5-15.82,4.43-8.17C81.36,286.23,91,298.06,91,298.06S75.84,267.6,80.42,264.8c5.88-3.6,16.31,38,19.18,46.13-.76-6.78-1.48-23.2,3.62-23.91,4.61-.64,3.48,40.22,4.55,47.44.68,3.15,1,4.73,1.51,7.91.51-5.44,3.54-19.79,8.15-18.13,3.88,1.4,1.48,12.14.47,17.24-2.45,12.34-4.92,24.29-4.93,36.95Z" style="fill:#fff;opacity:0.2"></path><path d="M102.38,295c-.68,8.88-1.3,17.88-.45,26.8a147.49,147.49,0,0,0-6.32-15.18.86.86,0,0,0-.11-.24l0,0c-.72-1.48-1.45-2.95-2.21-4.4-.31-.59-1.08-.32-1,.22-5.62-7.15-12.41-13.64-20.5-17.82-.6-.31-1,.6-.43.92,9.39,5.31,16.37,12.8,23.3,21.66a135.2,135.2,0,0,1,7.4,18.32A39.12,39.12,0,0,0,80,308.63c-.62-.19-1,.76-.35.95,12.52,3.95,21.3,12.71,24.91,24.18a1,1,0,0,0,.13.25c1.74,7.33,3.06,14.45,4.09,21.91-3.54-10.51-11.14-19.81-19.86-26.32-.53-.4-1,.51-.48.9a57.55,57.55,0,0,1,20.78,30.28s0,0,0,.05q.57,7.08.5,14.22a.5.5,0,1,0,1,0A175.44,175.44,0,0,0,104,328.12c-2.3-10.77-1.47-22-.6-32.89C103.47,294.49,102.44,294.28,102.38,295Z" style="fill:#fff;opacity:0.5"></path><path d="M123.83,376.05H92.55a3.67,3.67,0,0,0-3.67,3.67v1.62A3.67,3.67,0,0,0,92.55,385h0l3.6,26h24.08l3.6-26h0a3.67,3.67,0,0,0,3.68-3.67v-1.62A3.67,3.67,0,0,0,123.83,376.05Z" style="fill:#214CA2"></path><path d="M123.83,376.05H92.55a3.67,3.67,0,0,0-3.67,3.67v1.62A3.67,3.67,0,0,0,92.55,385h0l3.6,26h24.08l3.6-26h0a3.67,3.67,0,0,0,3.68-3.67v-1.62A3.67,3.67,0,0,0,123.83,376.05Z" style="opacity:0.2"></path><polygon points="123.09 390.37 123.82 385.09 92.56 385.09 93.29 390.37 123.09 390.37" style="opacity:0.2"></polygon></g></svg>