<svg xmlns="http://www.w3.org/2000/svg" viewBox="0 0 500 500"><g id="freepik--Folders--inject-318"><path d="M169.82,168.26l-1.11-2a2.1,2.1,0,0,0-1.84-1.09H150.23a2.1,2.1,0,0,0-2.1,2.1v31.8a2.19,2.19,0,0,0,2.19,2.19h37.8a2.19,2.19,0,0,0,2.19-2.19V171.3a2.1,2.1,0,0,0-2.1-2.1H171.42A1.82,1.82,0,0,1,169.82,168.26Z" style="fill:#214CA2"></path><path d="M169.82,168.26l-1.11-2a2.1,2.1,0,0,0-1.84-1.09H150.23a2.1,2.1,0,0,0-2.1,2.1v31.8a2.19,2.19,0,0,0,2.19,2.19h37.8a2.19,2.19,0,0,0,2.19-2.19V171.3a2.1,2.1,0,0,0-2.1-2.1H171.42A1.82,1.82,0,0,1,169.82,168.26Z" style="fill:#fff;opacity:0.30000000000000004"></path><rect x="152.8" y="170.47" width="32.25" height="24.11" style="fill:#263238"></rect><rect x="152.8" y="170.47" width="32.25" height="24.11" style="fill:#fff;opacity:0.8"></rect><rect x="150.47" y="172.89" width="36.91" height="27.6" style="fill:#263238"></rect><rect x="150.47" y="172.89" width="36.91" height="27.6" style="fill:#fff;opacity:0.9"></rect><path d="M194,173.58H171.89a3.26,3.26,0,0,0-2.45.94L168,176.26a2.64,2.64,0,0,1-2.05.82h-21.6c-1.5,0-2.5.81-2.24,1.81,2.11,8.19,3.17,12.28,5.28,20.46a2.8,2.8,0,0,0,2.65,1.89h37.48a2.8,2.8,0,0,0,2.65-1.89l6.18-23.95C196.6,174.4,195.56,173.58,194,173.58Z" style="fill:#214CA2"></path><g style="opacity:0.6000000000000001"><path d="M194,173.58H171.89a3.26,3.26,0,0,0-2.45.94L168,176.26a2.64,2.64,0,0,1-2.05.82h-21.6c-1.5,0-2.5.81-2.24,1.81,2.11,8.19,3.17,12.28,5.28,20.46a2.8,2.8,0,0,0,2.65,1.89h37.48a2.8,2.8,0,0,0,2.65-1.89l6.18-23.95C196.6,174.4,195.56,173.58,194,173.58Z" style="fill:#fff"></path></g><path d="M149,213.22a2.52,2.52,0,1,1,0-5h40.33a2.52,2.52,0,1,1,0,5Z" style="fill:#263238"></path><path d="M149,213.22a2.52,2.52,0,1,1,0-5h40.33a2.52,2.52,0,1,1,0,5Z" style="fill:#fff;opacity:0.6000000000000001"></path><path d="M245,168.26l-1.11-2a2.11,2.11,0,0,0-1.84-1.09H225.45a2.1,2.1,0,0,0-2.1,2.1v31.8a2.18,2.18,0,0,0,2.18,2.19h37.81a2.18,2.18,0,0,0,2.18-2.19V171.3a2.1,2.1,0,0,0-2.1-2.1H246.63A1.82,1.82,0,0,1,245,168.26Z" style="fill:#214CA2"></path><path d="M245,168.26l-1.11-2a2.11,2.11,0,0,0-1.84-1.09H225.45a2.1,2.1,0,0,0-2.1,2.1v31.8a2.18,2.18,0,0,0,2.18,2.19h37.81a2.18,2.18,0,0,0,2.18-2.19V171.3a2.1,2.1,0,0,0-2.1-2.1H246.63A1.82,1.82,0,0,1,245,168.26Z" style="fill:#fff;opacity:0.30000000000000004"></path><rect x="228.02" y="170.47" width="32.25" height="24.11" style="fill:#263238"></rect><rect x="228.02" y="170.47" width="32.25" height="24.11" style="fill:#fff;opacity:0.8"></rect><rect x="225.69" y="172.89" width="36.91" height="27.6" style="fill:#263238"></rect><rect x="225.69" y="172.89" width="36.91" height="27.6" style="fill:#fff;opacity:0.9"></rect><path d="M269.23,173.58H247.11a3.28,3.28,0,0,0-2.46.94l-1.45,1.74a2.64,2.64,0,0,1-2,.82H219.55c-1.49,0-2.49.81-2.24,1.81,2.12,8.19,3.17,12.28,5.28,20.46a2.81,2.81,0,0,0,2.65,1.89h37.49a2.81,2.81,0,0,0,2.65-1.89l6.18-23.95C271.81,174.4,270.77,173.58,269.23,173.58Z" style="fill:#214CA2"></path><g style="opacity:0.6000000000000001"><path d="M269.23,173.58H247.11a3.28,3.28,0,0,0-2.46.94l-1.45,1.74a2.64,2.64,0,0,1-2,.82H219.55c-1.49,0-2.49.81-2.24,1.81,2.12,8.19,3.17,12.28,5.28,20.46a2.81,2.81,0,0,0,2.65,1.89h37.49a2.81,2.81,0,0,0,2.65-1.89l6.18-23.95C271.81,174.4,270.77,173.58,269.23,173.58Z" style="fill:#fff"></path></g><path d="M224.27,213.22a2.52,2.52,0,0,1,0-5H264.6a2.52,2.52,0,1,1,0,5Z" style="fill:#263238"></path><path d="M224.27,213.22a2.52,2.52,0,0,1,0-5H264.6a2.52,2.52,0,1,1,0,5Z" style="fill:#fff;opacity:0.6000000000000001"></path><path d="M169.82,248.54l-1.11-2a2.08,2.08,0,0,0-1.84-1.09H150.23a2.1,2.1,0,0,0-2.1,2.1v31.8a2.18,2.18,0,0,0,2.19,2.18h37.8a2.18,2.18,0,0,0,2.19-2.18V251.59a2.11,2.11,0,0,0-2.1-2.11H171.42A1.82,1.82,0,0,1,169.82,248.54Z" style="fill:#214CA2"></path><path d="M169.82,248.54l-1.11-2a2.08,2.08,0,0,0-1.84-1.09H150.23a2.1,2.1,0,0,0-2.1,2.1v31.8a2.18,2.18,0,0,0,2.19,2.18h37.8a2.18,2.18,0,0,0,2.19-2.18V251.59a2.11,2.11,0,0,0-2.1-2.11H171.42A1.82,1.82,0,0,1,169.82,248.54Z" style="fill:#fff;opacity:0.30000000000000004"></path><rect x="152.8" y="250.76" width="32.25" height="24.11" style="fill:#263238"></rect><rect x="152.8" y="250.76" width="32.25" height="24.11" style="fill:#fff;opacity:0.8"></rect><rect x="150.47" y="253.18" width="36.91" height="27.6" style="fill:#263238"></rect><rect x="150.47" y="253.18" width="36.91" height="27.6" style="fill:#fff;opacity:0.9"></rect><path d="M194,253.87H171.89a3.26,3.26,0,0,0-2.45.94c-.59.7-.88,1-1.45,1.74a2.67,2.67,0,0,1-2.05.81h-21.6c-1.5,0-2.5.82-2.24,1.82,2.11,8.18,3.17,12.27,5.28,20.46a2.8,2.8,0,0,0,2.65,1.88h37.48a2.8,2.8,0,0,0,2.65-1.88l6.18-24C196.6,254.68,195.56,253.87,194,253.87Z" style="fill:#214CA2"></path><g style="opacity:0.6000000000000001"><path d="M194,253.87H171.89a3.26,3.26,0,0,0-2.45.94c-.59.7-.88,1-1.45,1.74a2.67,2.67,0,0,1-2.05.81h-21.6c-1.5,0-2.5.82-2.24,1.82,2.11,8.18,3.17,12.27,5.28,20.46a2.8,2.8,0,0,0,2.65,1.88h37.48a2.8,2.8,0,0,0,2.65-1.88l6.18-24C196.6,254.68,195.56,253.87,194,253.87Z" style="fill:#fff"></path></g><path d="M149,294.51a2.52,2.52,0,0,1,0-5h40.33a2.52,2.52,0,1,1,0,5Z" style="fill:#263238"></path><path d="M149,294.51a2.52,2.52,0,0,1,0-5h40.33a2.52,2.52,0,1,1,0,5Z" style="fill:#fff;opacity:0.6000000000000001"></path><path d="M245,248.54l-1.11-2a2.09,2.09,0,0,0-1.84-1.09H225.45a2.1,2.1,0,0,0-2.1,2.1v31.8a2.17,2.17,0,0,0,2.18,2.18h37.81a2.17,2.17,0,0,0,2.18-2.18V251.59a2.11,2.11,0,0,0-2.1-2.11H246.63A1.82,1.82,0,0,1,245,248.54Z" style="fill:#214CA2"></path><path d="M245,248.54l-1.11-2a2.09,2.09,0,0,0-1.84-1.09H225.45a2.1,2.1,0,0,0-2.1,2.1v31.8a2.17,2.17,0,0,0,2.18,2.18h37.81a2.17,2.17,0,0,0,2.18-2.18V251.59a2.11,2.11,0,0,0-2.1-2.11H246.63A1.82,1.82,0,0,1,245,248.54Z" style="fill:#fff;opacity:0.30000000000000004"></path><rect x="228.02" y="250.76" width="32.25" height="24.11" style="fill:#263238"></rect><rect x="228.02" y="250.76" width="32.25" height="24.11" style="fill:#fff;opacity:0.8"></rect><rect x="225.69" y="253.18" width="36.91" height="27.6" style="fill:#263238"></rect><rect x="225.69" y="253.18" width="36.91" height="27.6" style="fill:#fff;opacity:0.9"></rect><path d="M269.23,253.87H247.11a3.28,3.28,0,0,0-2.46.94c-.59.7-.88,1-1.45,1.74a2.66,2.66,0,0,1-2,.81H219.55c-1.49,0-2.49.82-2.24,1.82,2.12,8.18,3.17,12.27,5.28,20.46a2.81,2.81,0,0,0,2.65,1.88h37.49a2.81,2.81,0,0,0,2.65-1.88l6.18-24C271.81,254.68,270.77,253.87,269.23,253.87Z" style="fill:#214CA2"></path><g style="opacity:0.6000000000000001"><path d="M269.23,253.87H247.11a3.28,3.28,0,0,0-2.46.94c-.59.7-.88,1-1.45,1.74a2.66,2.66,0,0,1-2,.81H219.55c-1.49,0-2.49.82-2.24,1.82,2.12,8.18,3.17,12.27,5.28,20.46a2.81,2.81,0,0,0,2.65,1.88h37.49a2.81,2.81,0,0,0,2.65-1.88l6.18-24C271.81,254.68,270.77,253.87,269.23,253.87Z" style="fill:#fff"></path></g><path d="M224.27,294.51a2.52,2.52,0,0,1,0-5H264.6a2.52,2.52,0,0,1,0,5Z" style="fill:#263238"></path><path d="M224.27,294.51a2.52,2.52,0,0,1,0-5H264.6a2.52,2.52,0,0,1,0,5Z" style="fill:#fff;opacity:0.6000000000000001"></path><path d="M318.56,248.54l-1.11-2a2.1,2.1,0,0,0-1.85-1.09H299a2.1,2.1,0,0,0-2.1,2.1v31.8a2.17,2.17,0,0,0,2.18,2.18h37.81a2.18,2.18,0,0,0,2.18-2.18V251.59a2.11,2.11,0,0,0-2.1-2.11H320.15A1.82,1.82,0,0,1,318.56,248.54Z" style="fill:#214CA2"></path><path d="M318.56,248.54l-1.11-2a2.1,2.1,0,0,0-1.85-1.09H299a2.1,2.1,0,0,0-2.1,2.1v31.8a2.17,2.17,0,0,0,2.18,2.18h37.81a2.18,2.18,0,0,0,2.18-2.18V251.59a2.11,2.11,0,0,0-2.1-2.11H320.15A1.82,1.82,0,0,1,318.56,248.54Z" style="fill:#fff;opacity:0.30000000000000004"></path><rect x="301.54" y="250.76" width="32.25" height="24.11" style="fill:#263238"></rect><rect x="301.54" y="250.76" width="32.25" height="24.11" style="fill:#fff;opacity:0.8"></rect><rect x="299.21" y="253.18" width="36.91" height="27.6" style="fill:#263238"></rect><rect x="299.21" y="253.18" width="36.91" height="27.6" style="fill:#fff;opacity:0.9"></rect><path d="M342.75,253.87H320.63a3.28,3.28,0,0,0-2.46.94c-.59.7-.88,1-1.45,1.74a2.66,2.66,0,0,1-2,.81H293.07c-1.49,0-2.49.82-2.24,1.82,2.12,8.18,3.17,12.27,5.28,20.46a2.81,2.81,0,0,0,2.65,1.88h37.48a2.81,2.81,0,0,0,2.66-1.88q3.08-12,6.17-24C345.33,254.68,344.29,253.87,342.75,253.87Z" style="fill:#214CA2"></path><g style="opacity:0.6000000000000001"><path d="M342.75,253.87H320.63a3.28,3.28,0,0,0-2.46.94c-.59.7-.88,1-1.45,1.74a2.66,2.66,0,0,1-2,.81H293.07c-1.49,0-2.49.82-2.24,1.82,2.12,8.18,3.17,12.27,5.28,20.46a2.81,2.81,0,0,0,2.65,1.88h37.48a2.81,2.81,0,0,0,2.66-1.88q3.08-12,6.17-24C345.33,254.68,344.29,253.87,342.75,253.87Z" style="fill:#fff"></path></g><path d="M297.79,294.51a2.52,2.52,0,0,1,0-5h40.33a2.52,2.52,0,0,1,0,5Z" style="fill:#263238"></path><path d="M297.79,294.51a2.52,2.52,0,0,1,0-5h40.33a2.52,2.52,0,0,1,0,5Z" style="fill:#fff;opacity:0.6000000000000001"></path><path d="M297.27,213.22a2.52,2.52,0,1,1,0-5H337.6a2.52,2.52,0,1,1,0,5Z" style="fill:#263238"></path><path d="M297.27,213.22a2.52,2.52,0,1,1,0-5H337.6a2.52,2.52,0,1,1,0,5Z" style="fill:#fff;opacity:0.6000000000000001"></path><path d="M295.89,202.13l8.6,25.16a3.11,3.11,0,0,0,2.79,1.9H324.2a1.47,1.47,0,0,0,1.54-1l.5-1.83a1.27,1.27,0,0,1,1.33-.86h17.07a1.39,1.39,0,0,0,1.49-1.9l-7.34-21.49-.11-4.2V165.58a2.13,2.13,0,0,0-2.13-2.13H319.63a2.12,2.12,0,0,0-1.87,1.1l-1.13,2.06a1.85,1.85,0,0,1-1.62.95H297.93a2.14,2.14,0,0,0-2.14,2.14v28.23Z" style="fill:#214CA2"></path><path d="M295.89,202.13l8.6,25.16a3.11,3.11,0,0,0,2.79,1.9H324.2a1.47,1.47,0,0,0,1.54-1l.5-1.83a1.27,1.27,0,0,1,1.33-.86h17.07a1.39,1.39,0,0,0,1.49-1.9l-7.34-21.49-.11-4.2V165.58a2.13,2.13,0,0,0-2.13-2.13H319.63a2.12,2.12,0,0,0-1.87,1.1l-1.13,2.06a1.85,1.85,0,0,1-1.62.95H297.93a2.14,2.14,0,0,0-2.14,2.14v28.23Z" style="fill:#fff;opacity:0.6000000000000001"></path><path d="M295.89,202.13l8.6,25.16a3.11,3.11,0,0,0,2.79,1.9H324.2a1.47,1.47,0,0,0,1.54-1l.5-1.83a1.27,1.27,0,0,1,1.33-.86h17.07a1.39,1.39,0,0,0,1.49-1.9l-7.34-21.49Z" style="fill:#214CA2"></path><path d="M295.89,202.13l8.6,25.16a3.11,3.11,0,0,0,2.79,1.9H324.2a1.47,1.47,0,0,0,1.54-1l.5-1.83a1.27,1.27,0,0,1,1.33-.86h17.07a1.39,1.39,0,0,0,1.49-1.9l-7.34-21.49Z" style="fill:#fff;opacity:0.30000000000000004"></path><polygon points="300.03 202.13 334.84 202.13 341.19 220.02 306.38 220.02 300.03 202.13" style="opacity:0.1"></polygon><rect x="300.03" y="173.91" width="34.81" height="28.21" transform="translate(634.87 376.04) rotate(180)" style="fill:#263238"></rect><rect x="300.03" y="173.91" width="34.81" height="28.21" transform="translate(634.87 376.04) rotate(180)" style="fill:#fff;opacity:0.8"></rect><polygon points="300.03 202.13 334.84 202.13 341.9 181.8 307.08 181.8 300.03 202.13" style="fill:#263238"></polygon><polygon points="300.03 202.13 334.84 202.13 341.9 181.8 307.08 181.8 300.03 202.13" style="fill:#fff;opacity:0.9"></polygon><polygon points="300.03 202.13 334.84 202.13 341.9 217.2 307.08 217.2 300.03 202.13" style="fill:#263238"></polygon><polygon points="300.03 202.13 334.84 202.13 341.9 217.2 307.08 217.2 300.03 202.13" style="fill:#fff;opacity:0.9"></polygon><polygon points="300.03 202.13 334.84 202.13 346.23 194.38 311.41 194.38 300.03 202.13" style="fill:#263238"></polygon><polygon points="300.03 202.13 334.84 202.13 346.23 194.38 311.41 194.38 300.03 202.13" style="fill:#fff;opacity:0.8"></polygon></g></svg>