<svg xmlns="http://www.w3.org/2000/svg" viewBox="0 0 500 500"><g id="freepik--Window--inject-318"><rect x="118.78" y="113.46" width="257.62" height="201.57" rx="11.89" style="fill:#214CA2"></rect><rect x="118.78" y="113.46" width="257.62" height="201.57" rx="11.89" style="fill:#fff;opacity:0.4"></rect><rect x="122.78" y="127.11" width="249.62" height="183.92" rx="7.89" style="fill:#fff;opacity:0.8"></rect><rect x="132.46" y="116.67" width="6.58" height="6.58" rx="1.89" style="fill:#fff;opacity:0.30000000000000004"></rect><rect x="143.13" y="116.67" width="6.58" height="6.58" rx="1.89" style="fill:#fff;opacity:0.5"></rect><rect x="153.81" y="116.67" width="6.58" height="6.58" rx="1.89" style="fill:#fff;opacity:0.7000000000000001"></rect><path d="M235.54,123.14V119l-2.07,3.46h-.52l-2.07-3.4v4.12h-1.12v-6.3h1l2.5,4.17,2.46-4.17h1v6.3Z" style="fill:#fff"></path><path d="M242.74,118.33l-2.25,5.19a2.44,2.44,0,0,1-.76,1.11,1.87,1.87,0,0,1-1.09.32,2.16,2.16,0,0,1-.71-.12,1.69,1.69,0,0,1-.58-.32l.45-.83a1.23,1.23,0,0,0,.38.24,1.2,1.2,0,0,0,.45.09.77.77,0,0,0,.49-.15,1.47,1.47,0,0,0,.35-.52l.08-.18-2.09-4.83h1.17l1.51,3.56,1.52-3.56Z" style="fill:#fff"></path><path d="M247.2,117.82v1.92h3.05v1H247.2v2.41H246v-6.3h4.6v1Z" style="fill:#fff"></path><path d="M251.62,117.35a.63.63,0,0,1-.2-.49.62.62,0,0,1,.2-.48.73.73,0,0,1,.52-.19.76.76,0,0,1,.51.18.61.61,0,0,1,.21.47.67.67,0,0,1-.21.5.69.69,0,0,1-.51.2A.77.77,0,0,1,251.62,117.35Zm-.05,1h1.12v4.81h-1.12Z" style="fill:#fff"></path><path d="M254.17,116.46h1.12v6.68h-1.12Z" style="fill:#fff"></path><path d="M261.27,121.09H257.5a1.33,1.33,0,0,0,.52.85,1.88,1.88,0,0,0,2.34-.22l.61.7a2,2,0,0,1-.82.58,3.06,3.06,0,0,1-1.12.2,3,3,0,0,1-1.4-.31,2.32,2.32,0,0,1-.93-.88,2.49,2.49,0,0,1-.33-1.28,2.54,2.54,0,0,1,.32-1.26,2.28,2.28,0,0,1,.89-.88,2.58,2.58,0,0,1,1.28-.31,2.44,2.44,0,0,1,1.25.31,2.21,2.21,0,0,1,.87.87,2.63,2.63,0,0,1,.31,1.3C261.29,120.84,261.28,121,261.27,121.09ZM258,119.5a1.35,1.35,0,0,0-.46.85h2.73a1.3,1.3,0,0,0-1.36-1.17A1.3,1.3,0,0,0,258,119.5Z" style="fill:#fff"></path><path d="M262.71,123.05a2.73,2.73,0,0,1-.89-.39l.43-.85a3.3,3.3,0,0,0,1.68.47c.67,0,1-.17,1-.53a.35.35,0,0,0-.25-.35,4.14,4.14,0,0,0-.83-.19,6.45,6.45,0,0,1-1-.21,1.36,1.36,0,0,1-.65-.41,1.14,1.14,0,0,1-.28-.81,1.25,1.25,0,0,1,.58-1.09,2.53,2.53,0,0,1,1.54-.41,4.17,4.17,0,0,1,1,.11,2.81,2.81,0,0,1,.81.3l-.43.86a2.68,2.68,0,0,0-1.38-.36,1.64,1.64,0,0,0-.75.14.45.45,0,0,0-.26.4.39.39,0,0,0,.28.38,4.93,4.93,0,0,0,.85.21,6.12,6.12,0,0,1,.94.21,1.56,1.56,0,0,1,.64.39,1.15,1.15,0,0,1,.26.8,1.26,1.26,0,0,1-.58,1.08,2.77,2.77,0,0,1-1.6.4A4.35,4.35,0,0,1,262.71,123.05Z" style="fill:#fff"></path></g></svg>