<svg xmlns="http://www.w3.org/2000/svg" viewBox="0 0 500 500"><g id="freepik--background-complete--inject-318"><rect x="416.78" y="398.49" width="33.12" height="0.25" style="fill:#ebebeb"></rect><rect x="322.53" y="401.21" width="8.69" height="0.25" style="fill:#ebebeb"></rect><rect x="396.59" y="389.21" width="19.19" height="0.25" style="fill:#ebebeb"></rect><rect x="52.46" y="390.89" width="43.19" height="0.25" style="fill:#ebebeb"></rect><rect x="104.56" y="390.89" width="6.33" height="0.25" style="fill:#ebebeb"></rect><rect x="131.47" y="395.11" width="93.68" height="0.25" style="fill:#ebebeb"></rect><path d="M237,337.8H43.92a5.71,5.71,0,0,1-5.71-5.71V60.66A5.71,5.71,0,0,1,43.92,55H237a5.71,5.71,0,0,1,5.71,5.71V332.09A5.71,5.71,0,0,1,237,337.8ZM43.92,55.2a5.47,5.47,0,0,0-5.46,5.46V332.09a5.47,5.47,0,0,0,5.46,5.46H237a5.47,5.47,0,0,0,5.46-5.46V60.66A5.47,5.47,0,0,0,237,55.2Z" style="fill:#ebebeb"></path><path d="M453.31,337.8H260.21a5.72,5.72,0,0,1-5.71-5.71V60.66A5.72,5.72,0,0,1,260.21,55h193.1A5.71,5.71,0,0,1,459,60.66V332.09A5.71,5.71,0,0,1,453.31,337.8ZM260.21,55.2a5.47,5.47,0,0,0-5.46,5.46V332.09a5.47,5.47,0,0,0,5.46,5.46h193.1a5.47,5.47,0,0,0,5.46-5.46V60.66a5.47,5.47,0,0,0-5.46-5.46Z" style="fill:#ebebeb"></path><rect y="382.4" width="500" height="0.25" style="fill:#ebebeb"></rect><path d="M150.8,214.92,91.5,229a1.9,1.9,0,0,1-2.29-1.42L70.38,148.3a1.91,1.91,0,0,1,1.41-2.3l36.53-8.67,30.52,19,13.38,56.32A1.9,1.9,0,0,1,150.8,214.92Z" style="fill:#f0f0f0"></path><polygon points="138.84 156.31 108.32 137.33 106.38 137.79 113.57 168.06 140.13 161.75 138.84 156.31" style="fill:#e6e6e6"></polygon><polygon points="138.79 156.1 114.17 161.95 108.32 137.33 138.79 156.1" style="fill:none"></polygon><polygon points="138.79 156.1 114.17 161.95 108.32 137.33 138.79 156.1" style="fill:#fafafa"></polygon><rect x="89.65" y="170.37" width="45.08" height="28.57" transform="translate(-39.63 30.92) rotate(-13.36)" style="fill:#e6e6e6"></rect><polygon points="103.59 191.29 96.31 203.11 115.41 198.57 103.59 191.29" style="fill:#fafafa"></polygon><polygon points="111.11 199.59 137.42 193.34 136.82 190.81 122.11 181.75 111.11 199.59" style="fill:#fafafa"></polygon><path d="M111.54,180.56a4.82,4.82,0,1,1-5.79-3.57A4.81,4.81,0,0,1,111.54,180.56Z" style="fill:#fafafa"></path><path d="M406.11,148.66l-43.26-20.15a1.49,1.49,0,0,1-.72-2l26.94-57.85a1.5,1.5,0,0,1,2-.72L417.7,80.37l9.53,26.48-19.14,41.09A1.49,1.49,0,0,1,406.11,148.66Z" style="fill:#ebebeb"></path><polygon points="427.23 106.85 417.7 80.37 416.29 79.72 406 101.8 425.38 110.82 427.23 106.85" style="fill:#e0e0e0"></polygon><polygon points="427.3 106.7 409.33 98.34 417.7 80.37 427.3 106.7" style="fill:none"></polygon><polygon points="427.3 106.7 409.33 98.34 417.7 80.37 427.3 106.7" style="fill:#f5f5f5"></polygon><path d="M408.07,132.26l-32-14.91c-2.16-1-4.05,2.2-1.88,3.21l32,14.9c2.16,1,4.05-2.19,1.88-3.2Z" style="fill:#fafafa"></path><path d="M383.65,100.28l32,14.91c2.15,1,4-2.2,1.87-3.21l-32-14.9c-2.15-1-4,2.19-1.87,3.2Z" style="fill:#fafafa"></path><path d="M378.7,110.69l32,14.91c2.15,1,4-2.2,1.87-3.21l-32-14.9c-2.15-1-4,2.19-1.87,3.2Z" style="fill:#fafafa"></path><path d="M303,329.36l-1-3.27a3.12,3.12,0,0,0-2.34-2.14l-24.12-5.15a3.11,3.11,0,0,0-3.69,2.4L262,367.31a3.25,3.25,0,0,0,2.49,3.84l54.82,11.69a3.24,3.24,0,0,0,3.84-2.49l8.58-40.24a3.11,3.11,0,0,0-2.4-3.7L305,331.22A2.72,2.72,0,0,1,303,329.36Z" style="fill:#e0e0e0"></path><path d="M329.35,336.41l-24.12-5.14a3.11,3.11,0,0,0-3,1L300,334.86a2.71,2.71,0,0,1-2.6.87l-24.34-5.19a3.12,3.12,0,0,0-3.7,2.39L262,367.31a3.25,3.25,0,0,0,2.49,3.84l54.82,11.69a3.24,3.24,0,0,0,3.84-2.49l8.58-40.24A3.11,3.11,0,0,0,329.35,336.41Z" style="fill:#f0f0f0"></path></g><g id="freepik--Shadow--inject-318"><ellipse id="freepik--path--inject-318" cx="245.18" cy="412.39" rx="193.89" ry="11.32" style="fill:#f5f5f5"></ellipse></g></svg>