<?xml version="1.0" encoding="UTF-8"?><svg id="_이어_1" xmlns="http://www.w3.org/2000/svg" viewBox="0 0 765.63 205.39"><defs><style>.cls-1{fill:#fff;}</style></defs><polygon class="cls-1" points="550.47 161.93 550.47 161.93 550.47 161.93 550.47 161.93"/><path class="cls-1" d="M548.95,163.77c.31-.34,.6-.69,.89-1.04-.29,.35-.58,.71-.89,1.04Z"/><path class="cls-1" d="M167.34,116.68h-43.29c-5.42,0-10.04-3.36-11.93-8.1-.59-1.47-.92-3.07-.92-4.74,0-7.09,5.75-12.84,12.84-12.84h30.54L112.96,7.12c-.04-.09-.1-.16-.14-.25-.11-.22-.23-.43-.36-.64-.09-.16-.19-.31-.29-.47-.13-.2-.26-.39-.4-.57-.12-.16-.23-.31-.35-.46-.14-.17-.28-.34-.43-.5-.14-.15-.28-.3-.42-.45-.15-.15-.3-.29-.45-.43-.16-.15-.32-.29-.49-.43-.15-.12-.31-.24-.46-.36-.18-.14-.37-.27-.56-.4-.16-.1-.32-.2-.48-.3-.2-.12-.41-.24-.63-.36-.09-.05-.17-.1-.25-.14-.08-.04-.17-.07-.25-.11-.21-.1-.41-.19-.62-.28-.19-.08-.39-.16-.59-.23-.18-.07-.37-.12-.56-.18-.22-.07-.44-.13-.67-.19-.17-.04-.34-.08-.51-.11-.24-.05-.48-.1-.72-.13-.17-.03-.35-.04-.52-.06-.23-.02-.47-.05-.7-.06-.19,0-.39,0-.58-.01-.21,0-.43,0-.64,0-.22,0-.43,.03-.65,.05-.19,.02-.38,.04-.58,.06-.22,.03-.45,.07-.67,.12-.19,.04-.37,.07-.56,.12-.21,.05-.42,.11-.63,.18-.2,.06-.4,.12-.59,.19-.19,.07-.37,.14-.56,.21-.22,.09-.43,.18-.65,.28-.08,.04-.16,.07-.24,.11-.09,.04-.16,.09-.25,.14-.22,.12-.43,.24-.64,.36-.16,.09-.31,.19-.46,.29-.2,.13-.39,.27-.58,.41-.15,.11-.31,.23-.46,.35-.17,.14-.34,.29-.5,.43-.15,.14-.3,.27-.45,.42-.15,.15-.29,.3-.43,.45-.15,.16-.29,.32-.43,.49-.12,.15-.24,.31-.36,.46-.14,.19-.27,.37-.4,.57-.1,.15-.2,.31-.3,.47-.13,.21-.25,.42-.36,.64-.04,.08-.1,.16-.14,.25L1.37,183c-.05,.09-.08,.19-.12,.28-.12,.25-.23,.5-.33,.76-.06,.16-.12,.32-.17,.48-.08,.23-.16,.46-.23,.7-.06,.2-.11,.4-.15,.6-.05,.2-.09,.4-.13,.6-.04,.24-.08,.48-.11,.72-.02,.17-.04,.34-.06,.51-.02,.27-.03,.55-.04,.82,0,.1-.02,.21-.02,.31,0,.05,0,.1,0,.15,0,.27,.02,.53,.04,.8,.01,.17,.02,.34,.04,.51,.02,.22,.06,.43,.1,.65,.04,.21,.07,.42,.11,.63,.04,.16,.08,.32,.12,.49,.06,.25,.13,.49,.2,.74,.04,.13,.1,.26,.14,.39,.09,.26,.19,.52,.3,.77,.06,.14,.13,.27,.2,.41,.11,.23,.22,.46,.34,.69,.1,.18,.21,.34,.31,.51,.11,.17,.21,.35,.32,.52,.14,.21,.3,.41,.45,.61,.09,.12,.18,.25,.28,.37,.17,.21,.36,.4,.55,.6,.1,.1,.19,.21,.29,.31,.18,.18,.37,.34,.56,.51,.13,.11,.25,.23,.39,.34,.16,.13,.33,.25,.5,.38,.18,.13,.36,.26,.54,.39,.14,.09,.29,.17,.43,.26,.23,.14,.46,.28,.7,.4,.04,.02,.08,.05,.13,.07,.07,.04,.15,.06,.22,.1,.32,.16,.65,.3,.98,.42,.14,.05,.27,.1,.41,.15,.31,.11,.62,.2,.93,.28,.15,.04,.31,.08,.46,.12,.3,.07,.6,.11,.9,.16,.16,.02,.33,.06,.49,.08,.33,.04,.67,.05,1,.06,.12,0,.24,.02,.37,.02,.02,0,.04,0,.06,0H186.21c.45,0,.89-.02,1.32-.07,.42,.04,.84,.07,1.26,.07,1.92,0,3.87-.43,5.7-1.34,6.35-3.15,8.95-10.86,5.79-17.21l-32.95-66.38Z"/><path class="cls-1" d="M291.2,1.46c-51.81,0-94.62,39.23-100.3,89.54h47.44c7.09,0,12.84,5.75,12.84,12.84s-5.75,12.84-12.84,12.84h-47.08c6.96,48.93,49.12,86.68,99.94,86.68,55.66,0,100.95-45.29,100.95-100.95S346.86,1.46,291.2,1.46Z"/><path class="cls-1" d="M604.82,14.27c-.02-.21-.05-.41-.08-.62-.03-.21-.06-.42-.09-.62-.04-.21-.09-.43-.14-.64-.05-.19-.09-.39-.15-.58-.06-.21-.13-.42-.2-.62-.07-.19-.13-.38-.21-.57-.08-.2-.17-.39-.26-.59-.09-.19-.17-.37-.27-.55-.1-.19-.21-.37-.31-.56-.1-.18-.21-.35-.32-.52-.12-.19-.25-.37-.39-.55-.11-.16-.23-.31-.35-.47-.15-.19-.32-.37-.48-.56-.09-.1-.17-.21-.26-.31-.03-.03-.06-.06-.1-.09-.17-.18-.36-.34-.54-.51-.13-.12-.26-.25-.4-.37-.17-.14-.34-.27-.51-.4-.17-.12-.33-.26-.5-.37-.16-.11-.32-.2-.48-.3-.2-.12-.39-.25-.59-.36-.17-.09-.34-.17-.51-.25-.2-.1-.4-.2-.61-.29-.2-.08-.4-.15-.6-.23-.19-.07-.37-.15-.56-.21-.21-.07-.43-.12-.64-.17-.19-.05-.38-.11-.57-.15-.2-.04-.4-.07-.61-.1-.21-.03-.43-.07-.65-.1-.18-.02-.37-.03-.55-.04-.24-.02-.48-.03-.73-.04-.05,0-.09,0-.14,0-.14,0-.28,.02-.42,.02-.24,0-.48,.02-.71,.04-.2,.02-.4,.05-.6,.07-.21,.03-.43,.06-.64,.1-.21,.04-.42,.09-.63,.14-.2,.05-.4,.1-.59,.15-.21,.06-.41,.13-.62,.2-.19,.07-.38,.13-.57,.21-.2,.08-.39,.17-.59,.26-.19,.09-.37,.17-.56,.27-.19,.1-.37,.21-.56,.31-.18,.1-.35,.21-.52,.32-.19,.12-.37,.25-.55,.39-.16,.11-.31,.23-.47,.35-.19,.15-.37,.32-.56,.48-.1,.09-.21,.17-.31,.26l-80.75,77.29L426.52,6.39s-.02-.02-.03-.03c-.26-.26-.53-.5-.81-.74-.05-.04-.09-.09-.14-.13-.32-.26-.65-.51-1-.75-.2-.13-.41-.25-.61-.37-.15-.09-.3-.19-.46-.28-.21-.11-.42-.21-.64-.31-.17-.08-.33-.16-.5-.24-.2-.08-.41-.15-.62-.23-.19-.07-.37-.14-.57-.2-.22-.07-.44-.11-.66-.17-.19-.05-.37-.1-.56-.14-.41-.08-.83-.15-1.24-.19-.06,0-.11,0-.17,0-.37-.03-.74-.05-1.11-.06-.01,0-.03,0-.04,0-.12,0-.24,.01-.36,.02-.29,0-.58,.02-.86,.04-.19,.02-.37,.05-.56,.08-.23,.03-.46,.06-.68,.1-.21,.04-.41,.09-.61,.14-.2,.05-.41,.1-.61,.16-.2,.06-.4,.13-.6,.2-.2,.07-.39,.14-.59,.21-.19,.08-.37,.17-.56,.26-.19,.09-.39,.18-.58,.28-.18,.1-.35,.2-.53,.31-.18,.11-.37,.21-.55,.33-.19,.12-.36,.26-.54,.39-.16,.12-.32,.23-.47,.35-.21,.17-.41,.36-.61,.54-.1,.09-.21,.18-.31,.27-.01,.01-.02,.02-.03,.03-.24,.24-.46,.49-.68,.74-.06,.07-.13,.13-.18,.2-.26,.32-.51,.65-.74,1-.13,.19-.24,.39-.35,.58-.1,.17-.21,.33-.3,.5-.1,.19-.18,.38-.28,.57-.09,.19-.19,.37-.27,.57-.07,.17-.13,.35-.19,.52-.08,.22-.17,.44-.24,.66-.05,.16-.08,.32-.12,.47-.07,.25-.14,.49-.19,.75-.04,.22-.07,.44-.1,.67-.05,.31-.08,.62-.11,.94-.02,.3-.04,.6-.05,.89,0,.02,0,.03,0,.05V191.34c0,7.09,5.75,12.84,12.84,12.84h74.32v-11.73c0-.06,0-.12,0-.18,.1-7.01,5.8-12.66,12.83-12.66s12.55,5.48,12.82,12.34c0,.17,.03,.33,.03,.5v11.73h74.65c7.09,0,12.84-5.75,12.84-12.84V116.68h-33.55c-.73,0-1.45-.08-2.15-.19-3.35-.56-6.25-2.42-8.18-5.04-.05-.06-.09-.12-.14-.19v-.02l-.03-.02-.02-.02c-1.46-2.09-2.33-4.62-2.33-7.37,0-.34,.02-.68,.05-1.02,.12-1.51,.5-2.94,1.09-4.26,2.02-4.46,6.49-7.56,11.7-7.56h33.55V15.4c0-.15-.02-.29-.02-.44,0-.23-.01-.46-.03-.69Zm-54.98,148.46c-.29,.35-.58,.71-.89,1.04,.31-.34,.6-.69,.89-1.04Zm.63-.8h0Z"/><path class="cls-1" d="M652.19,1.52c-5.42,0-10.86,.37-16.2,1.05-.1,0-.19-.01-.29-.01-7.09,0-12.84,5.75-12.84,12.84V91h34.51c2.21,0,4.29,.56,6.11,1.54,.04,.02,.08,.05,.12,.07,.01,0,.03,.02,.04,.02,.05,.03,.1,.06,.15,.09,3.84,2.22,6.43,6.36,6.43,11.11,0,.86-.09,1.7-.25,2.51-.7,3.55-2.88,6.57-5.86,8.41-1.91,1.18-4.14,1.88-6.54,1.91-.07,0-.13,0-.2,0h-34.51v74.66c0,7.03,5.65,12.73,12.65,12.83,.56,.15,1.14,.27,1.74,.34,4.92,.58,9.95,.88,14.95,.88,62.55,0,113.44-45.73,113.44-101.94S714.74,1.52,652.19,1.52Z"/><path class="cls-1" d="M654.09,91.07v-.08h.01s0,.05-.01,.08Z"/></svg>