<?xml version="1.0" encoding="UTF-8"?><svg id="_레이어_1" xmlns="http://www.w3.org/2000/svg" viewBox="0 0 280.03 34.89"><defs><style>.cls-1{fill:#fff;}</style></defs><g id="_그룹_3"><g id="_선_3"><path class="cls-1" d="M274.67,34.89H5.36c-2.96,0-5.36-2.4-5.36-5.36s2.4-5.36,5.36-5.36H274.67c2.96,0,5.36,2.4,5.36,5.36s-2.4,5.36-5.36,5.36Z"/></g><g id="_패스_1"><path class="cls-1" d="M274.66,34.89c-1.06,0-2.14-.32-3.07-.97l-34.47-24.17c-2.42-1.7-3.01-5.04-1.31-7.46,1.7-2.42,5.04-3.01,7.46-1.31l34.47,24.17c2.42,1.7,3.01,5.04,1.31,7.46-1.04,1.49-2.7,2.28-4.39,2.28Z"/></g></g></svg>