<svg xmlns="http://www.w3.org/2000/svg" viewBox="0 0 500 500"><g id="freepik--background-complete--inject-177"><rect y="382.4" width="500" height="0.25" style="fill:#ebebeb"></rect><rect x="416.78" y="398.49" width="33.12" height="0.25" style="fill:#ebebeb"></rect><rect x="322.53" y="401.21" width="8.69" height="0.25" style="fill:#ebebeb"></rect><rect x="396.59" y="389.21" width="19.19" height="0.25" style="fill:#ebebeb"></rect><rect x="52.46" y="390.89" width="43.19" height="0.25" style="fill:#ebebeb"></rect><rect x="104.56" y="390.89" width="6.33" height="0.25" style="fill:#ebebeb"></rect><rect x="131.47" y="395.11" width="93.68" height="0.25" style="fill:#ebebeb"></rect><path d="M237,337.8H43.91a5.71,5.71,0,0,1-5.7-5.71V60.66A5.71,5.71,0,0,1,43.91,55H237a5.71,5.71,0,0,1,5.71,5.71V332.09A5.71,5.71,0,0,1,237,337.8ZM43.91,55.2a5.46,5.46,0,0,0-5.45,5.46V332.09a5.46,5.46,0,0,0,5.45,5.46H237a5.47,5.47,0,0,0,5.46-5.46V60.66A5.47,5.47,0,0,0,237,55.2Z" style="fill:#ebebeb"></path><path d="M453.31,337.8H260.21a5.72,5.72,0,0,1-5.71-5.71V60.66A5.72,5.72,0,0,1,260.21,55h193.1A5.71,5.71,0,0,1,459,60.66V332.09A5.71,5.71,0,0,1,453.31,337.8ZM260.21,55.2a5.47,5.47,0,0,0-5.46,5.46V332.09a5.47,5.47,0,0,0,5.46,5.46h193.1a5.47,5.47,0,0,0,5.46-5.46V60.66a5.47,5.47,0,0,0-5.46-5.46Z" style="fill:#ebebeb"></path><rect x="66.75" y="106.22" width="256.03" height="211.4" style="fill:#f5f5f5"></rect><rect x="70.85" y="110.71" width="251.92" height="202.62" style="fill:#fafafa"></rect><polygon points="72.71 255.68 72.71 184.09 80.15 184.09 80.15 174.64 96.89 166.81 96.89 157.13 99.67 157.13 99.67 184.09 102.47 184.09 102.47 255.68 106.18 255.68 106.18 218.49 114.55 218.49 114.55 198.97 117.34 198.97 117.34 255.68 123.85 255.68 123.85 234.3 128.5 234.3 128.5 228.72 138.72 228.72 138.72 209.2 144.3 209.2 144.3 196.18 150.81 196.18 150.81 176.66 153.6 176.66 153.6 196.18 160.11 196.18 160.11 209.2 165.68 209.2 165.68 228.72 175.91 228.72 175.91 234.3 180.56 234.3 180.56 255.68 186.14 255.68 186.14 228.72 196.36 228.72 196.36 169.22 199.15 169.22 199.15 162.71 221.47 162.71 221.47 169.22 226.12 169.22 226.12 211.99 244.71 211.99 244.71 216.63 251.22 216.63 251.22 219.42 244.71 219.42 244.71 236.16 264.23 236.16 264.23 180.38 267.95 180.38 267.95 169.22 277.25 169.22 277.25 126.45 280.04 126.45 280.04 169.22 286.55 169.22 286.55 180.38 322.77 180.38 322.77 313.32 70.86 313.32 70.86 255.68 72.71 255.68" style="fill:#f0f0f0"></polygon><rect x="300.78" y="183.29" width="2.63" height="2.63" style="fill:#f5f5f5"></rect><rect x="300.78" y="187.71" width="2.63" height="2.63" style="fill:#f5f5f5"></rect><rect x="300.78" y="205.37" width="2.63" height="2.63" style="fill:#f5f5f5"></rect><rect x="300.78" y="209.79" width="2.63" height="2.63" style="fill:#f5f5f5"></rect><rect x="300.78" y="214.2" width="2.63" height="2.63" style="fill:#f5f5f5"></rect><rect x="300.78" y="227.45" width="2.63" height="2.63" style="fill:#f5f5f5"></rect><rect x="300.78" y="231.87" width="2.63" height="2.63" style="fill:#f5f5f5"></rect><rect x="296.6" y="200.95" width="2.63" height="2.63" style="fill:#f5f5f5"></rect><rect x="296.6" y="205.37" width="2.63" height="2.63" style="fill:#f5f5f5"></rect><rect x="296.6" y="209.79" width="2.63" height="2.63" style="fill:#f5f5f5"></rect><rect x="296.6" y="214.2" width="2.63" height="2.63" style="fill:#f5f5f5"></rect><rect x="296.6" y="218.62" width="2.63" height="2.63" style="fill:#f5f5f5"></rect><rect x="296.6" y="227.45" width="2.63" height="2.63" style="fill:#f5f5f5"></rect><rect x="296.6" y="231.87" width="2.63" height="2.63" style="fill:#f5f5f5"></rect><rect x="292.41" y="183.29" width="2.63" height="2.63" style="fill:#f5f5f5"></rect><rect x="292.41" y="187.71" width="2.63" height="2.63" style="fill:#f5f5f5"></rect><rect x="292.41" y="192.12" width="2.63" height="2.63" style="fill:#f5f5f5"></rect><rect x="292.41" y="196.54" width="2.63" height="2.63" style="fill:#f5f5f5"></rect><rect x="292.41" y="200.95" width="2.63" height="2.63" style="fill:#f5f5f5"></rect><rect x="292.41" y="205.37" width="2.63" height="2.63" style="fill:#f5f5f5"></rect><rect x="292.41" y="209.79" width="2.63" height="2.63" style="fill:#f5f5f5"></rect><rect x="292.41" y="214.2" width="2.63" height="2.63" style="fill:#f5f5f5"></rect><rect x="292.41" y="218.62" width="2.63" height="2.63" style="fill:#f5f5f5"></rect><rect x="292.41" y="223.04" width="2.63" height="2.63" style="fill:#f5f5f5"></rect><rect x="292.41" y="231.87" width="2.63" height="2.63" style="fill:#f5f5f5"></rect><rect x="288.23" y="183.29" width="2.63" height="2.63" style="fill:#f5f5f5"></rect><rect x="288.23" y="187.71" width="2.63" height="2.63" style="fill:#f5f5f5"></rect><rect x="288.23" y="192.12" width="2.63" height="2.63" style="fill:#f5f5f5"></rect><rect x="288.23" y="196.54" width="2.63" height="2.63" style="fill:#f5f5f5"></rect><rect x="288.23" y="200.95" width="2.63" height="2.63" style="fill:#f5f5f5"></rect><rect x="288.23" y="205.37" width="2.63" height="2.63" style="fill:#f5f5f5"></rect><rect x="288.23" y="209.79" width="2.63" height="2.63" style="fill:#f5f5f5"></rect><rect x="288.23" y="249.53" width="2.63" height="2.63" style="fill:#f5f5f5"></rect><rect x="284.05" y="183.29" width="2.63" height="2.63" style="fill:#f5f5f5"></rect><rect x="284.05" y="187.71" width="2.63" height="2.63" style="fill:#f5f5f5"></rect><rect x="284.05" y="192.12" width="2.63" height="2.63" style="fill:#f5f5f5"></rect><rect x="284.05" y="196.54" width="2.63" height="2.63" style="fill:#f5f5f5"></rect><rect x="284.05" y="200.95" width="2.63" height="2.63" style="fill:#f5f5f5"></rect><rect x="284.05" y="205.37" width="2.63" height="2.63" style="fill:#f5f5f5"></rect><rect x="284.05" y="209.79" width="2.63" height="2.63" style="fill:#f5f5f5"></rect><rect x="284.05" y="214.2" width="2.63" height="2.63" style="fill:#f5f5f5"></rect><rect x="284.05" y="240.7" width="2.63" height="2.63" style="fill:#f5f5f5"></rect><rect x="284.05" y="245.12" width="2.63" height="2.63" style="fill:#f5f5f5"></rect><rect x="284.05" y="249.53" width="2.63" height="2.63" style="fill:#f5f5f5"></rect><rect x="284.05" y="253.95" width="2.63" height="2.63" style="fill:#f5f5f5"></rect><rect x="284.05" y="271.61" width="2.63" height="2.63" style="fill:#f5f5f5"></rect><rect x="279.86" y="183.29" width="2.63" height="2.63" style="fill:#f5f5f5"></rect><rect x="279.86" y="187.71" width="2.63" height="2.63" style="fill:#f5f5f5"></rect><rect x="279.86" y="192.12" width="2.63" height="2.63" style="fill:#f5f5f5"></rect><rect x="279.86" y="196.54" width="2.63" height="2.63" style="fill:#f5f5f5"></rect><rect x="279.86" y="200.95" width="2.63" height="2.63" style="fill:#f5f5f5"></rect><rect x="279.86" y="205.37" width="2.63" height="2.63" style="fill:#f5f5f5"></rect><rect x="279.86" y="209.79" width="2.63" height="2.63" style="fill:#f5f5f5"></rect><rect x="279.86" y="214.2" width="2.63" height="2.63" style="fill:#f5f5f5"></rect><rect x="279.86" y="218.62" width="2.63" height="2.63" style="fill:#f5f5f5"></rect><rect x="279.86" y="223.04" width="2.63" height="2.63" style="fill:#f5f5f5"></rect><rect x="279.86" y="236.28" width="2.63" height="2.63" style="fill:#f5f5f5"></rect><rect x="279.86" y="240.7" width="2.63" height="2.63" style="fill:#f5f5f5"></rect><rect x="279.86" y="245.12" width="2.63" height="2.63" style="fill:#f5f5f5"></rect><rect x="279.86" y="249.53" width="2.63" height="2.63" style="fill:#f5f5f5"></rect><rect x="279.86" y="253.95" width="2.63" height="2.63" style="fill:#f5f5f5"></rect><rect x="279.86" y="271.61" width="2.63" height="2.63" style="fill:#f5f5f5"></rect><rect x="275.68" y="183.29" width="2.63" height="2.63" style="fill:#f5f5f5"></rect><rect x="275.68" y="187.71" width="2.63" height="2.63" style="fill:#f5f5f5"></rect><rect x="275.68" y="192.12" width="2.63" height="2.63" style="fill:#f5f5f5"></rect><rect x="275.68" y="196.54" width="2.63" height="2.63" style="fill:#f5f5f5"></rect><rect x="275.68" y="200.95" width="2.63" height="2.63" style="fill:#f5f5f5"></rect><rect x="275.68" y="205.37" width="2.63" height="2.63" style="fill:#f5f5f5"></rect><rect x="275.68" y="209.79" width="2.63" height="2.63" style="fill:#f5f5f5"></rect><rect x="275.68" y="214.2" width="2.63" height="2.63" style="fill:#f5f5f5"></rect><rect x="275.68" y="218.62" width="2.63" height="2.63" style="fill:#f5f5f5"></rect><rect x="275.68" y="223.04" width="2.63" height="2.63" style="fill:#f5f5f5"></rect><rect x="275.68" y="227.45" width="2.63" height="2.63" style="fill:#f5f5f5"></rect><rect x="275.68" y="231.87" width="2.63" height="2.63" style="fill:#f5f5f5"></rect><rect x="275.68" y="236.28" width="2.63" height="2.63" style="fill:#f5f5f5"></rect><rect x="275.68" y="240.7" width="2.63" height="2.63" style="fill:#f5f5f5"></rect><rect x="275.68" y="245.12" width="2.63" height="2.63" style="fill:#f5f5f5"></rect><rect x="275.68" y="249.53" width="2.63" height="2.63" style="fill:#f5f5f5"></rect><rect x="275.68" y="253.95" width="2.63" height="2.63" style="fill:#f5f5f5"></rect><rect x="275.68" y="258.36" width="2.63" height="2.63" style="fill:#f5f5f5"></rect><rect x="271.5" y="183.29" width="2.63" height="2.63" style="fill:#f5f5f5"></rect><rect x="271.5" y="187.71" width="2.63" height="2.63" style="fill:#f5f5f5"></rect><rect x="271.5" y="192.12" width="2.63" height="2.63" style="fill:#f5f5f5"></rect><rect x="271.5" y="196.54" width="2.63" height="2.63" style="fill:#f5f5f5"></rect><rect x="271.5" y="200.95" width="2.63" height="2.63" style="fill:#f5f5f5"></rect><rect x="271.5" y="205.37" width="2.63" height="2.63" style="fill:#f5f5f5"></rect><rect x="271.5" y="209.79" width="2.63" height="2.63" style="fill:#f5f5f5"></rect><rect x="271.5" y="214.2" width="2.63" height="2.63" style="fill:#f5f5f5"></rect><rect x="271.5" y="218.62" width="2.63" height="2.63" style="fill:#f5f5f5"></rect><rect x="271.5" y="223.04" width="2.63" height="2.63" style="fill:#f5f5f5"></rect><rect x="271.5" y="236.28" width="2.63" height="2.63" style="fill:#f5f5f5"></rect><rect x="271.5" y="240.7" width="2.63" height="2.63" style="fill:#f5f5f5"></rect><rect x="271.5" y="245.12" width="2.63" height="2.63" style="fill:#f5f5f5"></rect><rect x="271.5" y="249.53" width="2.63" height="2.63" style="fill:#f5f5f5"></rect><rect x="267.31" y="183.29" width="2.63" height="2.63" style="fill:#f5f5f5"></rect><rect x="267.31" y="187.71" width="2.63" height="2.63" style="fill:#f5f5f5"></rect><rect x="267.31" y="192.12" width="2.63" height="2.63" style="fill:#f5f5f5"></rect><rect x="267.31" y="196.54" width="2.63" height="2.63" style="fill:#f5f5f5"></rect><rect x="267.31" y="200.95" width="2.63" height="2.63" style="fill:#f5f5f5"></rect><rect x="267.31" y="205.37" width="2.63" height="2.63" style="fill:#f5f5f5"></rect><rect x="267.31" y="209.79" width="2.63" height="2.63" style="fill:#f5f5f5"></rect><rect x="267.31" y="214.2" width="2.63" height="2.63" style="fill:#f5f5f5"></rect><rect x="267.31" y="218.62" width="2.63" height="2.63" style="fill:#f5f5f5"></rect><rect x="267.31" y="223.04" width="2.63" height="2.63" style="fill:#f5f5f5"></rect><rect x="267.31" y="236.28" width="2.63" height="2.63" style="fill:#f5f5f5"></rect><rect x="267.31" y="240.7" width="2.63" height="2.63" style="fill:#f5f5f5"></rect><rect x="267.31" y="245.12" width="2.63" height="2.63" style="fill:#f5f5f5"></rect><rect x="220.21" y="171.82" width="2.63" height="2.63" style="fill:#f5f5f5"></rect><rect x="220.21" y="176.24" width="2.63" height="2.63" style="fill:#f5f5f5"></rect><rect x="220.21" y="180.66" width="2.63" height="2.63" style="fill:#f5f5f5"></rect><rect x="220.21" y="185.07" width="2.63" height="2.63" style="fill:#f5f5f5"></rect><rect x="220.21" y="189.49" width="2.63" height="2.63" style="fill:#f5f5f5"></rect><rect x="220.21" y="193.9" width="2.63" height="2.63" style="fill:#f5f5f5"></rect><rect x="220.21" y="198.32" width="2.63" height="2.63" style="fill:#f5f5f5"></rect><rect x="220.21" y="202.74" width="2.63" height="2.63" style="fill:#f5f5f5"></rect><rect x="220.21" y="215.98" width="2.63" height="2.63" style="fill:#f5f5f5"></rect><rect x="220.21" y="220.4" width="2.63" height="2.63" style="fill:#f5f5f5"></rect><rect x="216.02" y="171.82" width="2.63" height="2.63" style="fill:#f5f5f5"></rect><rect x="216.02" y="176.24" width="2.63" height="2.63" style="fill:#f5f5f5"></rect><rect x="216.02" y="180.66" width="2.63" height="2.63" style="fill:#f5f5f5"></rect><rect x="216.02" y="185.07" width="2.63" height="2.63" style="fill:#f5f5f5"></rect><rect x="216.02" y="189.49" width="2.63" height="2.63" style="fill:#f5f5f5"></rect><rect x="216.02" y="193.9" width="2.63" height="2.63" style="fill:#f5f5f5"></rect><rect x="216.02" y="198.32" width="2.63" height="2.63" style="fill:#f5f5f5"></rect><rect x="216.02" y="202.74" width="2.63" height="2.63" style="fill:#f5f5f5"></rect><rect x="216.02" y="220.4" width="2.63" height="2.63" style="fill:#f5f5f5"></rect><rect x="211.84" y="171.82" width="2.63" height="2.63" style="fill:#f5f5f5"></rect><rect x="211.84" y="176.24" width="2.63" height="2.63" style="fill:#f5f5f5"></rect><rect x="211.84" y="180.66" width="2.63" height="2.63" style="fill:#f5f5f5"></rect><rect x="211.84" y="185.07" width="2.63" height="2.63" style="fill:#f5f5f5"></rect><rect x="211.84" y="189.49" width="2.63" height="2.63" style="fill:#f5f5f5"></rect><rect x="211.84" y="193.9" width="2.63" height="2.63" style="fill:#f5f5f5"></rect><rect x="211.84" y="198.32" width="2.63" height="2.63" style="fill:#f5f5f5"></rect><rect x="211.84" y="202.74" width="2.63" height="2.63" style="fill:#f5f5f5"></rect><rect x="207.66" y="171.82" width="2.63" height="2.63" style="fill:#f5f5f5"></rect><rect x="207.66" y="176.24" width="2.63" height="2.63" style="fill:#f5f5f5"></rect><rect x="207.66" y="180.66" width="2.63" height="2.63" style="fill:#f5f5f5"></rect><rect x="207.66" y="185.07" width="2.63" height="2.63" style="fill:#f5f5f5"></rect><rect x="207.66" y="189.49" width="2.63" height="2.63" style="fill:#f5f5f5"></rect><rect x="207.66" y="193.9" width="2.63" height="2.63" style="fill:#f5f5f5"></rect><rect x="207.66" y="202.74" width="2.63" height="2.63" style="fill:#f5f5f5"></rect><rect x="207.66" y="207.15" width="2.63" height="2.63" style="fill:#f5f5f5"></rect><rect x="207.66" y="220.4" width="2.63" height="2.63" style="fill:#f5f5f5"></rect><rect x="207.66" y="224.82" width="2.63" height="2.63" style="fill:#f5f5f5"></rect><rect x="207.66" y="229.23" width="2.63" height="2.63" style="fill:#f5f5f5"></rect><rect x="207.66" y="233.65" width="2.63" height="2.63" style="fill:#f5f5f5"></rect><rect x="207.66" y="238.07" width="2.63" height="2.63" style="fill:#f5f5f5"></rect><rect x="207.66" y="242.48" width="2.63" height="2.63" style="fill:#f5f5f5"></rect><rect x="207.66" y="246.9" width="2.63" height="2.63" style="fill:#f5f5f5"></rect><rect x="203.47" y="171.82" width="2.63" height="2.63" style="fill:#f5f5f5"></rect><rect x="203.47" y="176.24" width="2.63" height="2.63" style="fill:#f5f5f5"></rect><rect x="203.47" y="180.66" width="2.63" height="2.63" style="fill:#f5f5f5"></rect><rect x="203.47" y="185.07" width="2.63" height="2.63" style="fill:#f5f5f5"></rect><rect x="203.47" y="189.49" width="2.63" height="2.63" style="fill:#f5f5f5"></rect><rect x="203.47" y="193.9" width="2.63" height="2.63" style="fill:#f5f5f5"></rect><rect x="203.47" y="207.15" width="2.63" height="2.63" style="fill:#f5f5f5"></rect><rect x="203.47" y="211.57" width="2.63" height="2.63" style="fill:#f5f5f5"></rect><rect x="203.47" y="215.98" width="2.63" height="2.63" style="fill:#f5f5f5"></rect><rect x="203.47" y="220.4" width="2.63" height="2.63" style="fill:#f5f5f5"></rect><rect x="203.47" y="224.82" width="2.63" height="2.63" style="fill:#f5f5f5"></rect><rect x="203.47" y="229.23" width="2.63" height="2.63" style="fill:#f5f5f5"></rect><rect x="203.47" y="233.65" width="2.63" height="2.63" style="fill:#f5f5f5"></rect><rect x="203.47" y="238.07" width="2.63" height="2.63" style="fill:#f5f5f5"></rect><rect x="203.47" y="242.48" width="2.63" height="2.63" style="fill:#f5f5f5"></rect><rect x="203.47" y="246.9" width="2.63" height="2.63" style="fill:#f5f5f5"></rect><rect x="203.47" y="251.31" width="2.63" height="2.63" style="fill:#f5f5f5"></rect><rect x="203.47" y="260.15" width="2.63" height="2.63" style="fill:#f5f5f5"></rect><rect x="199.29" y="171.82" width="2.63" height="2.63" style="fill:#f5f5f5"></rect><rect x="199.29" y="176.24" width="2.63" height="2.63" style="fill:#f5f5f5"></rect><rect x="199.29" y="180.66" width="2.63" height="2.63" style="fill:#f5f5f5"></rect><rect x="199.29" y="185.07" width="2.63" height="2.63" style="fill:#f5f5f5"></rect><rect x="199.29" y="189.49" width="2.63" height="2.63" style="fill:#f5f5f5"></rect><rect x="199.29" y="193.9" width="2.63" height="2.63" style="fill:#f5f5f5"></rect><rect x="199.29" y="207.15" width="2.63" height="2.63" style="fill:#f5f5f5"></rect><rect x="199.29" y="211.57" width="2.63" height="2.63" style="fill:#f5f5f5"></rect><rect x="199.29" y="215.98" width="2.63" height="2.63" style="fill:#f5f5f5"></rect><rect x="199.29" y="220.4" width="2.63" height="2.63" style="fill:#f5f5f5"></rect><rect x="199.29" y="233.65" width="2.63" height="2.63" style="fill:#f5f5f5"></rect><rect x="199.29" y="238.07" width="2.63" height="2.63" style="fill:#f5f5f5"></rect><rect x="199.29" y="242.48" width="2.63" height="2.63" style="fill:#f5f5f5"></rect><rect x="199.29" y="246.9" width="2.63" height="2.63" style="fill:#f5f5f5"></rect><rect x="199.29" y="251.31" width="2.63" height="2.63" style="fill:#f5f5f5"></rect><rect x="199.29" y="260.15" width="2.63" height="2.63" style="fill:#f5f5f5"></rect><rect x="199.29" y="264.56" width="2.63" height="2.63" style="fill:#f5f5f5"></rect><rect x="161.33" y="212.89" width="2.63" height="2.63" style="fill:#f5f5f5"></rect><rect x="161.33" y="217.3" width="2.63" height="2.63" style="fill:#f5f5f5"></rect><rect x="161.33" y="221.72" width="2.63" height="2.63" style="fill:#f5f5f5"></rect><rect x="161.33" y="226.13" width="2.63" height="2.63" style="fill:#f5f5f5"></rect><rect x="161.33" y="230.55" width="2.63" height="2.63" style="fill:#f5f5f5"></rect><rect x="161.33" y="234.97" width="2.63" height="2.63" style="fill:#f5f5f5"></rect><rect x="161.33" y="239.38" width="2.63" height="2.63" style="fill:#f5f5f5"></rect><rect x="161.33" y="252.63" width="2.63" height="2.63" style="fill:#f5f5f5"></rect><rect x="161.33" y="257.05" width="2.63" height="2.63" style="fill:#f5f5f5"></rect><rect x="161.33" y="261.46" width="2.63" height="2.63" style="fill:#f5f5f5"></rect><rect x="157.14" y="212.89" width="2.63" height="2.63" style="fill:#f5f5f5"></rect><rect x="157.14" y="217.3" width="2.63" height="2.63" style="fill:#f5f5f5"></rect><rect x="157.14" y="221.72" width="2.63" height="2.63" style="fill:#f5f5f5"></rect><rect x="157.14" y="226.13" width="2.63" height="2.63" style="fill:#f5f5f5"></rect><rect x="157.14" y="230.55" width="2.63" height="2.63" style="fill:#f5f5f5"></rect><rect x="157.14" y="234.97" width="2.63" height="2.63" style="fill:#f5f5f5"></rect><rect x="157.14" y="239.38" width="2.63" height="2.63" style="fill:#f5f5f5"></rect><rect x="152.96" y="212.89" width="2.63" height="2.63" style="fill:#f5f5f5"></rect><rect x="152.96" y="217.3" width="2.63" height="2.63" style="fill:#f5f5f5"></rect><rect x="152.96" y="221.72" width="2.63" height="2.63" style="fill:#f5f5f5"></rect><rect x="152.96" y="226.13" width="2.63" height="2.63" style="fill:#f5f5f5"></rect><rect x="152.96" y="230.55" width="2.63" height="2.63" style="fill:#f5f5f5"></rect><rect x="152.96" y="234.97" width="2.63" height="2.63" style="fill:#f5f5f5"></rect><rect x="152.96" y="239.38" width="2.63" height="2.63" style="fill:#f5f5f5"></rect><rect x="148.77" y="212.89" width="2.63" height="2.63" style="fill:#f5f5f5"></rect><rect x="148.77" y="217.3" width="2.63" height="2.63" style="fill:#f5f5f5"></rect><rect x="148.77" y="221.72" width="2.63" height="2.63" style="fill:#f5f5f5"></rect><rect x="148.77" y="226.13" width="2.63" height="2.63" style="fill:#f5f5f5"></rect><rect x="148.77" y="230.55" width="2.63" height="2.63" style="fill:#f5f5f5"></rect><rect x="148.77" y="234.97" width="2.63" height="2.63" style="fill:#f5f5f5"></rect><rect x="148.77" y="239.38" width="2.63" height="2.63" style="fill:#f5f5f5"></rect><rect x="148.77" y="243.8" width="2.63" height="2.63" style="fill:#f5f5f5"></rect><rect x="148.77" y="248.21" width="2.63" height="2.63" style="fill:#f5f5f5"></rect><rect x="148.77" y="252.63" width="2.63" height="2.63" style="fill:#f5f5f5"></rect><rect x="148.77" y="257.05" width="2.63" height="2.63" style="fill:#f5f5f5"></rect><rect x="144.59" y="212.89" width="2.63" height="2.63" style="fill:#f5f5f5"></rect><rect x="144.59" y="217.3" width="2.63" height="2.63" style="fill:#f5f5f5"></rect><rect x="144.59" y="221.72" width="2.63" height="2.63" style="fill:#f5f5f5"></rect><rect x="144.59" y="226.13" width="2.63" height="2.63" style="fill:#f5f5f5"></rect><rect x="144.59" y="230.55" width="2.63" height="2.63" style="fill:#f5f5f5"></rect><rect x="144.59" y="234.97" width="2.63" height="2.63" style="fill:#f5f5f5"></rect><rect x="144.59" y="239.38" width="2.63" height="2.63" style="fill:#f5f5f5"></rect><rect x="144.59" y="243.8" width="2.63" height="2.63" style="fill:#f5f5f5"></rect><rect x="144.59" y="248.21" width="2.63" height="2.63" style="fill:#f5f5f5"></rect><rect x="144.59" y="252.63" width="2.63" height="2.63" style="fill:#f5f5f5"></rect><rect x="144.59" y="257.05" width="2.63" height="2.63" style="fill:#f5f5f5"></rect><rect x="144.59" y="261.46" width="2.63" height="2.63" style="fill:#f5f5f5"></rect><rect x="144.59" y="274.71" width="2.63" height="2.63" style="fill:#f5f5f5"></rect><rect x="144.59" y="279.13" width="2.63" height="2.63" style="fill:#f5f5f5"></rect><rect x="140.41" y="212.89" width="2.63" height="2.63" style="fill:#f5f5f5"></rect><rect x="140.41" y="217.3" width="2.63" height="2.63" style="fill:#f5f5f5"></rect><rect x="140.41" y="221.72" width="2.63" height="2.63" style="fill:#f5f5f5"></rect><rect x="140.41" y="234.97" width="2.63" height="2.63" style="fill:#f5f5f5"></rect><rect x="140.41" y="239.38" width="2.63" height="2.63" style="fill:#f5f5f5"></rect><rect x="140.41" y="243.8" width="2.63" height="2.63" style="fill:#f5f5f5"></rect><rect x="140.41" y="248.21" width="2.63" height="2.63" style="fill:#f5f5f5"></rect><rect x="140.41" y="252.63" width="2.63" height="2.63" style="fill:#f5f5f5"></rect><rect x="140.41" y="257.05" width="2.63" height="2.63" style="fill:#f5f5f5"></rect><rect x="140.41" y="261.46" width="2.63" height="2.63" style="fill:#f5f5f5"></rect><rect x="140.41" y="274.71" width="2.63" height="2.63" style="fill:#f5f5f5"></rect><rect x="140.41" y="279.13" width="2.63" height="2.63" style="fill:#f5f5f5"></rect><rect x="140.41" y="283.54" width="2.63" height="2.63" style="fill:#f5f5f5"></rect><rect x="96.56" y="186.39" width="2.63" height="2.63" style="fill:#f5f5f5"></rect><rect x="96.56" y="190.81" width="2.63" height="2.63" style="fill:#f5f5f5"></rect><rect x="96.56" y="195.22" width="2.63" height="2.63" style="fill:#f5f5f5"></rect><rect x="96.56" y="199.64" width="2.63" height="2.63" style="fill:#f5f5f5"></rect><rect x="96.56" y="204.05" width="2.63" height="2.63" style="fill:#f5f5f5"></rect><rect x="96.56" y="208.47" width="2.63" height="2.63" style="fill:#f5f5f5"></rect><rect x="96.56" y="212.89" width="2.63" height="2.63" style="fill:#f5f5f5"></rect><rect x="96.56" y="217.3" width="2.63" height="2.63" style="fill:#f5f5f5"></rect><rect x="96.56" y="221.72" width="2.63" height="2.63" style="fill:#f5f5f5"></rect><rect x="96.56" y="226.13" width="2.63" height="2.63" style="fill:#f5f5f5"></rect><rect x="96.56" y="230.55" width="2.63" height="2.63" style="fill:#f5f5f5"></rect><rect x="96.56" y="234.97" width="2.63" height="2.63" style="fill:#f5f5f5"></rect><rect x="96.56" y="239.38" width="2.63" height="2.63" style="fill:#f5f5f5"></rect><rect x="96.56" y="243.8" width="2.63" height="2.63" style="fill:#f5f5f5"></rect><rect x="96.56" y="248.21" width="2.63" height="2.63" style="fill:#f5f5f5"></rect><rect x="96.56" y="252.63" width="2.63" height="2.63" style="fill:#f5f5f5"></rect><rect x="96.56" y="257.05" width="2.63" height="2.63" style="fill:#f5f5f5"></rect><rect x="96.56" y="261.46" width="2.63" height="2.63" style="fill:#f5f5f5"></rect><rect x="96.56" y="265.88" width="2.63" height="2.63" style="fill:#f5f5f5"></rect><rect x="96.56" y="270.3" width="2.63" height="2.63" style="fill:#f5f5f5"></rect><rect x="96.56" y="274.71" width="2.63" height="2.63" style="fill:#f5f5f5"></rect><rect x="96.56" y="279.13" width="2.63" height="2.63" style="fill:#f5f5f5"></rect><rect x="96.56" y="283.54" width="2.63" height="2.63" style="fill:#f5f5f5"></rect><rect x="92.37" y="186.39" width="2.63" height="2.63" style="fill:#f5f5f5"></rect><rect x="92.37" y="190.81" width="2.63" height="2.63" style="fill:#f5f5f5"></rect><rect x="92.37" y="195.22" width="2.63" height="2.63" style="fill:#f5f5f5"></rect><rect x="92.37" y="199.64" width="2.63" height="2.63" style="fill:#f5f5f5"></rect><rect x="92.37" y="204.05" width="2.63" height="2.63" style="fill:#f5f5f5"></rect><rect x="92.37" y="208.47" width="2.63" height="2.63" style="fill:#f5f5f5"></rect><rect x="92.37" y="212.89" width="2.63" height="2.63" style="fill:#f5f5f5"></rect><rect x="92.37" y="217.3" width="2.63" height="2.63" style="fill:#f5f5f5"></rect><rect x="92.37" y="221.72" width="2.63" height="2.63" style="fill:#f5f5f5"></rect><rect x="92.37" y="226.13" width="2.63" height="2.63" style="fill:#f5f5f5"></rect><rect x="92.37" y="230.55" width="2.63" height="2.63" style="fill:#f5f5f5"></rect><rect x="92.37" y="234.97" width="2.63" height="2.63" style="fill:#f5f5f5"></rect><rect x="92.37" y="239.38" width="2.63" height="2.63" style="fill:#f5f5f5"></rect><rect x="92.37" y="243.8" width="2.63" height="2.63" style="fill:#f5f5f5"></rect><rect x="92.37" y="248.21" width="2.63" height="2.63" style="fill:#f5f5f5"></rect><rect x="92.37" y="252.63" width="2.63" height="2.63" style="fill:#f5f5f5"></rect><rect x="92.37" y="257.05" width="2.63" height="2.63" style="fill:#f5f5f5"></rect><rect x="92.37" y="261.46" width="2.63" height="2.63" style="fill:#f5f5f5"></rect><rect x="92.37" y="265.88" width="2.63" height="2.63" style="fill:#f5f5f5"></rect><rect x="88.19" y="186.39" width="2.63" height="2.63" style="fill:#f5f5f5"></rect><rect x="88.19" y="190.81" width="2.63" height="2.63" style="fill:#f5f5f5"></rect><rect x="88.19" y="195.22" width="2.63" height="2.63" style="fill:#f5f5f5"></rect><rect x="88.19" y="199.64" width="2.63" height="2.63" style="fill:#f5f5f5"></rect><rect x="88.19" y="204.05" width="2.63" height="2.63" style="fill:#f5f5f5"></rect><rect x="88.19" y="208.47" width="2.63" height="2.63" style="fill:#f5f5f5"></rect><rect x="88.19" y="212.89" width="2.63" height="2.63" style="fill:#f5f5f5"></rect><rect x="88.19" y="217.3" width="2.63" height="2.63" style="fill:#f5f5f5"></rect><rect x="88.19" y="221.72" width="2.63" height="2.63" style="fill:#f5f5f5"></rect><rect x="88.19" y="226.13" width="2.63" height="2.63" style="fill:#f5f5f5"></rect><rect x="88.19" y="230.55" width="2.63" height="2.63" style="fill:#f5f5f5"></rect><rect x="88.19" y="234.97" width="2.63" height="2.63" style="fill:#f5f5f5"></rect><rect x="88.19" y="239.38" width="2.63" height="2.63" style="fill:#f5f5f5"></rect><rect x="88.19" y="243.8" width="2.63" height="2.63" style="fill:#f5f5f5"></rect><rect x="88.19" y="248.21" width="2.63" height="2.63" style="fill:#f5f5f5"></rect><rect x="88.19" y="252.63" width="2.63" height="2.63" style="fill:#f5f5f5"></rect><rect x="88.19" y="257.05" width="2.63" height="2.63" style="fill:#f5f5f5"></rect><rect x="88.19" y="261.46" width="2.63" height="2.63" style="fill:#f5f5f5"></rect><rect x="88.19" y="265.88" width="2.63" height="2.63" style="fill:#f5f5f5"></rect><rect x="84.01" y="186.39" width="2.63" height="2.63" style="fill:#f5f5f5"></rect><rect x="84.01" y="190.81" width="2.63" height="2.63" style="fill:#f5f5f5"></rect><rect x="84.01" y="195.22" width="2.63" height="2.63" style="fill:#f5f5f5"></rect><rect x="84.01" y="199.64" width="2.63" height="2.63" style="fill:#f5f5f5"></rect><rect x="84.01" y="204.05" width="2.63" height="2.63" style="fill:#f5f5f5"></rect><rect x="84.01" y="208.47" width="2.63" height="2.63" style="fill:#f5f5f5"></rect><rect x="84.01" y="212.89" width="2.63" height="2.63" style="fill:#f5f5f5"></rect><rect x="84.01" y="217.3" width="2.63" height="2.63" style="fill:#f5f5f5"></rect><rect x="84.01" y="221.72" width="2.63" height="2.63" style="fill:#f5f5f5"></rect><rect x="84.01" y="226.13" width="2.63" height="2.63" style="fill:#f5f5f5"></rect><rect x="84.01" y="230.55" width="2.63" height="2.63" style="fill:#f5f5f5"></rect><rect x="84.01" y="234.97" width="2.63" height="2.63" style="fill:#f5f5f5"></rect><rect x="84.01" y="239.38" width="2.63" height="2.63" style="fill:#f5f5f5"></rect><rect x="84.01" y="243.8" width="2.63" height="2.63" style="fill:#f5f5f5"></rect><rect x="84.01" y="248.21" width="2.63" height="2.63" style="fill:#f5f5f5"></rect><rect x="79.82" y="186.39" width="2.63" height="2.63" style="fill:#f5f5f5"></rect><rect x="79.82" y="190.81" width="2.63" height="2.63" style="fill:#f5f5f5"></rect><rect x="79.82" y="195.22" width="2.63" height="2.63" style="fill:#f5f5f5"></rect><rect x="79.82" y="199.64" width="2.63" height="2.63" style="fill:#f5f5f5"></rect><rect x="79.82" y="204.05" width="2.63" height="2.63" style="fill:#f5f5f5"></rect><rect x="79.82" y="208.47" width="2.63" height="2.63" style="fill:#f5f5f5"></rect><rect x="79.82" y="212.89" width="2.63" height="2.63" style="fill:#f5f5f5"></rect><rect x="79.82" y="217.3" width="2.63" height="2.63" style="fill:#f5f5f5"></rect><rect x="79.82" y="221.72" width="2.63" height="2.63" style="fill:#f5f5f5"></rect><rect x="79.82" y="226.13" width="2.63" height="2.63" style="fill:#f5f5f5"></rect><rect x="79.82" y="230.55" width="2.63" height="2.63" style="fill:#f5f5f5"></rect><rect x="79.82" y="234.97" width="2.63" height="2.63" style="fill:#f5f5f5"></rect><rect x="79.82" y="239.38" width="2.63" height="2.63" style="fill:#f5f5f5"></rect><rect x="75.64" y="186.39" width="2.63" height="2.63" style="fill:#f5f5f5"></rect><rect x="75.64" y="190.81" width="2.63" height="2.63" style="fill:#f5f5f5"></rect><rect x="75.64" y="195.22" width="2.63" height="2.63" style="fill:#f5f5f5"></rect><rect x="75.64" y="199.64" width="2.63" height="2.63" style="fill:#f5f5f5"></rect><rect x="75.64" y="204.05" width="2.63" height="2.63" style="fill:#f5f5f5"></rect><rect x="75.64" y="208.47" width="2.63" height="2.63" style="fill:#f5f5f5"></rect><rect x="75.64" y="212.89" width="2.63" height="2.63" style="fill:#f5f5f5"></rect><rect x="75.64" y="217.3" width="2.63" height="2.63" style="fill:#f5f5f5"></rect><rect x="75.64" y="221.72" width="2.63" height="2.63" style="fill:#f5f5f5"></rect><rect x="75.64" y="226.13" width="2.63" height="2.63" style="fill:#f5f5f5"></rect><rect x="75.64" y="230.55" width="2.63" height="2.63" style="fill:#f5f5f5"></rect><rect x="75.64" y="234.97" width="2.63" height="2.63" style="fill:#f5f5f5"></rect><rect x="319.84" y="185.07" width="2.63" height="2.63" style="fill:#f5f5f5"></rect><rect x="319.84" y="189.49" width="2.63" height="2.63" style="fill:#f5f5f5"></rect><rect x="319.84" y="193.9" width="2.63" height="2.63" style="fill:#f5f5f5"></rect><rect x="319.84" y="198.32" width="2.63" height="2.63" style="fill:#f5f5f5"></rect><rect x="319.84" y="202.74" width="2.63" height="2.63" style="fill:#f5f5f5"></rect><rect x="319.84" y="207.15" width="2.63" height="2.63" style="fill:#f5f5f5"></rect><rect x="319.84" y="211.57" width="2.63" height="2.63" style="fill:#f5f5f5"></rect><rect x="319.84" y="215.98" width="2.63" height="2.63" style="fill:#f5f5f5"></rect><rect x="319.84" y="220.4" width="2.63" height="2.63" style="fill:#f5f5f5"></rect><rect x="319.84" y="224.82" width="2.63" height="2.63" style="fill:#f5f5f5"></rect><rect x="319.84" y="229.23" width="2.63" height="2.63" style="fill:#f5f5f5"></rect><rect x="319.84" y="233.65" width="2.63" height="2.63" style="fill:#f5f5f5"></rect><rect x="319.84" y="238.07" width="2.63" height="2.63" style="fill:#f5f5f5"></rect><rect x="319.84" y="242.48" width="2.63" height="2.63" style="fill:#f5f5f5"></rect><rect x="319.84" y="246.9" width="2.63" height="2.63" style="fill:#f5f5f5"></rect><rect x="319.84" y="251.31" width="2.63" height="2.63" style="fill:#f5f5f5"></rect><rect x="319.84" y="255.73" width="2.63" height="2.63" style="fill:#f5f5f5"></rect><rect x="319.84" y="264.56" width="2.63" height="2.63" style="fill:#f5f5f5"></rect><rect x="319.84" y="268.98" width="2.63" height="2.63" style="fill:#f5f5f5"></rect><rect x="319.84" y="273.39" width="2.63" height="2.63" style="fill:#f5f5f5"></rect><rect x="319.84" y="277.81" width="2.63" height="2.63" style="fill:#f5f5f5"></rect><rect x="319.84" y="282.23" width="2.63" height="2.63" style="fill:#f5f5f5"></rect><rect x="315.66" y="185.07" width="2.63" height="2.63" style="fill:#f5f5f5"></rect><rect x="315.66" y="189.49" width="2.63" height="2.63" style="fill:#f5f5f5"></rect><rect x="315.66" y="193.9" width="2.63" height="2.63" style="fill:#f5f5f5"></rect><rect x="315.66" y="198.32" width="2.63" height="2.63" style="fill:#f5f5f5"></rect><rect x="315.66" y="202.74" width="2.63" height="2.63" style="fill:#f5f5f5"></rect><rect x="315.66" y="207.15" width="2.63" height="2.63" style="fill:#f5f5f5"></rect><rect x="315.66" y="211.57" width="2.63" height="2.63" style="fill:#f5f5f5"></rect><rect x="315.66" y="215.98" width="2.63" height="2.63" style="fill:#f5f5f5"></rect><rect x="315.66" y="220.4" width="2.63" height="2.63" style="fill:#f5f5f5"></rect><rect x="315.66" y="224.82" width="2.63" height="2.63" style="fill:#f5f5f5"></rect><rect x="315.66" y="229.23" width="2.63" height="2.63" style="fill:#f5f5f5"></rect><rect x="315.66" y="233.65" width="2.63" height="2.63" style="fill:#f5f5f5"></rect><rect x="315.66" y="238.07" width="2.63" height="2.63" style="fill:#f5f5f5"></rect><rect x="315.66" y="242.48" width="2.63" height="2.63" style="fill:#f5f5f5"></rect><rect x="315.66" y="246.9" width="2.63" height="2.63" style="fill:#f5f5f5"></rect><rect x="315.66" y="251.31" width="2.63" height="2.63" style="fill:#f5f5f5"></rect><rect x="315.66" y="277.81" width="2.63" height="2.63" style="fill:#f5f5f5"></rect><rect x="315.66" y="282.23" width="2.63" height="2.63" style="fill:#f5f5f5"></rect><rect x="311.47" y="185.07" width="2.63" height="2.63" style="fill:#f5f5f5"></rect><rect x="311.47" y="189.49" width="2.63" height="2.63" style="fill:#f5f5f5"></rect><rect x="311.47" y="193.9" width="2.63" height="2.63" style="fill:#f5f5f5"></rect><rect x="311.47" y="198.32" width="2.63" height="2.63" style="fill:#f5f5f5"></rect><rect x="311.47" y="202.74" width="2.63" height="2.63" style="fill:#f5f5f5"></rect><rect x="311.47" y="207.15" width="2.63" height="2.63" style="fill:#f5f5f5"></rect><rect x="311.47" y="211.57" width="2.63" height="2.63" style="fill:#f5f5f5"></rect><rect x="311.47" y="215.98" width="2.63" height="2.63" style="fill:#f5f5f5"></rect><rect x="311.47" y="220.4" width="2.63" height="2.63" style="fill:#f5f5f5"></rect><rect x="311.47" y="224.82" width="2.63" height="2.63" style="fill:#f5f5f5"></rect><rect x="311.47" y="229.23" width="2.63" height="2.63" style="fill:#f5f5f5"></rect><rect x="311.47" y="233.65" width="2.63" height="2.63" style="fill:#f5f5f5"></rect><rect x="311.47" y="238.07" width="2.63" height="2.63" style="fill:#f5f5f5"></rect><rect x="311.47" y="242.48" width="2.63" height="2.63" style="fill:#f5f5f5"></rect><rect x="311.47" y="246.9" width="2.63" height="2.63" style="fill:#f5f5f5"></rect><rect x="311.47" y="251.31" width="2.63" height="2.63" style="fill:#f5f5f5"></rect><rect x="311.47" y="260.15" width="2.63" height="2.63" style="fill:#f5f5f5"></rect><rect x="311.47" y="264.56" width="2.63" height="2.63" style="fill:#f5f5f5"></rect><rect x="311.47" y="268.98" width="2.63" height="2.63" style="fill:#f5f5f5"></rect><rect x="311.47" y="273.39" width="2.63" height="2.63" style="fill:#f5f5f5"></rect><rect x="311.47" y="282.23" width="2.63" height="2.63" style="fill:#f5f5f5"></rect><rect x="238.49" y="215.98" width="2.63" height="2.63" style="fill:#f5f5f5"></rect><rect x="238.49" y="220.4" width="2.63" height="2.63" style="fill:#f5f5f5"></rect><rect x="238.49" y="224.82" width="2.63" height="2.63" style="fill:#f5f5f5"></rect><rect x="238.49" y="229.23" width="2.63" height="2.63" style="fill:#f5f5f5"></rect><rect x="238.49" y="233.65" width="2.63" height="2.63" style="fill:#f5f5f5"></rect><rect x="238.49" y="238.07" width="2.63" height="2.63" style="fill:#f5f5f5"></rect><rect x="238.49" y="242.48" width="2.63" height="2.63" style="fill:#f5f5f5"></rect><rect x="238.49" y="246.9" width="2.63" height="2.63" style="fill:#f5f5f5"></rect><rect x="238.49" y="251.31" width="2.63" height="2.63" style="fill:#f5f5f5"></rect><rect x="238.49" y="255.73" width="2.63" height="2.63" style="fill:#f5f5f5"></rect><rect x="238.49" y="260.15" width="2.63" height="2.63" style="fill:#f5f5f5"></rect><rect x="238.49" y="264.56" width="2.63" height="2.63" style="fill:#f5f5f5"></rect><rect x="238.49" y="268.98" width="2.63" height="2.63" style="fill:#f5f5f5"></rect><rect x="238.49" y="277.81" width="2.63" height="2.63" style="fill:#f5f5f5"></rect><rect x="238.49" y="282.23" width="2.63" height="2.63" style="fill:#f5f5f5"></rect><rect x="238.49" y="286.64" width="2.63" height="2.63" style="fill:#f5f5f5"></rect><rect x="238.49" y="291.06" width="2.63" height="2.63" style="fill:#f5f5f5"></rect><rect x="238.49" y="299.89" width="2.63" height="2.63" style="fill:#f5f5f5"></rect><rect x="238.49" y="304.31" width="2.63" height="2.63" style="fill:#f5f5f5"></rect><rect x="238.49" y="308.72" width="2.63" height="2.63" style="fill:#f5f5f5"></rect><rect x="234.31" y="215.98" width="2.63" height="2.63" style="fill:#f5f5f5"></rect><rect x="234.31" y="220.4" width="2.63" height="2.63" style="fill:#f5f5f5"></rect><rect x="234.31" y="224.82" width="2.63" height="2.63" style="fill:#f5f5f5"></rect><rect x="234.31" y="229.23" width="2.63" height="2.63" style="fill:#f5f5f5"></rect><rect x="234.31" y="233.65" width="2.63" height="2.63" style="fill:#f5f5f5"></rect><rect x="234.31" y="238.07" width="2.63" height="2.63" style="fill:#f5f5f5"></rect><rect x="234.31" y="242.48" width="2.63" height="2.63" style="fill:#f5f5f5"></rect><rect x="234.31" y="246.9" width="2.63" height="2.63" style="fill:#f5f5f5"></rect><rect x="234.31" y="251.31" width="2.63" height="2.63" style="fill:#f5f5f5"></rect><rect x="234.31" y="255.73" width="2.63" height="2.63" style="fill:#f5f5f5"></rect><rect x="234.31" y="260.15" width="2.63" height="2.63" style="fill:#f5f5f5"></rect><rect x="234.31" y="264.56" width="2.63" height="2.63" style="fill:#f5f5f5"></rect><rect x="234.31" y="268.98" width="2.63" height="2.63" style="fill:#f5f5f5"></rect><rect x="234.31" y="282.23" width="2.63" height="2.63" style="fill:#f5f5f5"></rect><rect x="234.31" y="286.64" width="2.63" height="2.63" style="fill:#f5f5f5"></rect><rect x="234.31" y="295.47" width="2.63" height="2.63" style="fill:#f5f5f5"></rect><rect x="234.31" y="299.89" width="2.63" height="2.63" style="fill:#f5f5f5"></rect><rect x="234.31" y="304.31" width="2.63" height="2.63" style="fill:#f5f5f5"></rect><rect x="234.31" y="308.72" width="2.63" height="2.63" style="fill:#f5f5f5"></rect><rect x="230.12" y="215.98" width="2.63" height="2.63" style="fill:#f5f5f5"></rect><rect x="230.12" y="220.4" width="2.63" height="2.63" style="fill:#f5f5f5"></rect><rect x="230.12" y="224.82" width="2.63" height="2.63" style="fill:#f5f5f5"></rect><rect x="230.12" y="229.23" width="2.63" height="2.63" style="fill:#f5f5f5"></rect><rect x="230.12" y="233.65" width="2.63" height="2.63" style="fill:#f5f5f5"></rect><rect x="230.12" y="238.07" width="2.63" height="2.63" style="fill:#f5f5f5"></rect><rect x="230.12" y="242.48" width="2.63" height="2.63" style="fill:#f5f5f5"></rect><rect x="230.12" y="246.9" width="2.63" height="2.63" style="fill:#f5f5f5"></rect><rect x="230.12" y="251.31" width="2.63" height="2.63" style="fill:#f5f5f5"></rect><rect x="230.12" y="255.73" width="2.63" height="2.63" style="fill:#f5f5f5"></rect><rect x="230.12" y="260.15" width="2.63" height="2.63" style="fill:#f5f5f5"></rect><rect x="230.12" y="264.56" width="2.63" height="2.63" style="fill:#f5f5f5"></rect><rect x="230.12" y="268.98" width="2.63" height="2.63" style="fill:#f5f5f5"></rect><rect x="230.12" y="273.39" width="2.63" height="2.63" style="fill:#f5f5f5"></rect><rect x="230.12" y="282.23" width="2.63" height="2.63" style="fill:#f5f5f5"></rect><rect x="230.12" y="291.06" width="2.63" height="2.63" style="fill:#f5f5f5"></rect><rect x="230.12" y="295.47" width="2.63" height="2.63" style="fill:#f5f5f5"></rect><rect x="230.12" y="299.89" width="2.63" height="2.63" style="fill:#f5f5f5"></rect><rect x="230.12" y="304.31" width="2.63" height="2.63" style="fill:#f5f5f5"></rect><rect x="230.12" y="308.72" width="2.63" height="2.63" style="fill:#f5f5f5"></rect><rect x="255.54" y="241.16" width="2.63" height="2.63" style="fill:#f5f5f5"></rect><rect x="255.54" y="245.58" width="2.63" height="2.63" style="fill:#f5f5f5"></rect><rect x="255.54" y="250" width="2.63" height="2.63" style="fill:#f5f5f5"></rect><rect x="255.54" y="254.41" width="2.63" height="2.63" style="fill:#f5f5f5"></rect><rect x="255.54" y="258.83" width="2.63" height="2.63" style="fill:#f5f5f5"></rect><rect x="255.54" y="263.24" width="2.63" height="2.63" style="fill:#f5f5f5"></rect><rect x="255.54" y="276.49" width="2.63" height="2.63" style="fill:#f5f5f5"></rect><rect x="255.54" y="280.91" width="2.63" height="2.63" style="fill:#f5f5f5"></rect><rect x="255.54" y="285.33" width="2.63" height="2.63" style="fill:#f5f5f5"></rect><rect x="255.54" y="289.74" width="2.63" height="2.63" style="fill:#f5f5f5"></rect><rect x="255.54" y="294.16" width="2.63" height="2.63" style="fill:#f5f5f5"></rect><rect x="255.54" y="298.57" width="2.63" height="2.63" style="fill:#f5f5f5"></rect><rect x="255.54" y="302.99" width="2.63" height="2.63" style="fill:#f5f5f5"></rect><rect x="251.35" y="241.16" width="2.63" height="2.63" style="fill:#f5f5f5"></rect><rect x="251.35" y="245.58" width="2.63" height="2.63" style="fill:#f5f5f5"></rect><rect x="251.35" y="250" width="2.63" height="2.63" style="fill:#f5f5f5"></rect><rect x="251.35" y="254.41" width="2.63" height="2.63" style="fill:#f5f5f5"></rect><rect x="251.35" y="258.83" width="2.63" height="2.63" style="fill:#f5f5f5"></rect><rect x="251.35" y="263.24" width="2.63" height="2.63" style="fill:#f5f5f5"></rect><rect x="251.35" y="276.49" width="2.63" height="2.63" style="fill:#f5f5f5"></rect><rect x="251.35" y="280.91" width="2.63" height="2.63" style="fill:#f5f5f5"></rect><rect x="251.35" y="285.33" width="2.63" height="2.63" style="fill:#f5f5f5"></rect><rect x="251.35" y="289.74" width="2.63" height="2.63" style="fill:#f5f5f5"></rect><rect x="251.35" y="294.16" width="2.63" height="2.63" style="fill:#f5f5f5"></rect><rect x="251.35" y="298.57" width="2.63" height="2.63" style="fill:#f5f5f5"></rect><rect x="251.35" y="307.41" width="2.63" height="2.63" style="fill:#f5f5f5"></rect><rect x="112.36" y="221.72" width="2.63" height="2.63" style="fill:#f5f5f5"></rect><rect x="112.36" y="226.13" width="2.63" height="2.63" style="fill:#f5f5f5"></rect><rect x="112.36" y="230.55" width="2.63" height="2.63" style="fill:#f5f5f5"></rect><rect x="112.36" y="234.97" width="2.63" height="2.63" style="fill:#f5f5f5"></rect><rect x="112.36" y="239.38" width="2.63" height="2.63" style="fill:#f5f5f5"></rect><rect x="112.36" y="243.8" width="2.63" height="2.63" style="fill:#f5f5f5"></rect><rect x="112.36" y="248.21" width="2.63" height="2.63" style="fill:#f5f5f5"></rect><rect x="112.36" y="252.63" width="2.63" height="2.63" style="fill:#f5f5f5"></rect><rect x="112.36" y="257.05" width="2.63" height="2.63" style="fill:#f5f5f5"></rect><rect x="112.36" y="261.46" width="2.63" height="2.63" style="fill:#f5f5f5"></rect><rect x="112.36" y="265.88" width="2.63" height="2.63" style="fill:#f5f5f5"></rect><rect x="112.36" y="274.71" width="2.63" height="2.63" style="fill:#f5f5f5"></rect><rect x="112.36" y="279.13" width="2.63" height="2.63" style="fill:#f5f5f5"></rect><rect x="112.36" y="283.54" width="2.63" height="2.63" style="fill:#f5f5f5"></rect><rect x="112.36" y="287.96" width="2.63" height="2.63" style="fill:#f5f5f5"></rect><rect x="112.36" y="292.38" width="2.63" height="2.63" style="fill:#f5f5f5"></rect><rect x="112.36" y="296.79" width="2.63" height="2.63" style="fill:#f5f5f5"></rect><rect x="112.36" y="301.21" width="2.63" height="2.63" style="fill:#f5f5f5"></rect><rect x="112.36" y="305.62" width="2.63" height="2.63" style="fill:#f5f5f5"></rect><rect x="108.18" y="221.72" width="2.63" height="2.63" style="fill:#f5f5f5"></rect><rect x="108.18" y="226.13" width="2.63" height="2.63" style="fill:#f5f5f5"></rect><rect x="108.18" y="230.55" width="2.63" height="2.63" style="fill:#f5f5f5"></rect><rect x="108.18" y="234.97" width="2.63" height="2.63" style="fill:#f5f5f5"></rect><rect x="108.18" y="239.38" width="2.63" height="2.63" style="fill:#f5f5f5"></rect><rect x="108.18" y="243.8" width="2.63" height="2.63" style="fill:#f5f5f5"></rect><rect x="108.18" y="248.21" width="2.63" height="2.63" style="fill:#f5f5f5"></rect><rect x="108.18" y="252.63" width="2.63" height="2.63" style="fill:#f5f5f5"></rect><rect x="108.18" y="257.05" width="2.63" height="2.63" style="fill:#f5f5f5"></rect><rect x="108.18" y="261.46" width="2.63" height="2.63" style="fill:#f5f5f5"></rect><rect x="108.18" y="265.88" width="2.63" height="2.63" style="fill:#f5f5f5"></rect><rect x="108.18" y="270.3" width="2.63" height="2.63" style="fill:#f5f5f5"></rect><rect x="108.18" y="274.71" width="2.63" height="2.63" style="fill:#f5f5f5"></rect><rect x="108.18" y="279.13" width="2.63" height="2.63" style="fill:#f5f5f5"></rect><rect x="108.18" y="283.54" width="2.63" height="2.63" style="fill:#f5f5f5"></rect><rect x="108.18" y="287.96" width="2.63" height="2.63" style="fill:#f5f5f5"></rect><rect x="108.18" y="292.38" width="2.63" height="2.63" style="fill:#f5f5f5"></rect><rect x="108.18" y="296.79" width="2.63" height="2.63" style="fill:#f5f5f5"></rect><rect x="108.18" y="301.21" width="2.63" height="2.63" style="fill:#f5f5f5"></rect><rect x="108.18" y="305.62" width="2.63" height="2.63" style="fill:#f5f5f5"></rect><rect x="132.97" y="238.92" width="2.63" height="2.63" style="fill:#f5f5f5"></rect><rect x="132.97" y="243.33" width="2.63" height="2.63" style="fill:#f5f5f5"></rect><rect x="132.97" y="247.75" width="2.63" height="2.63" style="fill:#f5f5f5"></rect><rect x="132.97" y="252.17" width="2.63" height="2.63" style="fill:#f5f5f5"></rect><rect x="132.97" y="256.58" width="2.63" height="2.63" style="fill:#f5f5f5"></rect><rect x="132.97" y="261" width="2.63" height="2.63" style="fill:#f5f5f5"></rect><rect x="132.97" y="265.41" width="2.63" height="2.63" style="fill:#f5f5f5"></rect><rect x="132.97" y="269.83" width="2.63" height="2.63" style="fill:#f5f5f5"></rect><rect x="132.97" y="274.25" width="2.63" height="2.63" style="fill:#f5f5f5"></rect><rect x="132.97" y="278.66" width="2.63" height="2.63" style="fill:#f5f5f5"></rect><rect x="128.79" y="238.92" width="2.63" height="2.63" style="fill:#f5f5f5"></rect><rect x="128.79" y="243.33" width="2.63" height="2.63" style="fill:#f5f5f5"></rect><rect x="128.79" y="247.75" width="2.63" height="2.63" style="fill:#f5f5f5"></rect><rect x="128.79" y="252.17" width="2.63" height="2.63" style="fill:#f5f5f5"></rect><rect x="128.79" y="256.58" width="2.63" height="2.63" style="fill:#f5f5f5"></rect><rect x="128.79" y="261" width="2.63" height="2.63" style="fill:#f5f5f5"></rect><rect x="128.79" y="265.41" width="2.63" height="2.63" style="fill:#f5f5f5"></rect><rect x="128.79" y="269.83" width="2.63" height="2.63" style="fill:#f5f5f5"></rect><rect x="128.79" y="274.25" width="2.63" height="2.63" style="fill:#f5f5f5"></rect><rect x="151.89" y="106.71" width="4.42" height="210.91" style="fill:#f5f5f5"></rect><rect x="235.06" y="106.71" width="4.42" height="210.91" style="fill:#f5f5f5"></rect><rect x="318.23" y="106.71" width="4.42" height="210.91" style="fill:#f5f5f5"></rect><path d="M262.74,296.78h12.58v-.84c0-1.64-1.84-2.95-4-2.86l-4.93.2c-2,.08-3.62,1.34-3.62,2.86Z" style="fill:#f0f0f0"></path><path d="M287.65,297.21H304.3L306.94,274a1.63,1.63,0,0,0-1.63-1.55H294.16a1.63,1.63,0,0,0-1.63,1.55Z" style="fill:#e6e6e6"></path><path d="M262.24,238.24h4.16l4.67,43.89h-4.16a1.42,1.42,0,0,1-1.37-1.25l-4.41-41.4A1.1,1.1,0,0,1,262.24,238.24Z" style="fill:#e6e6e6"></path><path d="M268.67,282.13H331a1.09,1.09,0,0,0,1.11-1.25l-4.4-41.4a1.41,1.41,0,0,0-1.38-1.24H264a1.09,1.09,0,0,0-1.11,1.24l4.4,41.4A1.43,1.43,0,0,0,268.67,282.13Z" style="fill:#ebebeb"></path><path d="M269.84,278.08h58.72a1,1,0,0,0,1-1.09l-3.85-36.12a1.24,1.24,0,0,0-1.2-1.09H265.76a1,1,0,0,0-1,1.09L268.63,277A1.25,1.25,0,0,0,269.84,278.08Z" style="fill:#fafafa"></path><rect x="286.12" y="295.4" width="22.28" height="1.8" rx="0.89" transform="translate(594.52 592.61) rotate(180)" style="fill:#e6e6e6"></rect><rect x="236.6" y="296.69" width="50.7" height="7.65" transform="translate(523.91 601.02) rotate(180)" style="fill:#e6e6e6"></rect><path d="M377.88,382.11h1.27a.3.3,0,0,0,.29-.28l2-77.49h-5.85l2,77.49A.29.29,0,0,0,377.88,382.11Z" style="fill:#e6e6e6"></path><polygon points="423.01 382.11 425.93 382.11 417.68 304.34 411.83 304.34 423.01 382.11" style="fill:#f0f0f0"></polygon><polygon points="234.62 382.11 234.62 382.11 245.83 304.34 239.98 304.34 231.73 382.11 234.62 382.11" style="fill:#e6e6e6"></polygon><rect x="272.84" y="296.69" width="148.22" height="7.65" transform="translate(693.9 601.02) rotate(180)" style="fill:#f5f5f5"></rect><polygon points="277.47 382.11 280.83 382.11 280.83 382.11 282.07 304.34 276.22 304.34 277.47 382.11" style="fill:#f0f0f0"></polygon><path d="M324.82,295.31h1.55a.29.29,0,0,0,.29-.29v-1.65a.29.29,0,0,0-.29-.29h-1.12a.29.29,0,0,0-.28.22l-.44,1.64A.29.29,0,0,0,324.82,295.31Z" style="fill:#f5f5f5"></path><path d="M322.67,295.31h1.55a.29.29,0,0,0,.3-.29v-1.65a.29.29,0,0,0-.3-.29h-1.11a.3.3,0,0,0-.29.22l-.44,1.64A.29.29,0,0,0,322.67,295.31Z" style="fill:#f5f5f5"></path><path d="M320.52,295.31h1.56a.29.29,0,0,0,.29-.29v-1.65a.29.29,0,0,0-.29-.29H321a.31.31,0,0,0-.29.22l-.43,1.64A.29.29,0,0,0,320.52,295.31Z" style="fill:#f5f5f5"></path><path d="M318.38,295.31h1.55a.3.3,0,0,0,.3-.29v-1.65a.3.3,0,0,0-.3-.29h-1.12a.29.29,0,0,0-.28.22l-.44,1.64A.29.29,0,0,0,318.38,295.31Z" style="fill:#f5f5f5"></path><path d="M316.23,295.31h1.55a.29.29,0,0,0,.3-.29v-1.65a.29.29,0,0,0-.3-.29h-1.11a.3.3,0,0,0-.29.22l-.44,1.64A.3.3,0,0,0,316.23,295.31Z" style="fill:#f5f5f5"></path><path d="M314.08,295.31h1.56a.29.29,0,0,0,.29-.29v-1.65a.29.29,0,0,0-.29-.29h-1.12a.29.29,0,0,0-.28.22l-.44,1.64A.29.29,0,0,0,314.08,295.31Z" style="fill:#f5f5f5"></path><path d="M311.94,295.31h1.55a.3.3,0,0,0,.3-.29v-1.65a.3.3,0,0,0-.3-.29h-1.11a.29.29,0,0,0-.29.22l-.44,1.64A.29.29,0,0,0,311.94,295.31Z" style="fill:#f5f5f5"></path><path d="M309.79,295.31h1.55a.29.29,0,0,0,.3-.29v-1.65a.29.29,0,0,0-.3-.29h-1.11a.3.3,0,0,0-.29.22l-.44,1.64A.3.3,0,0,0,309.79,295.31Z" style="fill:#f5f5f5"></path><path d="M307.64,295.31h1.56a.29.29,0,0,0,.29-.29v-1.65a.29.29,0,0,0-.29-.29h-1.12a.29.29,0,0,0-.28.22l-.44,1.64A.29.29,0,0,0,307.64,295.31Z" style="fill:#f5f5f5"></path><path d="M305.5,295.31h1.55a.29.29,0,0,0,.3-.29v-1.65a.29.29,0,0,0-.3-.29h-1.11a.29.29,0,0,0-.29.22l-.44,1.64A.29.29,0,0,0,305.5,295.31Z" style="fill:#f5f5f5"></path><path d="M303.35,295.31h1.56a.29.29,0,0,0,.29-.29v-1.65a.29.29,0,0,0-.29-.29h-1.12a.31.31,0,0,0-.29.22l-.43,1.64A.29.29,0,0,0,303.35,295.31Z" style="fill:#f5f5f5"></path><path d="M301.21,295.31h1.55a.3.3,0,0,0,.3-.29v-1.65a.3.3,0,0,0-.3-.29h-1.12a.29.29,0,0,0-.28.22l-.44,1.64A.29.29,0,0,0,301.21,295.31Z" style="fill:#f5f5f5"></path><path d="M299.06,295.31h1.55a.29.29,0,0,0,.3-.29v-1.65a.29.29,0,0,0-.3-.29H299.5a.3.3,0,0,0-.29.22l-.44,1.64A.29.29,0,0,0,299.06,295.31Z" style="fill:#f5f5f5"></path><path d="M296.91,295.31h1.56a.29.29,0,0,0,.29-.29v-1.65a.29.29,0,0,0-.29-.29h-1.12a.31.31,0,0,0-.29.22l-.43,1.64A.29.29,0,0,0,296.91,295.31Z" style="fill:#f5f5f5"></path><path d="M294.77,295.31h1.55a.3.3,0,0,0,.3-.29v-1.65a.3.3,0,0,0-.3-.29H295.2a.29.29,0,0,0-.28.22l-.44,1.64A.29.29,0,0,0,294.77,295.31Z" style="fill:#f5f5f5"></path><rect x="293.2" y="294.19" width="34.73" height="2.59" transform="translate(621.14 590.97) rotate(180)" style="fill:#ebebeb"></rect><path d="M349.88,311.33h63a0,0,0,0,1,0,0v3.53a4.66,4.66,0,0,1-4.66,4.66h-53.7a4.66,4.66,0,0,1-4.66-4.66v-3.53A0,0,0,0,1,349.88,311.33Z" transform="translate(762.79 630.85) rotate(180)" style="fill:#e0e0e0"></path><path d="M410.86,366.17l-20.2-2V335.8h-8v28.38l-20.28,2a3.93,3.93,0,0,0-3.55,3.91v3H414.4v-3A3.93,3.93,0,0,0,410.86,366.17Z" style="fill:#e0e0e0"></path><path d="M366.2,376.88a5.24,5.24,0,1,1-5.23-5.23A5.23,5.23,0,0,1,366.2,376.88Z" style="fill:#e0e0e0"></path><path d="M407,376.88a5.24,5.24,0,1,0,5.24-5.23A5.24,5.24,0,0,0,407,376.88Z" style="fill:#e0e0e0"></path><path d="M381.28,316.62H392a0,0,0,0,1,0,0V338a3.86,3.86,0,0,1-3.86,3.86h-3a3.86,3.86,0,0,1-3.86-3.86V316.62A0,0,0,0,1,381.28,316.62Z" style="fill:#e6e6e6"></path><path d="M376,311.86a349.24,349.24,0,0,0,10.41-74,10.38,10.38,0,0,1,10.38-10h18.64a10.39,10.39,0,0,1,10.39,10.35c.08,17-1.11,51.67-10.68,79.87l-35.47-1.3A4,4,0,0,1,376,311.86Z" style="fill:#ebebeb"></path><path d="M381,316.22a366.55,366.55,0,0,0,11.14-77.13,9.58,9.58,0,0,1,9.59-9.21H419a9.58,9.58,0,0,1,9.59,9.54c.07,15.65-1,50.79-9.85,76.8Z" style="fill:#e6e6e6"></path><path d="M388.41,291.48s-20.42-4.13-40.14-2.13,9.28,27.76,9.28,27.76h4.07s-15.37-16.33-14.51-20.4S386.66,298,386.66,298Z" style="fill:#e6e6e6"></path><path d="M418.68,316.22H385.24a366.29,366.29,0,0,0,11.15-77.13,9.58,9.58,0,0,1,9.59-9.21h13a9.59,9.59,0,0,1,9.6,9.54C428.61,255.07,427.52,290.2,418.68,316.22Z" style="fill:#e0e0e0"></path><rect x="347.63" y="315.43" width="71.73" height="4.1" rx="1.88" transform="translate(766.99 634.95) rotate(180)" style="fill:#e0e0e0"></rect></g><g id="freepik--Shadow--inject-177"><ellipse id="freepik--path--inject-177" cx="250" cy="416.24" rx="193.89" ry="11.32" style="fill:#f5f5f5"></ellipse></g><g id="freepik--Clipboard--inject-177"><rect x="117.56" y="157.74" width="157.45" height="228.27" rx="7.25" style="fill:#263238"></rect><rect x="117.56" y="157.74" width="157.45" height="228.27" rx="7.25" style="fill:#fff;opacity:0.4"></rect><rect x="131.07" y="174.45" width="136.44" height="202.68" style="opacity:0.2"></rect><path d="M200.47,154.75a4.19,4.19,0,0,0-8.38,0h-30a2.1,2.1,0,0,0-2.11,2.11v21.83h72.53V156.86a2.1,2.1,0,0,0-2.11-2.11Zm-4.19-2.19a2.19,2.19,0,1,1-2.19,2.19A2.19,2.19,0,0,1,196.28,152.56Z" style="fill:#263238"></path><rect x="128.06" y="171.45" width="136.44" height="202.68" style="fill:#1952CF"></rect><rect x="128.06" y="171.45" width="136.44" height="202.68" style="fill:#fff;opacity:0.7000000000000001"></rect><g style="opacity:0.4"><rect x="149.6" y="193.88" width="93.36" height="5"></rect></g><g style="opacity:0.4"><rect x="159.61" y="211.64" width="83.36" height="2"></rect></g><g style="opacity:0.4"><rect x="149.6" y="219.39" width="93.36" height="2"></rect></g><g style="opacity:0.4"><rect x="149.6" y="227.14" width="93.36" height="2"></rect></g><g style="opacity:0.4"><rect x="149.6" y="234.9" width="93.36" height="2"></rect></g><g style="opacity:0.4"><rect x="149.6" y="242.65" width="93.36" height="2"></rect></g><g style="opacity:0.4"><rect x="149.6" y="250.4" width="93.36" height="2"></rect></g><g style="opacity:0.4"><rect x="149.6" y="258.15" width="43.33" height="2"></rect></g><g style="opacity:0.4"><path d="M166,289.68H149.6V273.34H166Zm-14.35-2H164V275.34H151.6Z"></path></g><g style="opacity:0.4"><rect x="171.27" y="277.48" width="71.7" height="2"></rect><rect x="171.27" y="283.54" width="48.86" height="2"></rect></g><g style="opacity:0.4"><path d="M166,319.7H149.6V303.36H166Zm-14.35-2H164V305.36H151.6Z"></path></g><g style="opacity:0.4"><rect x="171.27" y="307.5" width="71.7" height="2"></rect><rect x="171.27" y="313.56" width="48.86" height="2"></rect></g><g style="opacity:0.4"><path d="M166,349.72H149.6V333.37H166Zm-14.35-2H164V335.37H151.6Z"></path></g><g style="opacity:0.4"><rect x="171.27" y="337.51" width="71.7" height="2"></rect><rect x="171.27" y="343.58" width="48.86" height="2"></rect></g><polygon points="156.03 286.13 153.11 282.1 154.73 280.92 156.2 282.96 160.89 277.8 162.37 279.15 156.03 286.13" style="fill:#1952CF"></polygon><polygon points="156.03 316.14 153.11 312.11 154.73 310.94 156.2 312.98 160.89 307.82 162.37 309.17 156.03 316.14" style="fill:#1952CF"></polygon><polygon points="156.03 346.16 153.11 342.13 154.73 340.96 156.2 343 160.89 337.84 162.37 339.19 156.03 346.16" style="fill:#1952CF"></polygon><g style="opacity:0.2"><path d="M221.55,184.68H173a2.94,2.94,0,0,1-3-3.3l1.33-13A3.75,3.75,0,0,1,175,165h48.52a2.93,2.93,0,0,1,3,3.31l-1.33,13A3.74,3.74,0,0,1,221.55,184.68ZM174.82,167a1.48,1.48,0,0,0-1.44,1.31l-1.33,13a1.16,1.16,0,0,0,1.18,1.3h48.52a1.48,1.48,0,0,0,1.44-1.3l1.33-13a1.16,1.16,0,0,0-1.17-1.31Z"></path></g><path d="M220.55,183.68H172a3.31,3.31,0,0,1-3.31-3.3v-13A3.31,3.31,0,0,1,172,164h48.53a3.31,3.31,0,0,1,3.31,3.31v13A3.31,3.31,0,0,1,220.55,183.68ZM172,166a1.31,1.31,0,0,0-1.31,1.31v13a1.31,1.31,0,0,0,1.31,1.3h48.53a1.31,1.31,0,0,0,1.31-1.3v-13a1.31,1.31,0,0,0-1.31-1.31Z" style="fill:#fff"></path><rect x="175.71" y="160.94" width="41.14" height="8.18" rx="1.49" style="fill:#263238"></rect><rect x="175.71" y="160.94" width="41.14" height="8.18" rx="1.49" style="fill:#fff;opacity:0.1"></rect></g><g id="freepik--Plant--inject-177"><path d="M103.77,395.07s4.75-10.37-.68-20.58-7-12.63-3.54-14.72,5,8.17,5,8.17a23,23,0,0,0,.51-14.45c-2.41-7.39-3.92-19.43-.63-20.72s.63,15,3.48,20.57a47.57,47.57,0,0,0,2.79-12.12c.4-5.94-.22-15.42,2.38-17.85s4.26-.75,1.71,12.35a136.56,136.56,0,0,0-2.54,23.75s5.64-17.18,9.42-17.68,3.78,5.06.54,9.89-9.48,13.47-10.51,17.92c0,0,6.19-12.93,11.76-9s-4.85,11.78-9.49,14.6-7.86,20.52-7.86,20.52Z" style="fill:#1952CF"></path><path d="M103.77,395.07s4.75-10.37-.68-20.58-7-12.63-3.54-14.72,5,8.17,5,8.17a23,23,0,0,0,.51-14.45c-2.41-7.39-3.92-19.43-.63-20.72s.63,15,3.48,20.57a47.57,47.57,0,0,0,2.79-12.12c.4-5.94-.22-15.42,2.38-17.85s4.26-.75,1.71,12.35a136.56,136.56,0,0,0-2.54,23.75s5.64-17.18,9.42-17.68,3.78,5.06.54,9.89-9.48,13.47-10.51,17.92c0,0,6.19-12.93,11.76-9s-4.85,11.78-9.49,14.6-7.86,20.52-7.86,20.52Z" style="isolation:isolate;opacity:0.2"></path><path d="M107.52,399.32s-4.62-10.44.93-20.57,7.15-12.52,3.71-14.66-5.14,8.09-5.14,8.09a23.1,23.1,0,0,1-.34-14.46c2.5-7.35,4.15-19.37.88-20.71s-.81,15-3.73,20.53a48,48,0,0,1-2.64-12.17c-.33-5.94.4-15.41-2.16-17.88s-4.25-.82-1.86,12.32a136.7,136.7,0,0,1,2.25,23.79S94,346.33,90.21,345.77s-3.84,5-.66,9.89,9.32,13.61,10.29,18.08c0,0-6-13-11.64-9.15s4.7,11.85,9.31,14.74S105.12,400,105.12,400Z" style="fill:#1952CF"></path><polygon points="86.19 391.88 124.4 391.88 121.31 419.22 89.28 419.22 86.19 391.88" style="fill:#263238"></polygon></g><g id="freepik--Boxes--inject-177"><rect x="256.38" y="378.27" width="58.63" height="40.96" style="fill:#1952CF"></rect><rect x="256.38" y="378.27" width="58.63" height="40.96" style="fill:#fff;opacity:0.2"></rect><polygon points="271.1 378.26 256.38 378.26 256.38 419.22 315.01 419.22 271.1 417.95 271.1 378.26" style="opacity:0.2"></polygon><rect x="261.53" y="378.27" width="3.56" height="2.27" style="fill:#fff;opacity:0.7000000000000001"></rect><rect x="261.53" y="416.95" width="3.56" height="2.27" style="fill:#fff;opacity:0.7000000000000001"></rect><polygon points="309.4 390.14 309.39 390.18 307.53 394.9 306.83 396.67 305.51 394.29 302.93 395.13 305.51 388.6 307.14 389.25 309.31 390.1 309.4 390.14" style="fill:#263238"></polygon><g style="opacity:0.2"><path d="M306.84,395.8l-1.12-2-2.21.72,2.23-5.66,3.34,1.32Zm-1.08-2.14,1.07,1.94,2.13-5.4L305.79,389l-2.13,5.4Z" style="fill:#fff"></path></g><path d="M309.39,390.18l-1.86,4.72a15.9,15.9,0,0,1-1.22-5.19l.83-.46,2.17.85Z" style="opacity:0.2"></path><polygon points="308.97 396.67 310.28 394.29 312.86 395.13 310.29 388.6 306.39 390.14 308.97 396.67" style="fill:#263238"></polygon><g style="opacity:0.2"><path d="M306.72,390.15l3.33-1.32,2.23,5.66-2.21-.72-1.12,2Zm5.41,4.2L310,389l-3.17,1.25,2.13,5.4,1.07-1.94Z" style="fill:#fff"></path></g><polygon points="307.9 380.9 308.36 380.54 308.75 380.98 309.26 380.7 309.57 381.2 310.13 381.03 310.34 381.57 310.92 381.5 311.03 382.07 311.61 382.11 311.62 382.69 312.19 382.83 312.09 383.4 312.63 383.64 312.43 384.19 312.91 384.52 312.62 385.02 313.03 385.43 312.65 385.87 312.99 386.35 312.54 386.72 312.79 387.25 312.27 387.53 312.43 388.1 311.87 388.28 311.92 388.87 311.34 388.95 311.28 389.53 310.69 389.51 310.53 390.08 309.96 389.95 309.7 390.48 309.16 390.25 308.81 390.72 308.32 390.4 307.9 390.8 307.47 390.4 306.98 390.72 306.63 390.25 306.09 390.48 305.83 389.95 305.26 390.08 305.1 389.51 304.51 389.53 304.45 388.95 303.88 388.87 303.92 388.28 303.37 388.1 303.52 387.53 303 387.25 303.25 386.72 302.8 386.35 303.14 385.87 302.76 385.43 303.18 385.02 302.88 384.52 303.37 384.19 303.17 383.64 303.7 383.4 303.6 382.83 304.17 382.69 304.18 382.11 304.76 382.07 304.87 381.5 305.45 381.57 305.66 381.03 306.22 381.2 306.53 380.7 307.05 380.98 307.44 380.54 307.9 380.9" style="fill:#1952CF"></polygon><path d="M312.32,385.67a4.43,4.43,0,1,1-4.42-4.42A4.43,4.43,0,0,1,312.32,385.67Z" style="opacity:0.2"></path><path d="M305.84,385.84l1-.09a8.36,8.36,0,0,0,.07-2.37,1.85,1.85,0,0,1,.54,0c.18,0,.37,1.84.37,1.84a16.44,16.44,0,0,1,2-.19,1.32,1.32,0,0,1,.12.52.24.24,0,0,1-.18.25l-.06,0,0,1.8a.26.26,0,0,1-.24.27l-1.75.14a.94.94,0,0,1-.5-.11l-.2-.12-1.08.15Z" style="fill:#1952CF"></path><path d="M305.84,385.84l1-.09a8.36,8.36,0,0,0,.07-2.37,1.85,1.85,0,0,1,.54,0c.18,0,.37,1.84.37,1.84a16.44,16.44,0,0,1,2-.19,1.32,1.32,0,0,1,.12.52.24.24,0,0,1-.18.25l-.06,0,0,1.8a.26.26,0,0,1-.24.27l-1.75.14a.94.94,0,0,1-.5-.11l-.2-.12-1.08.15Z" style="fill:#fff;isolation:isolate;opacity:0.7000000000000001"></path><polygon points="271.1 378.26 255.89 394.9 255.89 378.26 271.1 378.26" style="opacity:0.2"></polygon><rect x="235.68" y="337.31" width="58.63" height="40.96" style="fill:#1952CF"></rect><rect x="235.68" y="337.31" width="58.63" height="40.96" style="fill:#fff;opacity:0.2"></rect><polygon points="250.4 337.31 235.68 337.31 235.68 378.26 294.31 378.26 250.4 376.99 250.4 337.31" style="opacity:0.2"></polygon><rect x="240.83" y="337.31" width="3.56" height="2.27" style="fill:#fff;opacity:0.7000000000000001"></rect><rect x="240.83" y="375.99" width="3.56" height="2.27" style="fill:#fff;opacity:0.7000000000000001"></rect><polygon points="288.71 349.18 288.69 349.22 286.83 353.94 286.13 355.71 284.82 353.33 282.23 354.17 284.81 347.64 286.45 348.29 288.61 349.14 288.71 349.18" style="fill:#263238"></polygon><g style="opacity:0.2"><path d="M286.15,354.84l-1.13-2-2.21.72,2.23-5.65,3.34,1.31Zm-1.09-2.14,1.07,1.94,2.14-5.4L285.09,348l-2.13,5.4Z" style="fill:#fff"></path></g><path d="M288.69,349.22l-1.86,4.72a15.9,15.9,0,0,1-1.22-5.19l.84-.46,2.16.85Z" style="opacity:0.2"></path><polygon points="288.27 355.71 289.58 353.33 292.17 354.17 289.59 347.64 285.69 349.18 288.27 355.71" style="fill:#263238"></polygon><g style="opacity:0.2"><path d="M286,349.19l3.33-1.31,2.24,5.65-2.21-.72-1.13,2Zm5.42,4.2-2.13-5.4-3.18,1.25,2.13,5.4,1.07-1.94Z" style="fill:#fff"></path></g><polygon points="287.2 339.94 287.66 339.58 288.05 340.02 288.57 339.74 288.87 340.24 289.43 340.07 289.64 340.61 290.22 340.54 290.33 341.12 290.92 341.15 290.92 341.73 291.49 341.87 291.39 342.44 291.93 342.68 291.73 343.23 292.21 343.56 291.92 344.06 292.34 344.47 291.96 344.92 292.3 345.39 291.84 345.76 292.09 346.29 291.58 346.57 291.73 347.14 291.17 347.33 291.22 347.91 290.64 347.99 290.58 348.57 290 348.56 289.84 349.12 289.26 348.99 289.01 349.52 288.47 349.29 288.12 349.76 287.63 349.44 287.2 349.85 286.77 349.44 286.28 349.76 285.93 349.29 285.39 349.52 285.13 348.99 284.56 349.12 284.4 348.56 283.81 348.57 283.76 347.99 283.18 347.91 283.23 347.33 282.67 347.14 282.82 346.57 282.31 346.29 282.56 345.76 282.1 345.39 282.44 344.92 282.06 344.47 282.48 344.06 282.19 343.56 282.67 343.23 282.47 342.68 283 342.44 282.91 341.87 283.48 341.73 283.48 341.15 284.07 341.12 284.18 340.54 284.76 340.61 284.97 340.07 285.53 340.24 285.83 339.74 286.35 340.02 286.74 339.58 287.2 339.94" style="fill:#1952CF"></polygon><path d="M291.62,344.71a4.43,4.43,0,1,1-4.42-4.42A4.42,4.42,0,0,1,291.62,344.71Z" style="opacity:0.2"></path><path d="M285.14,344.88l1-.09a8.31,8.31,0,0,0,.07-2.37,1.88,1.88,0,0,1,.54,0c.18,0,.37,1.84.37,1.84a16.44,16.44,0,0,1,2-.19c.07,0,.1.33.12.52a.24.24,0,0,1-.18.25l-.06,0,0,1.8a.26.26,0,0,1-.24.27l-1.75.14a1,1,0,0,1-.5-.11l-.2-.12-1.07.16Z" style="fill:#1952CF"></path><path d="M285.14,344.88l1-.09a8.31,8.31,0,0,0,.07-2.37,1.88,1.88,0,0,1,.54,0c.18,0,.37,1.84.37,1.84a16.44,16.44,0,0,1,2-.19c.07,0,.1.33.12.52a.24.24,0,0,1-.18.25l-.06,0,0,1.8a.26.26,0,0,1-.24.27l-1.75.14a1,1,0,0,1-.5-.11l-.2-.12-1.07.16Z" style="fill:#fff;isolation:isolate;opacity:0.7000000000000001"></path><rect x="201.82" y="378.27" width="58.63" height="40.96" style="fill:#1952CF"></rect><rect x="201.82" y="378.27" width="58.63" height="40.96" style="fill:#fff;opacity:0.2"></rect><polygon points="216.54 378.26 201.82 378.26 201.82 419.22 260.45 419.22 216.54 417.95 216.54 378.26" style="opacity:0.2"></polygon><rect x="206.97" y="378.27" width="3.56" height="2.27" style="fill:#fff;opacity:0.7000000000000001"></rect><rect x="206.97" y="416.95" width="3.56" height="2.27" style="fill:#fff;opacity:0.7000000000000001"></rect><polygon points="254.84 390.14 254.83 390.18 252.97 394.9 252.27 396.67 250.95 394.29 248.37 395.13 250.95 388.6 252.59 389.25 254.75 390.1 254.84 390.14" style="fill:#263238"></polygon><g style="opacity:0.2"><path d="M252.28,395.8l-1.12-2-2.21.72,2.23-5.66,3.34,1.32Zm-1.08-2.14,1.07,1.94,2.13-5.4L251.23,389l-2.13,5.4Z" style="fill:#fff"></path></g><path d="M254.83,390.18,253,394.9a15.9,15.9,0,0,1-1.22-5.19l.83-.46,2.17.85Z" style="opacity:0.2"></path><polygon points="254.41 396.67 255.72 394.29 258.3 395.13 255.72 388.6 251.83 390.14 254.41 396.67" style="fill:#263238"></polygon><g style="opacity:0.2"><path d="M252.16,390.15l3.33-1.32,2.23,5.66-2.21-.72-1.12,2Zm5.41,4.2-2.13-5.4-3.17,1.25,2.13,5.4,1.07-1.94Z" style="fill:#fff"></path></g><polygon points="253.34 380.9 253.8 380.54 254.19 380.98 254.71 380.7 255.01 381.2 255.57 381.03 255.78 381.57 256.36 381.5 256.47 382.07 257.05 382.11 257.06 382.69 257.63 382.83 257.53 383.4 258.07 383.64 257.87 384.19 258.35 384.52 258.06 385.02 258.48 385.43 258.09 385.87 258.43 386.35 257.98 386.72 258.23 387.25 257.72 387.53 257.87 388.1 257.31 388.28 257.36 388.87 256.78 388.95 256.72 389.53 256.14 389.51 255.97 390.08 255.4 389.95 255.14 390.48 254.6 390.25 254.25 390.72 253.76 390.4 253.34 390.8 252.91 390.4 252.42 390.72 252.07 390.25 251.53 390.48 251.27 389.95 250.7 390.08 250.54 389.51 249.95 389.53 249.89 388.95 249.31 388.87 249.36 388.28 248.81 388.1 248.96 387.53 248.44 387.25 248.69 386.72 248.24 386.35 248.58 385.87 248.2 385.43 248.62 385.02 248.32 384.52 248.81 384.19 248.61 383.64 249.14 383.4 249.04 382.83 249.61 382.69 249.62 382.11 250.2 382.07 250.31 381.5 250.89 381.57 251.1 381.03 251.66 381.2 251.97 380.7 252.49 380.98 252.88 380.54 253.34 380.9" style="fill:#1952CF"></polygon><path d="M257.76,385.67a4.43,4.43,0,1,1-4.42-4.42A4.43,4.43,0,0,1,257.76,385.67Z" style="opacity:0.2"></path><path d="M251.28,385.84l1-.09a8.36,8.36,0,0,0,.07-2.37,1.85,1.85,0,0,1,.54,0c.18,0,.37,1.84.37,1.84a16.44,16.44,0,0,1,2-.19,1.32,1.32,0,0,1,.12.52.24.24,0,0,1-.18.25l-.06,0,0,1.8a.26.26,0,0,1-.24.27l-1.75.14a.94.94,0,0,1-.5-.11l-.2-.12-1.08.15Z" style="fill:#1952CF"></path><path d="M251.28,385.84l1-.09a8.36,8.36,0,0,0,.07-2.37,1.85,1.85,0,0,1,.54,0c.18,0,.37,1.84.37,1.84a16.44,16.44,0,0,1,2-.19,1.32,1.32,0,0,1,.12.52.24.24,0,0,1-.18.25l-.06,0,0,1.8a.26.26,0,0,1-.24.27l-1.75.14a.94.94,0,0,1-.5-.11l-.2-.12-1.08.15Z" style="fill:#fff;isolation:isolate;opacity:0.7000000000000001"></path></g><g id="freepik--Label--inject-177"><polygon points="276.58 201.59 276.5 201.8 265.73 229.1 261.68 239.37 254.07 225.61 239.12 230.47 254.04 192.69 263.51 196.43 276.01 201.37 276.58 201.59" style="fill:#263238"></polygon><g style="opacity:0.2"><path d="M261.77,234.34l-6.5-11.77-12.78,4.16,12.9-32.7,19.29,7.61ZM255.51,222l6.19,11.2L274,201.92l-18.35-7.24-12.34,31.24Z" style="fill:#fff"></path></g><path d="M276.5,201.8l-10.78,27.3a91.41,91.41,0,0,1-7-30l4.83-2.66,12.5,4.94Z" style="opacity:0.2"></path><polygon points="274.05 239.37 281.65 225.61 296.6 230.47 281.68 192.69 259.14 201.59 274.05 239.37" style="fill:#263238"></polygon><g style="opacity:0.2"><path d="M261,201.64,280.33,194l12.91,32.7-12.79-4.16L274,234.34Zm31.35,24.28-12.34-31.24-18.36,7.24L274,233.17l6.18-11.2Z" style="fill:#fff"></path></g><polygon points="267.86 148.11 270.53 146.03 272.78 148.56 275.78 146.98 277.54 149.87 280.77 148.86 281.99 152.01 285.35 151.59 285.99 154.92 289.37 155.1 289.4 158.49 292.7 159.27 292.13 162.61 295.23 163.97 294.07 167.15 296.87 169.05 295.17 171.97 297.59 174.33 295.39 176.9 297.35 179.66 294.73 181.8 296.16 184.86 293.2 186.5 294.07 189.77 290.86 190.85 291.13 194.22 287.78 194.71 287.44 198.08 284.06 197.96 283.13 201.21 279.82 200.49 278.32 203.53 275.19 202.23 273.18 204.95 270.33 203.11 267.86 205.43 265.39 203.11 262.55 204.95 260.53 202.23 257.4 203.53 255.91 200.49 252.6 201.21 251.67 197.96 248.28 198.08 247.95 194.71 244.6 194.22 244.87 190.85 241.66 189.77 242.53 186.5 239.56 184.86 241 181.8 238.37 179.66 240.34 176.9 238.13 174.33 240.56 171.97 238.85 169.05 241.66 167.15 240.5 163.97 243.6 162.61 243.03 159.27 246.32 158.49 246.35 155.1 249.73 154.92 250.37 151.59 253.73 152.01 254.95 148.86 258.18 149.87 259.94 146.98 262.94 148.56 265.19 146.03 267.86 148.11" style="fill:#1952CF"></polygon><circle cx="267.86" cy="175.73" r="25.6" transform="translate(-45.8 240.88) rotate(-45)" style="opacity:0.2"></circle><path d="M255.94,176.69l6-.53s1.1-4.35.42-13.71a11.25,11.25,0,0,1,3.12-.16c1,.22,2.12,10.63,2.12,10.63s10.83-1.49,11.45-1.06c.39.27.59,1.87.69,3a1.38,1.38,0,0,1-1,1.45l-.37.1.21,10.42a1.52,1.52,0,0,1-1.4,1.54l-10.15.81a5,5,0,0,1-2.88-.65l-1.16-.67-6.22.89Z" style="fill:#1952CF"></path><path d="M255.94,176.69l6-.53s1.1-4.35.42-13.71a11.25,11.25,0,0,1,3.12-.16c1,.22,2.12,10.63,2.12,10.63s10.83-1.49,11.45-1.06c.39.27.59,1.87.69,3a1.38,1.38,0,0,1-1,1.45l-.37.1.21,10.42a1.52,1.52,0,0,1-1.4,1.54l-10.15.81a5,5,0,0,1-2.88-.65l-1.16-.67-6.22.89Z" style="fill:#fff;isolation:isolate;opacity:0.7000000000000001"></path></g><g id="freepik--Character--inject-177"><path d="M317.57,203.68,309,199.16l5.1-6.79s6.46,2.32,6.61,8Z" style="fill:#e4897b"></path><polygon points="305.09 193.44 310.11 189.3 314.08 192.37 308.98 199.16 305.09 193.44" style="fill:#e4897b"></polygon><path d="M355.69,190.62a15,15,0,0,0-4.64,1.84,19.38,19.38,0,0,0-3.54,2.77,58.76,58.76,0,0,0-4.77,5.37c-2.77,3.45-5.36,6.86-8,10.28-.46-.28-.93-.6-1.41-.93-.82-.56-1.64-1.18-2.47-1.82-3.29-2.56-6.63-5.41-9.95-8.17l-4.08,3.53a83.47,83.47,0,0,0,8.33,10.81,37.22,37.22,0,0,0,5.46,5,14.26,14.26,0,0,0,2,1.22,8.24,8.24,0,0,0,1.51.58,7,7,0,0,0,2.57.23,6.06,6.06,0,0,0,.92-.17,5.06,5.06,0,0,0,1-.36,5.89,5.89,0,0,0,1.83-1.31l.73-.81,1.12-1.22c3-3.27,5.87-6.65,8.69-9.89,1.4-1.61,2.82-3.2,4.06-4.41a9.48,9.48,0,0,1,1.62-1.32,5.52,5.52,0,0,1,1.44-.61Z" style="fill:#1952CF"></path><path d="M358.16,201.22a5.52,5.52,0,0,0-1.44.62,8.37,8.37,0,0,0-1.62,1.32c-.52.51-1.08,1.09-1.65,1.71-.79.84-1.61,1.77-2.41,2.7-1.77,2-3.58,4.12-5.42,6.21-1.07,1.23-2.17,2.46-3.27,3.67l-1.12,1.23-.73.8a5.87,5.87,0,0,1-1.83,1.32,5.79,5.79,0,0,1-1,.36,6.06,6.06,0,0,1-.92.17,7.2,7.2,0,0,1-2.57-.23,9,9,0,0,1-1.51-.58,14.61,14.61,0,0,1-2-1.23,37.18,37.18,0,0,1-5.46-5,83.47,83.47,0,0,1-8.33-10.81l4.08-3.54c3.31,2.77,6.66,5.62,9.95,8.18.82.64,1.65,1.25,2.47,1.81.47.34,1,.66,1.41.94,2.62-3.43,5.21-6.83,8-10.28a58.81,58.81,0,0,1,4.77-5.38,19.72,19.72,0,0,1,3.53-2.77,15.37,15.37,0,0,1,4.64-1.83Z" style="fill:#fff;opacity:0.7000000000000001"></path><path d="M353.45,204.87c-.79.84-1.61,1.77-2.41,2.7-1.77,2-3.58,4.12-5.42,6.21a15.59,15.59,0,0,1,6.75-11.63A6.82,6.82,0,0,1,353.45,204.87Z" style="opacity:0.1"></path><path d="M395.45,192.91v0a100.8,100.8,0,0,0-4.35,19.84c-.7,5.51-1.11,11-1.33,16.05s-.26,9.78-.23,13.38c.05,4.69.21,7.62.21,7.62H349.43c-5.71-40.85,5.81-59.29,5.81-59.29a75.81,75.81,0,0,1,9.17-1.15c.64,0,1.3-.06,2-.08a141.33,141.33,0,0,1,16.32,1.11c1,.11,2.06.26,3.08.43C390.91,191.67,395.45,192.91,395.45,192.91Z" style="fill:#1952CF"></path><path d="M395.45,192.9s0,0,0,0a74.67,74.67,0,0,0-2.37,8.38c-.68,3-1.23,6.14-1.69,9.29-.1.73-.2,1.45-.29,2.18-.45,3.56-.78,7.12-1,10.54-.13,1.88-.24,3.72-.32,5.5-.13,3.18-.2,6.17-.22,8.83,0,1.65,0,3.18,0,4.55,0,4.7.2,7.63.2,7.63h-40.3c-5.71-40.86,5.81-59.29,5.81-59.29a73.51,73.51,0,0,1,9.16-1.15c.65,0,1.31-.07,2-.08a141.33,141.33,0,0,1,16.32,1.11c1,.11,2.06.26,3.07.42C390.91,191.67,395.45,192.9,395.45,192.9Z" style="fill:#fff;opacity:0.7000000000000001"></path><path d="M319.37,416.77s13.42-4,14.4-9.24a.9.9,0,0,1,1.08-.77l9.75,1.63a1.27,1.27,0,0,1,1,.87l3,9.48-2.75.08-1-1.36-1.16,1.43c-15,.47-21.43.51-24.42-.33C318.74,417.25,319.37,416.77,319.37,416.77Z"></path><path d="M373.4,416.77s13.42-4,14.4-9.24a.91.91,0,0,1,1.09-.77l9.74,1.63a1.24,1.24,0,0,1,1,.87l3,9.48-2.76.08-1-1.36-1.15,1.43c-15,.47-21.43.51-24.43-.33C372.77,417.25,373.4,416.77,373.4,416.77Z"></path><path d="M376.86,251.53h0c-.08.24-2.49,7.8-5.74,18.64l-.56,1.9c-1.53,5.16-3.22,11-4.92,17-2.08,7.37-4.17,15.12-6,22.54-2.67,10.73-4.83,20.77-5.69,28-2.81,23.77-8.28,70.7-8.28,70.7L333,407.11s-2.31-50.82.09-75.1c1.53-15.43,8.39-46.84,12.88-66.36,2.29-10,4-16.91,4-16.91l14.52,1.51Z" style="fill:#263238"></path><path d="M359.62,311.64c3.36-13.52,7.53-28.12,10.93-39.55L367.9,266C361,273.69,358.64,298.23,359.62,311.64Z" style="opacity:0.2"></path><path d="M400.3,409.61l-14,1.36S370.11,363.91,368,339.29c-.9-10.71-1.76-31.43-2.4-50.19-.48-13.74-.84-26.42-1-33.35-.09-3.47-.14-5.5-.14-5.5l12.4,1.29,13.27.41s.62,3.05.44,15.95c-.29,20-1,55.29-.58,74.24C390.49,366.69,400.3,409.61,400.3,409.61Z" style="fill:#263238"></path><path d="M379.24,173.31,369.36,182c1.09,4.07-.52,7.89-2.49,8.65l1.47,4.07,12.21-4.7C377.42,186.78,378.31,178.57,379.24,173.31Z" style="fill:#e4897b"></path><path d="M375.21,176.84l-5.85,5.1a15.94,15.94,0,0,1,.56,2.9c2.24-.34,5.27-2.82,5.47-5.17A8,8,0,0,0,375.21,176.84Z" style="opacity:0.2"></path><path d="M379.55,187.53s-7.57,2.38-8.64,3-2.31,3.64-2.31,3.64.83-3.1.41-4.87-1.17-1.77-1.17-1.77l-1.94,4s-.41,3.43,2.7,3.93,12.59-5.17,12.59-5.17Z" style="fill:#1952CF"></path><path d="M379.55,187.53s-7.57,2.38-8.64,3-2.31,3.64-2.31,3.64.83-3.1.41-4.87-1.17-1.77-1.17-1.77l-1.94,4s-.41,3.43,2.7,3.93,12.59-5.17,12.59-5.17Z" style="fill:#fff;opacity:0.6000000000000001"></path><path d="M361.48,158.78c-1.78,2.11.28,4.8.2,6.86s-.44,4.75,2.21,1.91S364.26,155.86,361.48,158.78Z" style="fill:#263238"></path><path d="M379.93,167.79c-.89,6.88,0,8.05-3.71,11.33-5.62,4.94-14.28,5.41-15.06-1.67-.7-6.38-.59-17.84,6.37-20.08A9.56,9.56,0,0,1,379.93,167.79Z" style="fill:#ff8b7b"></path><path d="M378.91,172.42c-3.1,1.88-4.11-2.49-3.9-2.83.94-1.48.89-2.74-.23-5.57s4.55-6.1,8.68-4.88c3.79,1.13,0,4.09.44,6.56C384.78,170.1,381.42,170.91,378.91,172.42Z" style="fill:#263238"></path><path d="M363.39,175.21a42.73,42.73,0,0,1,7.48-.8c-.61,1.55-1.78,2.85-4.61,3S363.39,175.21,363.39,175.21Z" style="fill:#fff"></path><path d="M382.78,172.62a6.31,6.31,0,0,1-3.41,3.16c-1.9.68-2.8-1.2-2.23-3.24.51-1.84,2.11-4.41,4-4.2S383.68,170.77,382.78,172.62Z" style="fill:#ff8b7b"></path><path d="M371.52,167.94c-.06.58-.33.62-.72.57s-.73-.15-.67-.73.42-1,.81-1S371.58,167.35,371.52,167.94Z" style="fill:#263238"></path><path d="M364.28,167.91c-.06.59-.33.62-.72.58s-.73-.15-.67-.74.43-1,.81-1S364.35,167.32,364.28,167.91Z" style="fill:#263238"></path><path d="M365.42,167.72a16.1,16.1,0,0,1-2.34,3.76,2.63,2.63,0,0,0,2.15.52Z" style="fill:#ff5652"></path><path d="M372.79,165.36a.33.33,0,0,0,.16-.07.35.35,0,0,0,.06-.48,3.46,3.46,0,0,0-2.87-1.39.36.36,0,0,0-.32.38.35.35,0,0,0,.38.31h0a2.81,2.81,0,0,1,2.26,1.12A.33.33,0,0,0,372.79,165.36Z" style="fill:#263238"></path><path d="M360.84,166.54a.35.35,0,0,0,.32-.08,2.67,2.67,0,0,1,2.38-.77.34.34,0,0,0,.41-.26.35.35,0,0,0-.25-.42,3.44,3.44,0,0,0-3,.94.34.34,0,0,0,0,.49A.33.33,0,0,0,360.84,166.54Z" style="fill:#263238"></path><path d="M369.06,160s-5.21,2.31-7.52-2.24,3.88-7.26,3.88-7.26a3.76,3.76,0,0,0,0,3.17s1.05-3.3,5.41-2.24,11.3,2.42,12.73,4.74a3.93,3.93,0,0,1,.33,3.76l-7.12,1.72A5.57,5.57,0,0,0,369.06,160Z" style="fill:#263238"></path><path d="M349,246.39l-.31,7.65,41.92,6.76c0-6.62-1-15.23-1-15.23Z" style="fill:#263238"></path><polygon points="389.33 249.55 390.19 249.53 389.89 246.76 389.13 246.77 389.33 249.55" style="fill:#263238"></polygon><polygon points="357.44 250.1 374.75 249.8 374.56 247.03 357.32 247.33 357.44 250.1" style="fill:#263238"></polygon><polygon points="355.99 247.35 348.67 247.48 348.67 250.25 356.08 250.12 355.99 247.35" style="fill:#263238"></polygon><polygon points="387.79 246.79 375.89 247 376.11 249.78 387.97 249.57 387.79 246.79" style="fill:#263238"></polygon><g style="opacity:0.2"><polygon points="389.33 249.55 390.19 249.53 389.89 246.76 389.13 246.77 389.33 249.55" style="fill:#fff"></polygon><polygon points="357.44 250.1 374.75 249.8 374.56 247.03 357.32 247.33 357.44 250.1" style="fill:#fff"></polygon><polygon points="355.99 247.35 348.67 247.48 348.67 250.25 356.08 250.12 355.99 247.35" style="fill:#fff"></polygon><polygon points="387.79 246.79 375.89 247 376.11 249.78 387.97 249.57 387.79 246.79" style="fill:#fff"></polygon></g><path d="M363.24,250.3a.89.89,0,0,1-.88-.83l-.09-1.69a.87.87,0,0,1,.23-.65.92.92,0,0,1,.63-.28l4.29-.07a.89.89,0,0,1,.89.81l.13,1.76a.9.9,0,0,1-.24.66.86.86,0,0,1-.64.28Zm4.19-2.77h0l-4.29.07a.12.12,0,0,0-.09,0,.13.13,0,0,0,0,.1h0l.09,1.68a.13.13,0,0,0,.13.13h4.32a.12.12,0,0,0,.09,0,.13.13,0,0,0,0-.1l-.13-1.75A.12.12,0,0,0,367.43,247.53Z" style="fill:#fff"></path><path d="M367.41,248.88h-1.32a.38.38,0,1,1,0-.75h1.32a.38.38,0,0,1,0,.75Z" style="fill:#fff"></path><path d="M393.07,201.31c-.68,3-1.23,6.14-1.69,9.29a20.42,20.42,0,0,1-.79-8.45A3.87,3.87,0,0,1,393.07,201.31Z" style="opacity:0.1"></path><path d="M390.07,223.32c-.13,1.88-.24,3.72-.32,5.5-.13,3.18-.2,6.17-.22,8.83-4.22-1.75-11.86-5.21-12.76-7.91-1.25-3.75.82-5.47.82-5.47A100,100,0,0,0,390.07,223.32Z" style="opacity:0.1"></path><path d="M371.61,222.59l-2.13.64a2.35,2.35,0,0,0-1.65,2.52l.32,2.78a2.36,2.36,0,0,0,1.93,2l1.28.23a6.64,6.64,0,0,0,8.28-1.2l.06-4.56-6.6-2.41A2.37,2.37,0,0,0,371.61,222.59Z" style="fill:#e4897b"></path><path d="M377.6,224.9s-2-3.66-2.06-5.87-2,.37-1.05,2a2.05,2.05,0,0,1-.73,2.72Z" style="fill:#e4897b"></path><path d="M407.34,223.89l-.07-.52-.07-.37-.08-.42-.15-.84c-.81-4.5-1.72-9-2.88-13.51a68.62,68.62,0,0,0-2.15-7,27.64,27.64,0,0,0-1.81-3.87,12.2,12.2,0,0,0-1.78-2.39,8.85,8.85,0,0,0-1.69-1.36,8,8,0,0,0-2.5-1,6.58,6.58,0,0,0-3.16,4.74,14.17,14.17,0,0,0-.33,5.58,17.52,17.52,0,0,1,1,2.26c.7,1.82,1.35,3.87,2,5.94,1.24,4.09,2.37,8.33,3.54,12.57-.5.15-1.07.28-1.67.4a28.9,28.9,0,0,1-3,.42c-4.14.42-8.64.48-13,.5l-.83,5.33a66.56,66.56,0,0,0,14,2.48c1.22.06,2.47.09,3.78,0a19.81,19.81,0,0,0,4.21-.58,12,12,0,0,0,2.54-1,8,8,0,0,0,3-2.66,7.18,7.18,0,0,0,1-2.38A7.66,7.66,0,0,0,407.34,223.89Z" style="fill:#1952CF"></path><path d="M407.34,223.89l-.07-.52-.07-.37-.08-.42-.15-.84c-.81-4.5-1.72-9-2.88-13.51a68.62,68.62,0,0,0-2.15-7,27.64,27.64,0,0,0-1.81-3.87,12.2,12.2,0,0,0-1.78-2.39,8.85,8.85,0,0,0-1.69-1.36,8,8,0,0,0-2.5-1,6.58,6.58,0,0,0-3.16,4.74,14.17,14.17,0,0,0-.33,5.58,17.52,17.52,0,0,1,1,2.26c.7,1.82,1.35,3.87,2,5.94,1.24,4.09,2.37,8.33,3.54,12.57-.5.15-1.07.28-1.67.4a28.9,28.9,0,0,1-3,.42c-4.14.42-8.64.48-13,.5l-.83,5.33a66.56,66.56,0,0,0,14,2.48c1.22.06,2.47.09,3.78,0a19.81,19.81,0,0,0,4.21-.58,12,12,0,0,0,2.54-1,8,8,0,0,0,3-2.66,7.18,7.18,0,0,0,1-2.38A7.66,7.66,0,0,0,407.34,223.89Z" style="fill:#fff;opacity:0.7000000000000001"></path></g></svg>
