<?xml version="1.0" encoding="UTF-8"?><svg id="_레이어_1" xmlns="http://www.w3.org/2000/svg" viewBox="0 0 18 22.5"><defs><style>.cls-1{fill:#fff;}</style></defs><path class="cls-1" d="M14.25,22.5H3.75c-2.07,0-3.75-1.68-3.75-3.75v-3c0-.27,.14-.51,.37-.65l3.75-2.25c.82-.37,1.48,.76,.75,1.29l-3.37,2.03v2.57c0,1.24,1.01,2.25,2.25,2.25H14.25c1.24,0,2.25-1.01,2.25-2.25v-2.57l-3.38-2.03c-.41-.18-.56-.68-.34-1.06,.22-.39,.73-.49,1.09-.23l3.75,2.25c.23,.13,.38,.38,.38,.65v3c0,2.07-1.68,3.75-3.75,3.75ZM9,1.5c-4.01,0-6.02,4.85-3.18,7.68,2.84,2.83,7.68,.82,7.68-3.18,0-2.48-2.02-4.5-4.5-4.5Zm0,10.5c-2.43,0-4.61-1.46-5.54-3.7-.93-2.24-.41-4.82,1.3-6.54S9.06-.47,11.3,.46s3.7,3.12,3.7,5.54c0,1.59-.63,3.12-1.76,4.24-1.13,1.12-2.65,1.76-4.24,1.76Z"/></svg>