<svg xmlns="http://www.w3.org/2000/svg" viewBox="0 0 500 500"><g id="freepik--background-complete--inject-1"><rect x="416.78" y="398.49" width="33.12" height="0.25" style="fill:#ebebeb"></rect><rect x="322.53" y="401.21" width="8.69" height="0.25" style="fill:#ebebeb"></rect><rect x="396.59" y="389.21" width="19.19" height="0.25" style="fill:#ebebeb"></rect><rect x="52.46" y="390.89" width="43.19" height="0.25" style="fill:#ebebeb"></rect><rect x="104.56" y="390.89" width="6.33" height="0.25" style="fill:#ebebeb"></rect><rect x="131.47" y="395.11" width="93.68" height="0.25" style="fill:#ebebeb"></rect><path d="M238.4,337.8H45.3a5.71,5.71,0,0,1-5.71-5.71V60.66A5.71,5.71,0,0,1,45.3,55H238.4a5.71,5.71,0,0,1,5.71,5.71V332.09A5.71,5.71,0,0,1,238.4,337.8ZM45.3,55.2a5.47,5.47,0,0,0-5.46,5.46V332.09a5.47,5.47,0,0,0,5.46,5.46H238.4a5.47,5.47,0,0,0,5.46-5.46V60.66a5.47,5.47,0,0,0-5.46-5.46Z" style="fill:#ebebeb"></path><path d="M454.7,337.8H261.6a5.71,5.71,0,0,1-5.71-5.71V60.66A5.71,5.71,0,0,1,261.6,55H454.7a5.71,5.71,0,0,1,5.71,5.71V332.09A5.71,5.71,0,0,1,454.7,337.8ZM261.6,55.2a5.47,5.47,0,0,0-5.46,5.46V332.09a5.47,5.47,0,0,0,5.46,5.46H454.7a5.47,5.47,0,0,0,5.46-5.46V60.66a5.47,5.47,0,0,0-5.46-5.46Z" style="fill:#ebebeb"></path><rect y="382.4" width="500" height="0.25" style="fill:#ebebeb"></rect><path d="M133.86,114.87c8,4.37,24.25,1,40.57,1.31,22.75.41,45.63,2.45,46.54-6.21,2.9-27.65-22.83-6.87-22.83-6.87s-6.17-15.31-18.07-18-16.2,14.09-16.2,14.09-11.4-7.62-17.1-6.68-7.21,10.79-7.21,10.79S117.16,105.76,133.86,114.87Z" style="fill:#f5f5f5"></path><path d="M62.79,119.25c5.48,3,16.62,1.35,27.81,1.56,15.6.28,31.28,1,31.91-4.92,2-19-15.65-4.71-15.65-4.71s-4.24-10.5-12.39-12.32-11.11,9.66-11.11,9.66-7.81-5.22-11.72-4.58-5,7.39-5,7.39S51.34,113,62.79,119.25Z" style="fill:#f5f5f5"></path><circle cx="358.4" cy="107.26" r="21.1" transform="translate(171.67 431.43) rotate(-76.72)" style="fill:#f0f0f0"></circle><rect x="356.67" y="70.35" width="3.46" height="11.25" rx="1.73" style="fill:#f0f0f0"></rect><rect x="356.67" y="132.91" width="3.46" height="11.25" rx="1.73" style="fill:#f0f0f0"></rect><rect x="384.05" y="105.53" width="11.25" height="3.46" rx="1.73" style="fill:#f0f0f0"></rect><rect x="321.49" y="105.53" width="11.25" height="3.46" rx="1.73" style="fill:#f0f0f0"></rect><path d="M337.81,89.12l-5.51-5.51a1.74,1.74,0,0,1,0-2.45h0a1.74,1.74,0,0,1,2.45,0l5.51,5.51a1.73,1.73,0,0,1,0,2.45h0A1.73,1.73,0,0,1,337.81,89.12Z" style="fill:#f0f0f0"></path><path d="M382.05,133.35l-5.51-5.51a1.73,1.73,0,0,1,0-2.45h0a1.73,1.73,0,0,1,2.44,0l5.51,5.51a1.73,1.73,0,0,1,0,2.45h0A1.71,1.71,0,0,1,382.05,133.35Z" style="fill:#f0f0f0"></path><path d="M376.54,89.12h0a1.73,1.73,0,0,1,0-2.45l5.51-5.51a1.73,1.73,0,0,1,2.44,0h0a1.73,1.73,0,0,1,0,2.45L379,89.12A1.71,1.71,0,0,1,376.54,89.12Z" style="fill:#f0f0f0"></path><path d="M332.3,133.35h0a1.74,1.74,0,0,1,0-2.45l5.51-5.51a1.74,1.74,0,0,1,2.45,0h0a1.73,1.73,0,0,1,0,2.45l-5.51,5.51A1.73,1.73,0,0,1,332.3,133.35Z" style="fill:#f0f0f0"></path><path d="M274.07,130.58c4.54,2.48,13.76,1.13,23,1.29,12.9.24,25.89.84,26.41-4.07,1.64-15.69-13-3.9-13-3.9s-3.5-8.69-10.26-10.2-9.19,8-9.19,8-6.47-4.32-9.71-3.79S277.3,124,277.3,124,264.59,125.41,274.07,130.58Z" style="fill:#f5f5f5"></path><path d="M397.48,130.83c2.13,1.17,6.47.53,10.83.61,6.06.11,12.17.39,12.41-1.92.78-7.38-6.09-1.83-6.09-1.83s-1.65-4.09-4.82-4.8-4.32,3.76-4.32,3.76-3.05-2-4.57-1.78-1.92,2.88-1.92,2.88S393,128.4,397.48,130.83Z" style="fill:#f5f5f5"></path><path d="M434.89,337.78s1.71,31.71-3.26,41.75a2,2,0,0,0,1.81,3h11.4a2.06,2.06,0,0,0,1.84-3c-2.26-4.51-5.48-15.54-5.48-41.77Z" style="fill:#e0e0e0"></path><path d="M435.68,356.81c-6.39-.58-20.51-8.42-10.25-23.53,0,0-7.36-16.71,5.78-24.32,0,0-11.3-13.66,3.42-25.37,0,0-3.94-14.59,4.21-15.38s6.31,27.63,6.31,27.63,16.82,17.51,1.57,29.91c0,0,20.46,17.18,1.85,28.35C445.74,355.8,439,357.11,435.68,356.81Z" style="fill:#f0f0f0"></path><path d="M436.88,344.31a2.62,2.62,0,0,1-1.19-1.27c-.74-1.74-2.81-5.71-6.58-6.65-4.87-1.21,2.76-5.72,7.69.42s5.8-3.79,10.1-2.37c3.64,1.19-4,5.57-6.82,9.18a2.56,2.56,0,0,1-3.2.69Z" style="fill:#e0e0e0"></path><path d="M437.26,319.1a1.37,1.37,0,0,1-.63-.67c-.39-.92-1.49-3-3.49-3.53-2.59-.65,1.46-3,4.08.22s3.08-2,5.37-1.26c1.93.63-2.14,3-3.62,4.88a1.37,1.37,0,0,1-1.71.36Z" style="fill:#e0e0e0"></path><path d="M437.46,295a.74.74,0,0,1-.36-.38,3.37,3.37,0,0,0-2-2c-1.46-.36.83-1.72,2.31.13s1.74-1.14,3-.71c1.1.36-1.21,1.67-2,2.76a.77.77,0,0,1-1,.2Z" style="fill:#e0e0e0"></path><path d="M56.58,337.78s1.71,31.71-3.26,41.75a2,2,0,0,0,1.81,3h11.4a2.06,2.06,0,0,0,1.84-3C66.11,375,62.89,364,62.89,337.78Z" style="fill:#e0e0e0"></path><path d="M57.37,356.81c-6.39-.58-20.51-8.42-10.25-23.53,0,0-7.36-16.71,5.78-24.32,0,0-11.3-13.66,3.42-25.37,0,0-3.94-14.59,4.21-15.38s6.31,27.63,6.31,27.63,16.83,17.51,1.58,29.91c0,0,20.45,17.18,1.84,28.35C67.43,355.8,60.65,357.11,57.37,356.81Z" style="fill:#f0f0f0"></path><path d="M58.57,344.31A2.62,2.62,0,0,1,57.38,343c-.74-1.74-2.81-5.71-6.58-6.65-4.87-1.21,2.76-5.72,7.69.42s5.8-3.79,10.1-2.37c3.64,1.19-4,5.57-6.82,9.18a2.56,2.56,0,0,1-3.2.69Z" style="fill:#e0e0e0"></path><path d="M59,319.1a1.37,1.37,0,0,1-.63-.67c-.39-.92-1.49-3-3.49-3.53-2.59-.65,1.46-3,4.08.22s3.08-2,5.37-1.26c1.93.63-2.14,3-3.62,4.88a1.37,1.37,0,0,1-1.71.36Z" style="fill:#e0e0e0"></path><path d="M59.15,295a.74.74,0,0,1-.36-.38,3.37,3.37,0,0,0-2-2c-1.46-.36.83-1.72,2.31.13s1.74-1.14,3-.71c1.1.36-1.21,1.67-2,2.76a.77.77,0,0,1-1,.2Z" style="fill:#e0e0e0"></path></g><g id="freepik--Shadow--inject-1"><ellipse id="freepik--path--inject-1" cx="250" cy="415.69" rx="193.89" ry="11.32" style="fill:#f5f5f5"></ellipse></g><g id="freepik--high-school-building--inject-1"><polygon points="280.17 184.23 280.17 300.19 280.17 313.9 280.17 382.43 429.64 382.43 429.64 313.9 429.64 300.19 429.64 184.23 280.17 184.23" style="fill:#103A9C"></polygon><polygon points="70.25 304.45 70.25 313.9 70.25 382.43 219.73 382.43 219.73 313.9 219.73 304.45 219.73 184.23 70.25 184.23 70.25 304.45" style="fill:#103A9C"></polygon><g style="opacity:0.8"><polygon points="280.17 184.23 280.17 300.19 280.17 313.9 280.17 382.43 429.64 382.43 429.64 313.9 429.64 300.19 429.64 184.23 280.17 184.23" style="fill:#fff"></polygon><polygon points="70.25 304.45 70.25 313.9 70.25 382.43 219.73 382.43 219.73 313.9 219.73 304.45 219.73 184.23 70.25 184.23 70.25 304.45" style="fill:#fff"></polygon></g><polygon points="250.17 187.84 435.68 187.84 408 157.37 250.17 157.37 250.17 187.84" style="fill:#103A9C"></polygon><path d="M392.14,278A12.41,12.41,0,1,1,417,278v31.13H392.14Z" style="opacity:0.30000000000000004"></path><path d="M348.48,278a12.41,12.41,0,1,1,24.81,0v31.13H348.48Z" style="opacity:0.30000000000000004"></path><path d="M304.81,278a12.41,12.41,0,1,1,24.81,0v31.13H304.81Z" style="opacity:0.30000000000000004"></path><path d="M392.14,211.56a12.41,12.41,0,1,1,24.82,0v31.12H392.14Z" style="opacity:0.30000000000000004"></path><path d="M348.48,211.56a12.41,12.41,0,1,1,24.81,0v31.12H348.48Z" style="opacity:0.30000000000000004"></path><path d="M304.81,211.56a12.41,12.41,0,1,1,24.81,0v31.12H304.81Z" style="opacity:0.30000000000000004"></path><polygon points="249.94 187.84 64.21 187.84 91.89 157.37 249.94 157.37 249.94 187.84" style="fill:#103A9C"></polygon><path d="M107.75,278a12.41,12.41,0,1,0-24.82,0v31.13h24.82Z" style="opacity:0.30000000000000004"></path><path d="M151.41,278a12.41,12.41,0,1,0-24.81,0v31.13h24.81Z" style="opacity:0.30000000000000004"></path><path d="M195.08,278a12.41,12.41,0,1,0-24.81,0v31.13h24.81Z" style="opacity:0.30000000000000004"></path><path d="M107.75,211.56a12.41,12.41,0,1,0-24.82,0v31.12h24.82Z" style="opacity:0.30000000000000004"></path><path d="M151.41,211.56a12.41,12.41,0,1,0-24.81,0v31.12h24.81Z" style="opacity:0.30000000000000004"></path><path d="M195.08,211.56a12.41,12.41,0,1,0-24.81,0v31.12h24.81Z" style="opacity:0.30000000000000004"></path><rect x="286.09" y="313.39" width="149.59" height="7.15" transform="translate(721.77 633.93) rotate(180)" style="fill:#263238"></rect><rect x="286.09" y="313.39" width="149.59" height="7.15" transform="translate(721.77 633.93) rotate(180)" style="fill:#fff;opacity:0.5"></rect><rect x="64.21" y="313.39" width="149.59" height="7.15" style="fill:#263238"></rect><rect x="64.21" y="313.39" width="149.59" height="7.15" style="fill:#fff;opacity:0.5"></rect><rect x="286.09" y="247.43" width="149.59" height="7.15" transform="translate(721.77 502.01) rotate(180)" style="fill:#263238"></rect><g style="opacity:0.5"><rect x="286.09" y="247.43" width="149.59" height="7.15" transform="translate(721.77 502.01) rotate(180)" style="fill:#fff"></rect></g><rect x="64.21" y="247.43" width="149.59" height="7.15" style="fill:#263238"></rect><rect x="64.21" y="247.43" width="149.59" height="7.15" style="fill:#fff;opacity:0.5"></rect><polygon points="250.17 115.95 203.62 147.05 203.62 261.68 203.62 268.25 203.62 382.21 296.73 382.21 296.73 268.25 296.73 261.68 296.73 147.05 250.17 115.95" style="fill:#103A9C"></polygon><polygon points="250.17 115.95 203.62 147.05 203.62 261.68 203.62 268.25 203.62 382.21 296.73 382.21 296.73 268.25 296.73 261.68 296.73 147.05 250.17 115.95" style="fill:#fff;opacity:0.7000000000000001"></polygon><path d="M199,152.21h0a5.28,5.28,0,0,1,1.47-7.25l49.73-33.22L299.91,145a5.29,5.29,0,0,1,1.47,7.25h0a5.11,5.11,0,0,1-7.13,1.5l-44.08-29.45-44.08,29.45A5.1,5.1,0,0,1,199,152.21Z" style="fill:#103A9C"></path><rect x="199.59" y="265.08" width="101.16" height="7.15" style="fill:#103A9C"></rect><rect x="199.59" y="265.08" width="101.16" height="7.15" style="fill:#fff;opacity:0.30000000000000004"></rect><g style="opacity:0.30000000000000004"><rect x="228.81" y="338.26" width="19.09" height="18.22"></rect><rect x="251.65" y="338.26" width="19.66" height="18.22"></rect><path d="M251.65,334.45h19.66V328.9a21.45,21.45,0,0,0-19.66-21.53Z"></path><rect x="228.81" y="360.29" width="19.09" height="21.91"></rect><path d="M247.9,334.45v-27a21.47,21.47,0,0,0-19.09,21.49v5.55Z"></path><rect x="251.65" y="360.29" width="19.66" height="21.91"></rect></g><g style="opacity:0.30000000000000004"><rect x="231.3" y="226.22" width="16.77" height="16"></rect><rect x="251.36" y="226.22" width="17.27" height="16"></rect><path d="M251.36,222.87h17.27V218a18.85,18.85,0,0,0-17.27-18.92Z"></path><rect x="231.3" y="245.57" width="16.77" height="19.25"></rect><path d="M248.07,222.87V199.12A18.87,18.87,0,0,0,231.3,218v4.87Z"></path><rect x="251.36" y="245.57" width="17.27" height="19.25"></rect></g><ellipse cx="250.39" cy="152.89" rx="18.06" ry="18.36" style="fill:#103A9C"></ellipse><ellipse cx="250.39" cy="152.89" rx="14.69" ry="14.94" style="fill:#fff;opacity:0.9"></ellipse><g style="opacity:0.9"><path d="M302.73,209a149.21,149.21,0,0,0-105.57,0,6.24,6.24,0,0,1-8-3.52l-4.76-11.68a6.4,6.4,0,0,1,3.58-8.41,173.57,173.57,0,0,1,123.93,0,6.41,6.41,0,0,1,3.58,8.41l-4.76,11.68A6.24,6.24,0,0,1,302.73,209Z" style="fill:#103A9C"></path></g><path d="M302.73,205.63a149.15,149.15,0,0,0-105.57,0,6.24,6.24,0,0,1-8-3.52l-4.76-11.68A6.4,6.4,0,0,1,188,182a173.57,173.57,0,0,1,123.93,0,6.4,6.4,0,0,1,3.58,8.41l-4.76,11.68A6.24,6.24,0,0,1,302.73,205.63Z" style="fill:#103A9C"></path><g style="opacity:0.9"><path d="M302.73,205.63a149.15,149.15,0,0,0-105.57,0,6.24,6.24,0,0,1-8-3.52l-4.76-11.68A6.4,6.4,0,0,1,188,182a173.57,173.57,0,0,1,123.93,0,6.4,6.4,0,0,1,3.58,8.41l-4.76,11.68A6.24,6.24,0,0,1,302.73,205.63Z" style="fill:#fff"></path></g><path d="M206,185.15l2.82,9.57-2.18.66-1.15-3.92-4.28,1.3,1.16,3.93-2.18.66-2.82-9.57,2.17-.66,1.12,3.77,4.27-1.3-1.11-3.77Z" style="fill:#103A9C"></path><path d="M208.65,184.51l2.21-.56,2.36,9.7-2.21.55Z" style="fill:#103A9C"></path><path d="M220.88,186.73l2-.41.77,4a6.09,6.09,0,0,1-1.64,1.29,7.06,7.06,0,0,1-2,.74,5.61,5.61,0,0,1-2.83-.12,4.92,4.92,0,0,1-2.23-1.42,5.43,5.43,0,0,1-1-5.23,4.85,4.85,0,0,1,1.54-2.18,5.78,5.78,0,0,1,2.6-1.2,6,6,0,0,1,2.39,0,4.74,4.74,0,0,1,2,.92l-1.17,1.63a3.37,3.37,0,0,0-2.71-.61,3.31,3.31,0,0,0-1.56.72,2.92,2.92,0,0,0-.91,1.33,3.41,3.41,0,0,0-.08,1.72,3.29,3.29,0,0,0,.72,1.54,2.9,2.9,0,0,0,1.32.89,3.34,3.34,0,0,0,1.7.08,3.71,3.71,0,0,0,1.65-.77Z" style="fill:#103A9C"></path><path d="M233.54,180l1.23,9.91-2.26.29-.5-4.06-4.43.57.5,4.06-2.26.29-1.22-9.91,2.25-.29.49,3.91,4.43-.57-.49-3.91Z" style="fill:#103A9C"></path><path d="M241.84,189.28a5.45,5.45,0,0,1-1.78-.77l.71-1.77a5.13,5.13,0,0,0,1.53.7,5.57,5.57,0,0,0,1.75.22,2.74,2.74,0,0,0,1.42-.35.86.86,0,0,0,.43-.79.71.71,0,0,0-.29-.58,2.05,2.05,0,0,0-.71-.35c-.29-.09-.68-.18-1.17-.28a15.51,15.51,0,0,1-1.86-.47,3.06,3.06,0,0,1-1.26-.82,2.34,2.34,0,0,1-.57-1.58,2.75,2.75,0,0,1,.41-1.59,3.07,3.07,0,0,1,1.35-1.17,5.56,5.56,0,0,1,2.27-.5,7.09,7.09,0,0,1,1.84.16,5.32,5.32,0,0,1,1.6.59l-.64,1.78a5.54,5.54,0,0,0-2.75-.68,2.58,2.58,0,0,0-1.4.37,1,1,0,0,0-.43.84.82.82,0,0,0,.56.74,7.9,7.9,0,0,0,1.62.44,15.51,15.51,0,0,1,1.86.47,3,3,0,0,1,1.26.81,2.38,2.38,0,0,1,.57,1.56,2.74,2.74,0,0,1-.42,1.58,3.07,3.07,0,0,1-1.37,1.17,5.56,5.56,0,0,1-2.27.5A8.12,8.12,0,0,1,241.84,189.28Z" style="fill:#103A9C"></path><path d="M251.68,188.74a5.06,5.06,0,0,1-1.87-1.89,5.23,5.23,0,0,1-.63-2.68,5,5,0,0,1,.76-2.64,4.9,4.9,0,0,1,1.95-1.8,5.54,5.54,0,0,1,2.74-.59,5.67,5.67,0,0,1,2.3.51,4.6,4.6,0,0,1,1.7,1.35l-1.49,1.34a3.1,3.1,0,0,0-2.44-1.23,3.27,3.27,0,0,0-1.64.36,2.9,2.9,0,0,0-1.14,1.11,3.33,3.33,0,0,0-.44,1.65,3.46,3.46,0,0,0,.36,1.66,2.9,2.9,0,0,0,1.09,1.16,3.22,3.22,0,0,0,1.62.45,3.12,3.12,0,0,0,2.5-1.13l1.42,1.41a4.44,4.44,0,0,1-1.77,1.28,5.64,5.64,0,0,1-2.32.4A5.55,5.55,0,0,1,251.68,188.74Z" style="fill:#103A9C"></path><path d="M269.69,180.37l-.9,9.95-2.27-.21.37-4.08-4.44-.42-.37,4.08-2.27-.21.9-9.95,2.27.22-.36,3.92,4.45.41.35-3.92Z" style="fill:#103A9C"></path><path d="M273,190.43a5,5,0,0,1-1.6-2.14,5.4,5.4,0,0,1,.85-5.23,5,5,0,0,1,2.2-1.5,5.59,5.59,0,0,1,2.83-.2,5.71,5.71,0,0,1,2.6,1.11,5.06,5.06,0,0,1,1.6,2.15,5,5,0,0,1,.27,2.72,5.07,5.07,0,0,1-1.12,2.5,4.9,4.9,0,0,1-2.19,1.5,5.56,5.56,0,0,1-2.82.21A5.69,5.69,0,0,1,273,190.43Zm4.55-1a2.94,2.94,0,0,0,1.27-.94,3.63,3.63,0,0,0,.53-3.27,3,3,0,0,0-.91-1.3,3.13,3.13,0,0,0-1.48-.66,3.05,3.05,0,0,0-1.62.14,2.87,2.87,0,0,0-1.27.94,3.34,3.34,0,0,0-.66,1.56,3.44,3.44,0,0,0,.13,1.7,2.93,2.93,0,0,0,.91,1.3,3,3,0,0,0,1.48.67A3.27,3.27,0,0,0,277.53,189.47Z" style="fill:#103A9C"></path><path d="M284.5,192.6a5,5,0,0,1-1.44-2.25,5.39,5.39,0,0,1,1.23-5.15,4.89,4.89,0,0,1,2.3-1.33,5.54,5.54,0,0,1,2.83,0,5.64,5.64,0,0,1,2.52,1.31,5,5,0,0,1,1.44,2.25,5.08,5.08,0,0,1,.07,2.74,5,5,0,0,1-1.3,2.41,4.91,4.91,0,0,1-2.29,1.33,5.65,5.65,0,0,1-2.83,0A5.79,5.79,0,0,1,284.5,192.6Zm4.61-.62a2.85,2.85,0,0,0,1.33-.84,3.29,3.29,0,0,0,.77-1.51,3.37,3.37,0,0,0,0-1.7,3,3,0,0,0-.81-1.37,3.16,3.16,0,0,0-1.43-.77,3.1,3.1,0,0,0-1.63,0,2.81,2.81,0,0,0-1.33.84,3.63,3.63,0,0,0-.77,3.21,2.94,2.94,0,0,0,.81,1.37,3.07,3.07,0,0,0,1.43.77A3,3,0,0,0,289.11,192Z" style="fill:#103A9C"></path><path d="M296.69,186l2.17.68-2.36,7.74,4.7,1.49-.54,1.8-6.88-2.17Z" style="fill:#103A9C"></path><g style="opacity:0.30000000000000004"><path d="M206,185.15l2.82,9.57-2.18.66-1.15-3.92-4.28,1.3,1.16,3.93-2.18.66-2.82-9.57,2.17-.66,1.12,3.77,4.27-1.3-1.11-3.77Z"></path><path d="M208.65,184.51l2.21-.56,2.36,9.7-2.21.55Z"></path><path d="M220.88,186.73l2-.41.77,4a6.09,6.09,0,0,1-1.64,1.29,7.06,7.06,0,0,1-2,.74,5.61,5.61,0,0,1-2.83-.12,4.92,4.92,0,0,1-2.23-1.42,5.43,5.43,0,0,1-1-5.23,4.85,4.85,0,0,1,1.54-2.18,5.78,5.78,0,0,1,2.6-1.2,6,6,0,0,1,2.39,0,4.74,4.74,0,0,1,2,.92l-1.17,1.63a3.37,3.37,0,0,0-2.71-.61,3.31,3.31,0,0,0-1.56.72,2.92,2.92,0,0,0-.91,1.33,3.41,3.41,0,0,0-.08,1.72,3.29,3.29,0,0,0,.72,1.54,2.9,2.9,0,0,0,1.32.89,3.34,3.34,0,0,0,1.7.08,3.71,3.71,0,0,0,1.65-.77Z"></path><path d="M233.54,180l1.23,9.91-2.26.29-.5-4.06-4.43.57.5,4.06-2.26.29-1.22-9.91,2.25-.29.49,3.91,4.43-.57-.49-3.91Z"></path><path d="M241.84,189.28a5.45,5.45,0,0,1-1.78-.77l.71-1.77a5.13,5.13,0,0,0,1.53.7,5.57,5.57,0,0,0,1.75.22,2.74,2.74,0,0,0,1.42-.35.86.86,0,0,0,.43-.79.71.71,0,0,0-.29-.58,2.05,2.05,0,0,0-.71-.35c-.29-.09-.68-.18-1.17-.28a15.51,15.51,0,0,1-1.86-.47,3.06,3.06,0,0,1-1.26-.82,2.34,2.34,0,0,1-.57-1.58,2.75,2.75,0,0,1,.41-1.59,3.07,3.07,0,0,1,1.35-1.17,5.56,5.56,0,0,1,2.27-.5,7.09,7.09,0,0,1,1.84.16,5.32,5.32,0,0,1,1.6.59l-.64,1.78a5.54,5.54,0,0,0-2.75-.68,2.58,2.58,0,0,0-1.4.37,1,1,0,0,0-.43.84.82.82,0,0,0,.56.74,7.9,7.9,0,0,0,1.62.44,15.51,15.51,0,0,1,1.86.47,3,3,0,0,1,1.26.81,2.38,2.38,0,0,1,.57,1.56,2.74,2.74,0,0,1-.42,1.58,3.07,3.07,0,0,1-1.37,1.17,5.56,5.56,0,0,1-2.27.5A8.12,8.12,0,0,1,241.84,189.28Z"></path><path d="M251.68,188.74a5.06,5.06,0,0,1-1.87-1.89,5.23,5.23,0,0,1-.63-2.68,5,5,0,0,1,.76-2.64,4.9,4.9,0,0,1,1.95-1.8,5.54,5.54,0,0,1,2.74-.59,5.67,5.67,0,0,1,2.3.51,4.6,4.6,0,0,1,1.7,1.35l-1.49,1.34a3.1,3.1,0,0,0-2.44-1.23,3.27,3.27,0,0,0-1.64.36,2.9,2.9,0,0,0-1.14,1.11,3.33,3.33,0,0,0-.44,1.65,3.46,3.46,0,0,0,.36,1.66,2.9,2.9,0,0,0,1.09,1.16,3.22,3.22,0,0,0,1.62.45,3.12,3.12,0,0,0,2.5-1.13l1.42,1.41a4.44,4.44,0,0,1-1.77,1.28,5.64,5.64,0,0,1-2.32.4A5.55,5.55,0,0,1,251.68,188.74Z"></path><path d="M269.69,180.37l-.9,9.95-2.27-.21.37-4.08-4.44-.42-.37,4.08-2.27-.21.9-9.95,2.27.22-.36,3.92,4.45.41.35-3.92Z"></path><path d="M273,190.43a5,5,0,0,1-1.6-2.14,5.4,5.4,0,0,1,.85-5.23,5,5,0,0,1,2.2-1.5,5.59,5.59,0,0,1,2.83-.2,5.71,5.71,0,0,1,2.6,1.11,5.06,5.06,0,0,1,1.6,2.15,5,5,0,0,1,.27,2.72,5.07,5.07,0,0,1-1.12,2.5,4.9,4.9,0,0,1-2.19,1.5,5.56,5.56,0,0,1-2.82.21A5.69,5.69,0,0,1,273,190.43Zm4.55-1a2.94,2.94,0,0,0,1.27-.94,3.63,3.63,0,0,0,.53-3.27,3,3,0,0,0-.91-1.3,3.13,3.13,0,0,0-1.48-.66,3.05,3.05,0,0,0-1.62.14,2.87,2.87,0,0,0-1.27.94,3.34,3.34,0,0,0-.66,1.56,3.44,3.44,0,0,0,.13,1.7,2.93,2.93,0,0,0,.91,1.3,3,3,0,0,0,1.48.67A3.27,3.27,0,0,0,277.53,189.47Z"></path><path d="M284.5,192.6a5,5,0,0,1-1.44-2.25,5.39,5.39,0,0,1,1.23-5.15,4.89,4.89,0,0,1,2.3-1.33,5.54,5.54,0,0,1,2.83,0,5.64,5.64,0,0,1,2.52,1.31,5,5,0,0,1,1.44,2.25,5.08,5.08,0,0,1,.07,2.74,5,5,0,0,1-1.3,2.41,4.91,4.91,0,0,1-2.29,1.33,5.65,5.65,0,0,1-2.83,0A5.79,5.79,0,0,1,284.5,192.6Zm4.61-.62a2.85,2.85,0,0,0,1.33-.84,3.29,3.29,0,0,0,.77-1.51,3.37,3.37,0,0,0,0-1.7,3,3,0,0,0-.81-1.37,3.16,3.16,0,0,0-1.43-.77,3.1,3.1,0,0,0-1.63,0,2.81,2.81,0,0,0-1.33.84,3.63,3.63,0,0,0-.77,3.21,2.94,2.94,0,0,0,.81,1.37,3.07,3.07,0,0,0,1.43.77A3,3,0,0,0,289.11,192Z"></path><path d="M296.69,186l2.17.68-2.36,7.74,4.7,1.49-.54,1.8-6.88-2.17Z"></path></g><path d="M392.14,347A12.41,12.41,0,1,1,417,347v31.12H392.14Z" style="opacity:0.30000000000000004"></path><path d="M348.48,347a12.41,12.41,0,1,1,24.81,0v31.12H348.48Z" style="opacity:0.30000000000000004"></path><path d="M304.81,347a12.41,12.41,0,1,1,24.81,0v31.12H304.81Z" style="opacity:0.30000000000000004"></path><path d="M107.75,347a12.41,12.41,0,1,0-24.82,0v31.12h24.82Z" style="opacity:0.30000000000000004"></path><path d="M151.41,347a12.41,12.41,0,1,0-24.81,0v31.12h24.81Z" style="opacity:0.30000000000000004"></path><path d="M195.08,347a12.41,12.41,0,1,0-24.81,0v31.12h24.81Z" style="opacity:0.30000000000000004"></path><path d="M250.66,156.17h0a1.56,1.56,0,0,0,1.54-1.67l-.76-11.85a.79.79,0,0,0-.78-.74h0a.79.79,0,0,0-.79.74l-.76,11.85A1.56,1.56,0,0,0,250.66,156.17Z" style="fill:#103A9C"></path><path d="M252.3,154.6h0c0-.91-.49-1.62-1.08-1.56l-7.66.77c-.27,0-.48.37-.48.79h0c0,.42.21.77.48.8l7.66.77C251.81,156.23,252.3,155.51,252.3,154.6Z" style="fill:#103A9C"></path></g><g id="freepik--character-4--inject-1"><path d="M375.4,240.71a3.93,3.93,0,0,0-5.08,2.28l0,0c-.73,1.93-1.48,4-2.26,5.92s-1.58,3.93-2.39,5.86-1.68,3.84-2.59,5.66c-.45.9-.93,1.79-1.41,2.61-.28.47-.56.92-.84,1.33-.27-.35-.53-.73-.79-1.13-.64-1-1.25-2.09-1.85-3.21s-1.18-2.29-1.76-3.4l0-.07a2,2,0,0,0-3.72,1.16c.18,1.41.47,2.73.78,4.09a34,34,0,0,0,1.27,4.07,22.21,22.21,0,0,0,1,2.08,10.82,10.82,0,0,0,1.53,2.22,6.87,6.87,0,0,0,1.44,1.22,5,5,0,0,0,5.67-.29,7,7,0,0,0,1.16-1.12,31.15,31.15,0,0,0,4.22-6c1.15-2,2.15-4,3.09-6s1.82-4.06,2.65-6.11,1.6-4.09,2.32-6.25A3.94,3.94,0,0,0,375.4,240.71Z" style="fill:#ffb573"></path><polygon points="376.43 412.44 370.19 411.27 371.05 400.02 377.81 401.29 376.43 412.44" style="fill:#103A9C"></polygon><polygon points="376.43 412.44 370.19 411.27 371.05 400.02 377.81 401.29 376.43 412.44" style="fill:#fff;opacity:0.5"></polygon><path d="M370.76,409.68l5.77.77a.39.39,0,0,1,.33.44l-.39,5.08a1,1,0,0,1-1,.89c-2-.31-2.94-.57-5.48-.91-1.56-.2-8.22-.91-10.37-1.2s-1.78-2.63-.84-2.72c4.22-.41,9.47-1,11.09-2.12A1.38,1.38,0,0,1,370.76,409.68Z" style="fill:#263238"></path><polygon points="420.72 409.1 414.46 410.17 411.37 399.32 418.15 398.16 420.72 409.1" style="fill:#103A9C"></polygon><polygon points="420.72 409.1 414.46 410.17 411.37 399.32 418.15 398.16 420.72 409.1" style="fill:#fff;opacity:0.5"></polygon><path d="M414.45,408.48l5.67-1.28a.39.39,0,0,1,.46.3l1.4,4.9a1,1,0,0,1-.66,1.19c-2,.41-3,.49-5.46,1.05-1.53.35-8,2-10.14,2.47s-2.58-1.85-1.73-2.26c3.81-1.85,8.52-4.27,9.66-5.83A1.42,1.42,0,0,1,414.45,408.48Z" style="fill:#263238"></path><path d="M372.45,288.92s-1,40.12-.89,54.07c.08,15.27-2.21,60.22-2.21,60.22l10.53,1.25s7.11-44.09,8.68-59.12c1.72-16.31,4.38-58.65,4.38-58.65Z" style="fill:#103A9C"></path><path d="M387.66,303.68c-2.52,8.75-.53,22.95,2.08,28.57.79-9.79,1.6-21.48,2.21-30.57C390.8,299.5,389.19,298.35,387.66,303.68Z" style="opacity:0.2"></path><path d="M379.58,404.53l-10.1-1.19a.74.74,0,0,1-.66-.66l-.25-2.14a.77.77,0,0,1,.88-.84l10.91,1.89a.77.77,0,0,1,.58,1l-.57,1.44A.75.75,0,0,1,379.58,404.53Z" style="fill:#103A9C"></path><path d="M383.61,287.46s5.82,36.92,9.13,50.64c3.63,15,17.38,64.56,17.38,64.56l10.5-1.14s-11.85-59-13.4-78.87c-.34-4.33-.32-8.84-.86-13.19-.66-5.35-2.08-12-2.58-16.14a35.58,35.58,0,0,1-.39-8Z" style="fill:#103A9C"></path><path d="M420.17,401.57l-9.92,1.08a.74.74,0,0,1-.75-.47l-.68-1.86a.71.71,0,0,1,.62-1l10.58-.71a1,1,0,0,1,1.06,1l0,.93A1,1,0,0,1,420.17,401.57Z" style="fill:#103A9C"></path><path d="M372,237.77c-5.19,3.77-6.42,15-6.42,15l9.32,5.34a14.61,14.61,0,0,0,4.79-8.8C380,247.46,377.31,233.94,372,237.77Z" style="fill:#103A9C"></path><g style="opacity:0.6000000000000001"><path d="M372,237.77c-5.19,3.77-6.42,15-6.42,15l9.32,5.34a14.61,14.61,0,0,0,4.79-8.8C380,247.46,377.31,233.94,372,237.77Z" style="fill:#fff"></path></g><path d="M375.2,236.35a65.22,65.22,0,0,1,18.69-1,8,8,0,0,1,7.18,6.11c1.84,7.87,4.32,23.57,3.23,48.33-2.85,1.2-31.16,1.16-32.07.34-2.24-4.28-4.39-15.45-.35-26-.47-6-2.26-12.74-2.92-19.21A8,8,0,0,1,375.2,236.35Z" style="fill:#103A9C"></path><path d="M375.2,236.35a65.22,65.22,0,0,1,18.69-1,8,8,0,0,1,7.18,6.11c1.84,7.87,4.32,23.57,3.23,48.33-2.85,1.2-31.16,1.16-32.07.34-2.24-4.28-4.39-15.45-.35-26-.47-6-2.26-12.74-2.92-19.21A8,8,0,0,1,375.2,236.35Z" style="fill:#fff;opacity:0.4"></path><path d="M412.08,266.29l-.1-.87c-.08-.58-.16-1.16-.28-1.71a49.44,49.44,0,0,0-4.43-12.22c-.95-1.89-1.95-3.73-3-5.52s-2.18-3.51-3.49-5.29a3.94,3.94,0,0,0-6.44,4.53l0,.08c1,1.5,2.11,3.17,3.09,4.8s2,3.32,2.87,5a48.78,48.78,0,0,1,4.3,10.21c.12.42.2.84.3,1.25l.11.62c0,.14,0,.09,0,.12h0s0,0,0,0a.66.66,0,0,1-.19.36,5.44,5.44,0,0,1-1.53,1.17,15.47,15.47,0,0,1-2.31,1.08,44.34,44.34,0,0,1-5.37,1.65c-1.87.47-3.82.86-5.7,1.21h-.09a2,2,0,0,0,.25,3.89,44.61,44.61,0,0,0,12.7-.94,22.11,22.11,0,0,0,3.33-1.07,12.53,12.53,0,0,0,3.47-2.15,8.12,8.12,0,0,0,1.61-2,7,7,0,0,0,.84-2.85,6,6,0,0,0,0-.73C412.11,266.7,412.1,266.4,412.08,266.29Z" style="fill:#ffb573"></path><path d="M395.87,235.78c6.29,1.3,12.27,13.64,12.27,13.64l-8.62,6.88s-3.91-1.25-6.74-6.63C391.93,248,389.48,234.47,395.87,235.78Z" style="fill:#103A9C"></path><g style="opacity:0.6000000000000001"><path d="M395.87,235.78c6.29,1.3,12.27,13.64,12.27,13.64l-8.62,6.88s-3.91-1.25-6.74-6.63C391.93,248,389.48,234.47,395.87,235.78Z" style="fill:#fff"></path></g><path d="M403.91,288.86c-12.26,1.27-26.86.57-32,.25a.53.53,0,0,0-.54.68l.4,1.34a.52.52,0,0,0,.47.37c3.09.18,8.78.46,15.29.46,5.26,0,11-.19,16.41-.73a.59.59,0,0,0,.53-.58,6,6,0,0,1,.09-1.11A.58.58,0,0,0,403.91,288.86Z" style="fill:#263238"></path><path d="M386.8,292.58h-2.9v-.68h2.9a.29.29,0,0,0,.29-.29v-1.79a.29.29,0,0,0-.29-.29h-2.9v-.68h2.9a1,1,0,0,1,1,1v1.79A1,1,0,0,1,386.8,292.58Z" style="fill:#263238"></path><g style="opacity:0.6000000000000001"><path d="M386.8,292.58h-2.9v-.68h2.9a.29.29,0,0,0,.29-.29v-1.79a.29.29,0,0,0-.29-.29h-2.9v-.68h2.9a1,1,0,0,1,1,1v1.79A1,1,0,0,1,386.8,292.58Z" style="fill:#fff"></path></g><path d="M383,241.05l-.91.53-1.3-.7s-1.61,10.35.59,10.54C383.13,251.58,381.75,246.06,383,241.05Z" style="fill:#103A9C"></path><path d="M383,241.05l-.91.53-1.3-.7s-1.61,10.35.59,10.54C383.13,251.58,381.75,246.06,383,241.05Z" style="fill:#fff;opacity:0.8"></path><path d="M374.2,229s-10.34-8.52-3.57-18.3c5.31-7.69,11.53-3.58,11.53-3.58s11.17-1.47,11.13,10.54c0,11.65-8.43,11.7-8.43,11.7Z" style="fill:#263238"></path><path d="M385.46,225.27c.56,4.15,1.4,8.95,4.33,11.3a8.75,8.75,0,0,1-7.87,5.64c-4.43.23-3.75-3.31-3-5.18,1.88-2.12,1-4.47.5-6.14Z" style="fill:#ffb573"></path><path d="M384.24,227.3c0-.27-.07-.53-.12-.79l-4.71,4.38a10.2,10.2,0,0,1,.63,3.54C382.38,232.86,384.52,229.81,384.24,227.3Z" style="opacity:0.2"></path><path d="M387.41,219.14c-.73,5.75-.87,9.16-4,11.91-4.69,4.13-11.65.95-12.65-4.92-.91-5.28.44-13.8,6.25-15.68A8,8,0,0,1,387.41,219.14Z" style="fill:#ffb573"></path><path d="M375.52,227.2a4.25,4.25,0,0,1-.84-.08.15.15,0,0,1-.12-.17.15.15,0,0,1,.17-.12,3.91,3.91,0,0,0,3.45-1,.14.14,0,0,1,.21,0,.13.13,0,0,1,0,.2A4,4,0,0,1,375.52,227.2Z" style="fill:#263238"></path><path d="M378.2,220.3c0,.47-.31.83-.61.81s-.54-.43-.51-.9.31-.83.62-.81S378.23,219.83,378.2,220.3Z" style="fill:#263238"></path><path d="M372.32,220c0,.47-.31.83-.62.81s-.53-.42-.5-.89.31-.84.62-.81S372.35,219.57,372.32,220Z" style="fill:#263238"></path><path d="M374,220.64a16.64,16.64,0,0,1-2.75,3.69,2.73,2.73,0,0,0,2.18.73Z" style="fill:#ed893e"></path><path d="M379.26,217.16a.23.23,0,0,0,.14,0,.27.27,0,0,0,.08-.38,2.79,2.79,0,0,0-2.18-1.31.27.27,0,0,0-.27.28.27.27,0,0,0,.27.27h0A2.22,2.22,0,0,1,379,217,.27.27,0,0,0,379.26,217.16Z" style="fill:#263238"></path><path d="M370.53,217.64a.26.26,0,0,0,.25-.07,2.16,2.16,0,0,1,1.87-.7.27.27,0,0,0,.32-.22.27.27,0,0,0-.22-.32,2.71,2.71,0,0,0-2.37.85.27.27,0,0,0,0,.39A.27.27,0,0,0,370.53,217.64Z" style="fill:#263238"></path><path d="M388.23,234.52c.14,1.27-1.38,5.78-6.7,7.7,2.05,0,6,2.62,6,2.62s4-3.76,3.2-8.3A2.51,2.51,0,0,0,388.23,234.52Z" style="fill:#103A9C"></path><path d="M379.88,234.87c.13,1.24-1.31,3.85,1.65,7.35-2.06,0-5.55,2.06-5.55,2.06a16.68,16.68,0,0,1,1.68-8.39A4,4,0,0,1,379.88,234.87Z" style="fill:#103A9C"></path><g style="opacity:0.9"><path d="M388.23,234.52c.14,1.27-1.38,5.78-6.7,7.7,2.05,0,6,2.62,6,2.62s4-3.76,3.2-8.3A2.51,2.51,0,0,0,388.23,234.52Z" style="fill:#fff"></path><path d="M379.88,234.87c.13,1.24-1.31,3.85,1.65,7.35-2.06,0-5.55,2.06-5.55,2.06a16.68,16.68,0,0,1,1.68-8.39A4,4,0,0,1,379.88,234.87Z" style="fill:#fff"></path></g><path d="M375.23,205.05l.09.21c4.72-2.27,6.93,2.62,6.93,2.62C382.18,200.81,377.5,203.38,375.23,205.05Z" style="fill:#263238"></path><path d="M388.4,211.67l-4.32-2.19-3.08-.63-2-.57s-6.11-.11-8.48,6.72a9.08,9.08,0,0,1,3.63-.7,6.25,6.25,0,0,1,2.12-2.71,6.24,6.24,0,0,0-1.08,2.74,20.15,20.15,0,0,1,8.5,2.64l.57-3a43.39,43.39,0,0,1,.31,5.4,28.33,28.33,0,0,0,.38,5l3-.79,2.26-8.18Z" style="fill:#263238"></path><path d="M369.11,220.43a2.33,2.33,0,1,0,4.53.17v-.11a1.08,1.08,0,0,1,1.44,0s0,.08,0,.12a2.84,2.84,0,0,0,5.66.4l6.55,1.09,0-.35-6.55-1.09a2.84,2.84,0,0,0-5.61-.57,1.44,1.44,0,0,0-1.52-.06,2.48,2.48,0,0,0-2.13-2.4A2.61,2.61,0,0,0,369.11,220.43Zm6.31.24a2.49,2.49,0,1,1,2.4,2.59A2.49,2.49,0,0,1,375.42,220.67Zm-6-.23c.06-1.37,1-2.46,2-2.42a2.58,2.58,0,1,1-2,2.42Z" style="fill:#103A9C"></path><path d="M389,225.14a5.43,5.43,0,0,1-3.44,2.4c-1.89.4-2.73-1.32-2.11-3,.55-1.55,2.21-3.62,4.06-3.25A2.49,2.49,0,0,1,389,225.14Z" style="fill:#ffb573"></path><path d="M354.56,254h31.72v-6.61H354.55A25.66,25.66,0,0,1,354.56,254Z" style="fill:#103A9C"></path><path d="M354.56,254h31.72v-6.61H354.55A25.66,25.66,0,0,1,354.56,254Z" style="fill:#fff;opacity:0.7000000000000001"></path><path d="M380.5,247h10l.1.1a5.08,5.08,0,0,1,0,7.19l-.1.1h-10l.59-.59a4.38,4.38,0,0,0,0-6.21Z" style="fill:#103A9C"></path><g style="opacity:0.30000000000000004"><path d="M380.5,247h10l.1.1a5.08,5.08,0,0,1,0,7.19l-.1.1h-10l.59-.59a4.38,4.38,0,0,0,0-6.21Z"></path></g><path d="M354.24,247h26.92l0,0a5.24,5.24,0,0,1,1.56,3.48,5,5,0,0,1-1.49,3.78l-.1.1H354.24a.35.35,0,0,1-.35-.35h0a.35.35,0,0,1,.35-.35h26.63a4.38,4.38,0,0,0,0-6H354.24a.35.35,0,0,1-.35-.34h0A.35.35,0,0,1,354.24,247Z" style="fill:#103A9C"></path><path d="M356.72,267.31h28.54v-5.95H356.71A23.23,23.23,0,0,1,356.72,267.31Z" style="fill:#103A9C"></path><path d="M356.72,267.31h28.54v-5.95H356.71A23.23,23.23,0,0,1,356.72,267.31Z" style="fill:#fff;opacity:0.8"></path><path d="M380.06,261h9l.09.1a4.57,4.57,0,0,1,0,6.47l-.09.09h-9l.53-.54a3.94,3.94,0,0,0,0-5.58Z" style="fill:#263238"></path><path d="M356.42,261h24.23l0,0a4.68,4.68,0,0,1,1.4,3.14,4.55,4.55,0,0,1-1.33,3.4l-.1.09H356.42a.31.31,0,0,1-.31-.32h0a.31.31,0,0,1,.31-.31h24a3.94,3.94,0,0,0,0-5.4h-24a.31.31,0,0,1-.31-.31h0A.31.31,0,0,1,356.42,261Z" style="fill:#103A9C"></path><g style="opacity:0.4"><path d="M356.42,261h24.23l0,0a4.68,4.68,0,0,1,1.4,3.14,4.55,4.55,0,0,1-1.33,3.4l-.1.09H356.42a.31.31,0,0,1-.31-.32h0a.31.31,0,0,1,.31-.31h24a3.94,3.94,0,0,0,0-5.4h-24a.31.31,0,0,1-.31-.31h0A.31.31,0,0,1,356.42,261Z" style="fill:#fff"></path></g><path d="M356.72,274h28.54V268H356.71A23.24,23.24,0,0,1,356.72,274Z" style="fill:#103A9C"></path><path d="M356.72,274h28.54V268H356.71A23.24,23.24,0,0,1,356.72,274Z" style="fill:#fff;opacity:0.8"></path><path d="M380.06,267.7h9l.09.09a4.57,4.57,0,0,1,0,6.47l-.09.09h-9l.53-.53a3.95,3.95,0,0,0,0-5.59Z" style="fill:#103A9C"></path><g style="opacity:0.4"><path d="M380.06,267.7h9l.09.09a4.57,4.57,0,0,1,0,6.47l-.09.09h-9l.53-.53a3.95,3.95,0,0,0,0-5.59Z" style="fill:#fff"></path></g><path d="M356.42,267.7h24.23l0,0a4.7,4.7,0,0,1,1.4,3.14,4.53,4.53,0,0,1-1.33,3.4l-.1.09H356.42a.31.31,0,0,1-.31-.31h0a.31.31,0,0,1,.31-.32h24a3.94,3.94,0,0,0,0-5.4h-24a.31.31,0,0,1-.31-.31h0A.31.31,0,0,1,356.42,267.7Z" style="fill:#103A9C"></path><g style="opacity:0.5"><path d="M356.42,267.7h24.23l0,0a4.7,4.7,0,0,1,1.4,3.14,4.53,4.53,0,0,1-1.33,3.4l-.1.09H356.42a.31.31,0,0,1-.31-.31h0a.31.31,0,0,1,.31-.32h24a3.94,3.94,0,0,0,0-5.4h-24a.31.31,0,0,1-.31-.31h0A.31.31,0,0,1,356.42,267.7Z" style="fill:#fff"></path></g><path d="M356.72,246.57h28.54v-5.95H356.71A23.23,23.23,0,0,1,356.72,246.57Z" style="fill:#103A9C"></path><path d="M356.72,246.57h28.54v-5.95H356.71A23.23,23.23,0,0,1,356.72,246.57Z" style="fill:#fff;opacity:0.8"></path><path d="M380.06,240.3h9l.09.1a4.57,4.57,0,0,1,0,6.47L389,247h-9l.53-.54a3.94,3.94,0,0,0,0-5.58Z" style="fill:#263238"></path><path d="M356.42,240.3h24.23l0,0a4.68,4.68,0,0,1,1.4,3.14,4.55,4.55,0,0,1-1.33,3.4l-.1.09H356.42a.31.31,0,0,1-.31-.32h0a.31.31,0,0,1,.31-.31h24a3.94,3.94,0,0,0,0-5.4h-24a.31.31,0,0,1-.31-.31h0A.31.31,0,0,1,356.42,240.3Z" style="fill:#103A9C"></path><path d="M356.72,260.66h28.54v-6H356.71A23.31,23.31,0,0,1,356.72,260.66Z" style="fill:#103A9C"></path><path d="M356.72,260.66h28.54v-6H356.71A23.31,23.31,0,0,1,356.72,260.66Z" style="fill:#fff;opacity:0.7000000000000001"></path><path d="M380.06,254.39h9l.09.09a4.57,4.57,0,0,1,0,6.47L389,261h-9l.53-.53a3.94,3.94,0,0,0,0-5.58Z" style="fill:#103A9C"></path><g style="opacity:0.8"><path d="M380.06,254.39h9l.09.09a4.57,4.57,0,0,1,0,6.47L389,261h-9l.53-.53a3.94,3.94,0,0,0,0-5.58Z" style="fill:#fff"></path></g><path d="M356.42,254.39h24.23l0,0a4.65,4.65,0,0,1,1.4,3.13,4.52,4.52,0,0,1-1.33,3.4l-.1.09H356.42a.31.31,0,0,1-.31-.31h0a.31.31,0,0,1,.31-.31h24a3.94,3.94,0,0,0,0-5.4h-24a.31.31,0,0,1-.31-.32h0A.31.31,0,0,1,356.42,254.39Z" style="fill:#103A9C"></path><g style="opacity:0.30000000000000004"><path d="M356.42,254.39h24.23l0,0a4.65,4.65,0,0,1,1.4,3.13,4.52,4.52,0,0,1-1.33,3.4l-.1.09H356.42a.31.31,0,0,1-.31-.31h0a.31.31,0,0,1,.31-.31h24a3.94,3.94,0,0,0,0-5.4h-24a.31.31,0,0,1-.31-.32h0A.31.31,0,0,1,356.42,254.39Z" style="fill:#fff"></path></g><path d="M393,272.46l-5.24-2.09-.65,6.73s5,1.32,6.1-1.21Z" style="fill:#ffb573"></path><path d="M382.35,272.64l.17,2.4a2,2,0,0,0,1.77,1.81l2.81.25.65-6.73-3.55.18A2,2,0,0,0,382.35,272.64Z" style="fill:#ffb573"></path><path d="M352.84,257.77l.3-5.63,6.38,2.24s-.89,5.06-3.66,5Z" style="fill:#ffb573"></path><path d="M357.47,248.19l2.1,1.16a2,2,0,0,1,.9,2.37l-1,2.66-6.38-2.24,1.65-3.15A2,2,0,0,1,357.47,248.19Z" style="fill:#ffb573"></path><g style="opacity:0.5"><path d="M393.41,250.47c-2.78-4.24-2.1-10.32-1.79-12.27a.58.58,0,0,1,.7-.48h0a.58.58,0,0,1,.47.66c-.28,1.79-.91,7.56,1.59,11.42a.6.6,0,0,1-.13.81h0A.59.59,0,0,1,393.41,250.47Z" style="fill:#fff"></path></g><g style="opacity:0.5"><path d="M398.17,254.17h0a.6.6,0,0,1,.1-.83l6.82-5.32a.59.59,0,0,1,.83.11h0a.59.59,0,0,1-.1.82L399,254.27A.6.6,0,0,1,398.17,254.17Z" style="fill:#fff"></path></g></g><g id="freepik--character-3--inject-1"><path d="M274.6,250.68c-1.25-2.82,1.11-3.85,2.82-8.34a8.29,8.29,0,0,1,1.25-9.52s-.07-9.37,7.81-10.22c0,0,2.72-7.44,13.38,1.53s5.65,13.8,5.65,13.8,4.94,4.63,2.05,8c0,0,4.21,6.09,1.05,7.94s-5.41-2-5.41-2-1.31,5.74-10,.74c0,0-12.7,6.07-10.72-.74C282.45,251.89,277,256.07,274.6,250.68Z" style="fill:#263238"></path><path d="M257.57,252.63l0-2.52a5.24,5.24,0,0,0-.73-2.61L256,246a2.38,2.38,0,0,0-2.86-1l-1.62.59a2.36,2.36,0,0,0-1.41,3.07l.52,1.37s1,4,3.52,6l.84-.37A4.46,4.46,0,0,0,257.57,252.63Z" style="fill:#ffc3bd"></path><path d="M283.69,255.68a4.72,4.72,0,0,0-6.62.81l-.28.35-.56.72-.67.82c-.47.54-.95,1.08-1.44,1.59a27.56,27.56,0,0,1-3.11,2.77,17.92,17.92,0,0,1-3.31,2,12.58,12.58,0,0,1-1.69.59,6.34,6.34,0,0,1-.84.19l-.15,0a10.31,10.31,0,0,1-.86-1.06,36.64,36.64,0,0,1-2.43-3.86c-1.57-2.76-3.07-5.76-4.58-8.67l0-.06a2.37,2.37,0,0,0-4.44,1.47,62.58,62.58,0,0,0,2.56,10.17,37.71,37.71,0,0,0,2.17,5.09,17.33,17.33,0,0,0,1.77,2.72,8.6,8.6,0,0,0,1.58,1.53,6.21,6.21,0,0,0,3.4,1.29h1a7.58,7.58,0,0,0,.83,0,15.12,15.12,0,0,0,1.65-.17,17.57,17.57,0,0,0,3.16-.77,22.84,22.84,0,0,0,5.55-2.76,29.18,29.18,0,0,0,4.54-3.76c.68-.69,1.33-1.4,1.95-2.14.3-.38.61-.75.9-1.15l.44-.61.48-.7A4.75,4.75,0,0,0,283.69,255.68Z" style="fill:#ffc3bd"></path><path d="M285.3,257.4c-3.28-7.85-11.12-.56-14.87,3.63a32.08,32.08,0,0,1,5,10.56C280,268.85,287.73,263.19,285.3,257.4Z" style="fill:#103A9C"></path><path d="M285.3,257.4c-3.28-7.85-11.12-.56-14.87,3.63a32.08,32.08,0,0,1,5,10.56C280,268.85,287.73,263.19,285.3,257.4Z" style="fill:#fff;opacity:0.4"></path><path d="M275.23,292.25s.94,30.43,5.37,53.36c1,19.4,11,66,11,66,2.52.49,3.29.57,5.37-.07,0,0,4.08-36.06-1.56-65.47.55-5.28.57-12.31,2-18.82,1.21-5.55,4.67-12.29,4.88-15.68,1.05-17.21.09-19.32.09-19.32Z" style="fill:#ffc3bd"></path><path d="M284.26,292.25s10.07,42.29,16.41,60.36c6.67,19,29.92,53.18,30.63,54.44,2.61-.7,2.58-.83,4.14-2.35,0,0-13.89-44-21.12-56.7-3.19-43-10.07-55.75-10.07-55.75Z" style="fill:#ffc3bd"></path><path d="M298.45,385.21c-.14,15.16-1.42,26.47-1.42,26.47-2.1.64-2.89.56-5.42.07,0,0-2.38-11.11-4.94-24.78l-.78,0-.15-1.23a.9.9,0,0,1,.78-1c2.34-.28,8.66-1.07,11.46-1.66a.89.89,0,0,1,1.07.74l.18,1.09Z" style="fill:#103A9C"></path><path d="M298.45,385.21c-.14,15.16-1.42,26.47-1.42,26.47-2.1.64-2.89.56-5.42.07,0,0-2.38-11.11-4.94-24.78l-.78,0-.15-1.23a.9.9,0,0,1,.78-1c2.34-.28,8.66-1.07,11.46-1.66a.89.89,0,0,1,1.07.74l.18,1.09Z" style="fill:#fff;opacity:0.5"></path><path d="M328.41,383.15c4.08,11.85,7.21,21.76,7.21,21.76-1.59,1.55-1.56,1.68-4.23,2.4-.34-.61-5.79-8.69-12.18-19.09l-.69.35-.91-1.48a.66.66,0,0,1,.28-.95,74.55,74.55,0,0,0,9.39-5.09.66.66,0,0,1,1,.26l.66,1.38Z" style="fill:#103A9C"></path><path d="M328.41,383.15c4.08,11.85,7.21,21.76,7.21,21.76-1.59,1.55-1.56,1.68-4.23,2.4-.34-.61-5.79-8.69-12.18-19.09l-.69.35-.91-1.48a.66.66,0,0,1,.28-.95,74.55,74.55,0,0,0,9.39-5.09.66.66,0,0,1,1,.26l.66,1.38Z" style="fill:#fff;opacity:0.5"></path><path d="M275.23,290.83s-3,3.94,2.52,56.21c0,0,11.3,6.57,39.66,1.32,0,0-1.37-2.24-2.56-13.66s-5-36.83-10.6-42.45l-1.46-2.47-26.55-1Z" style="fill:#103A9C"></path><path d="M274.05,262.62c.11,2.47-3.8,8.2,1,11.51-.9,2-1.66,15.68.16,18.12,2.66,2,17.07,1.58,29,0,.51-4.94-2.21-15.17,1.12-31.12a6.36,6.36,0,0,0-5.59-7.63c-1-.11-2.07-.19-3.16-.24a79.05,79.05,0,0,0-11.42,0c-1.24.11-2.51.27-3.73.44A8.62,8.62,0,0,0,274.05,262.62Z" style="fill:#103A9C"></path><path d="M274.05,262.62c.11,2.47-3.8,8.2,1,11.51-.9,2-1.66,15.68.16,18.12,2.66,2,17.07,1.58,29,0,.51-4.94-2.21-15.17,1.12-31.12a6.36,6.36,0,0,0-5.59-7.63c-1-.11-2.07-.19-3.16-.24a79.05,79.05,0,0,0-11.42,0c-1.24.11-2.51.27-3.73.44A8.62,8.62,0,0,0,274.05,262.62Z" style="fill:#fff;opacity:0.4"></path><path d="M304.79,264.22a79.35,79.35,0,0,0-1.06,10.25c-2.74-3.81-5.87-10.72-5.69-14Z" style="opacity:0.2"></path><path d="M300.61,350.32l-8.51-21.53c2.49,14.84-.33,20.21-1.1,21.36A81.36,81.36,0,0,0,300.61,350.32Z" style="opacity:0.2"></path><path d="M285.1,417.17c4.9,0,4.55-.08,7.31-.17,2.36-.08,2.9.21,4.8.17,1.58,0,1.63-1.55,1.27-3.29-.13-.67-.34-1.45-.54-2.41a1.16,1.16,0,0,0-1.16-1h-5.73a1.35,1.35,0,0,0-1.08.55,8.29,8.29,0,0,1-5.69,3.2C281.62,414.62,283.15,417.17,285.1,417.17Z" style="fill:#263238"></path><path d="M331,415.42c3.46-3.47,3.16-3.27,5-5.29,1.61-1.73,2.21-1.9,3.52-3.28,1.09-1.14.06-2.25-1.43-3.22-.57-.38-1.27-.78-2.08-1.33a1.18,1.18,0,0,0-1.5.16l-4.05,4.05a1.37,1.37,0,0,0-.38,1.15,8.25,8.25,0,0,1-1.76,6.29C326.68,416.08,329.56,416.8,331,415.42Z" style="fill:#263238"></path><path d="M288,245.94s1,6.8-4.37,7.63c0,0-1.24,5.12.92,5.47.72.1,10.3-5.12,10.3-5.12l1.46-.62s-1-8.49.06-11.64Z" style="fill:#ffc3bd"></path><path d="M295.91,241.88l-8,4.06a10.34,10.34,0,0,1,0,2.1c.95,0,3.66-.3,7-4.12C296,242.72,296.19,242.12,295.91,241.88Z" style="opacity:0.2"></path><path d="M283.69,258.58a24.55,24.55,0,0,0-1.52,7.95,1.26,1.26,0,0,0,.81,1.18h0a.79.79,0,0,0,1.07-.74c0-1.91.18-5.77,1.5-8.39l-.94.54Z" style="fill:#103A9C"></path><path d="M283.69,258.58a24.55,24.55,0,0,0-1.52,7.95,1.26,1.26,0,0,0,.81,1.18h0a.79.79,0,0,0,1.07-.74c0-1.91.18-5.77,1.5-8.39l-.94.54Z" style="fill:#fff;opacity:0.8"></path><path d="M284.92,253.16c-.85.73-1.87,2.31-.5,5.29,0,0,8.85-6.47,12.83-5.4l1.05.31s-8.23,3.71-8.35,7.16c0,0-3.07-2.92-5.53-.88,0,0-2.27-2.43-4,.39,0,0,.31-5.71,2.55-6.76l1.84-.42A.18.18,0,0,1,284.92,253.16Z" style="fill:#103A9C"></path><path d="M284.92,253.16c-.85.73-1.87,2.31-.5,5.29,0,0,8.85-6.47,12.83-5.4l1.05.31s-8.23,3.71-8.35,7.16c0,0-3.07-2.92-5.53-.88,0,0-2.27-2.43-4,.39,0,0,.31-5.71,2.55-6.76l1.84-.42A.18.18,0,0,1,284.92,253.16Z" style="fill:#fff;opacity:0.9"></path><g style="opacity:0.5"><path d="M296.34,266.53a.59.59,0,0,1-.78-.33c-3-7.54-.18-10.45-.06-10.57l.49.49a.58.58,0,0,1,.1.7c-.52.9-1.54,3.6.57,8.94a.6.6,0,0,1-.32.77Z" style="fill:#fff"></path></g><g style="opacity:0.5"><path d="M273.74,264.87c-.37,0-.49-.41-.55-.61a12.44,12.44,0,0,0-1.48-2.95.58.58,0,0,1,.14-.77l0,0a.56.56,0,0,1,.81.15c.17.25.37.58.59,1a10.33,10.33,0,0,1,1.35-4,.58.58,0,0,1,.84-.16l0,0a.59.59,0,0,1,.12.78,11.57,11.57,0,0,0-1.29,5.73C274.32,264.29,274.18,264.87,273.74,264.87Z" style="fill:#fff"></path></g><path d="M304.3,291.4c-12.72,1.48-25.69,1.57-29.42.24a.58.58,0,0,0-.75.41l-.29,1.2a.56.56,0,0,0,.37.69c2.29.74,6.19,1.05,10.74,1.07a180,180,0,0,0,21-1.36.29.29,0,0,0,.18-.47l-1.19-1.52A.72.72,0,0,0,304.3,291.4Z" style="fill:#263238"></path><path d="M285.25,295.72h-3V295h3a.29.29,0,0,0,.29-.3v-1.83a.3.3,0,0,0-.29-.3h-3v-.69h3a1,1,0,0,1,1,1v1.83A1,1,0,0,1,285.25,295.72Z" style="fill:#263238"></path><g style="opacity:0.6000000000000001"><path d="M285.25,295.72h-3V295h3a.29.29,0,0,0,.29-.3v-1.83a.3.3,0,0,0-.29-.3h-3v-.69h3a1,1,0,0,1,1,1v1.83A1,1,0,0,1,285.25,295.72Z" style="fill:#fff"></path></g><path d="M299.37,233.64c-1.43,6-1.92,8.55-5.46,11.12-5.33,3.87-12.22.81-12.56-5.47-.31-5.66,2.08-14.49,8.31-15.87A8.26,8.26,0,0,1,299.37,233.64Z" style="fill:#ffc3bd"></path><path d="M289.37,236.08c-.09.49-.42.84-.74.78s-.51-.5-.43-1,.42-.85.75-.79S289.46,235.58,289.37,236.08Z" style="fill:#263238"></path><path d="M283.3,235.09c-.09.49-.42.85-.74.79s-.51-.5-.42-1,.42-.84.74-.78S283.39,234.6,283.3,235.09Z" style="fill:#263238"></path><path d="M283,234.15l-1.12-.55S282.34,234.63,283,234.15Z" style="fill:#263238"></path><path d="M284.77,235.49a13.37,13.37,0,0,1-2.31,2.83,2.16,2.16,0,0,0,1.7.64Z" style="fill:#ed847e"></path><path d="M287.7,241.35a5,5,0,0,1-.83-.08.14.14,0,0,1-.12-.17.15.15,0,0,1,.17-.12,4,4,0,0,0,3.45-1,.14.14,0,0,1,.2,0,.15.15,0,0,1,0,.21A4.12,4.12,0,0,1,287.7,241.35Z" style="fill:#263238"></path><path d="M291.11,233.29a.29.29,0,0,1-.18-.15,2.33,2.33,0,0,0-1.66-1.31.3.3,0,1,1,.07-.59,2.93,2.93,0,0,1,2.12,1.64.3.3,0,0,1-.13.39A.28.28,0,0,1,291.11,233.29Z" style="fill:#263238"></path><path d="M281.57,232.05a.33.33,0,0,1-.19-.12.29.29,0,0,1,.06-.41,2.92,2.92,0,0,1,2.63-.52.29.29,0,0,1,.17.38.28.28,0,0,1-.37.17,2.37,2.37,0,0,0-2.08.44A.3.3,0,0,1,281.57,232.05Z" style="fill:#263238"></path><path d="M289.08,235.13l-1.12-.55S288.4,235.62,289.08,235.13Z" style="fill:#263238"></path><path d="M287.51,223.52s-8.36,6-3.25,5.45c0,0,1.05,2.06,4.26.7,0,0,2.76,2.46,3.87.84,0,0,3.75,2.2,3-1.87,0,0,1.28,1.21,1.12,5s.78,4.33.78,4.33l1.51-.16s4.9-11.17-3.95-14.61C294.81,223.16,290.28,221.31,287.51,223.52Z" style="fill:#263238"></path><path d="M279.29,234.55c-.06,1.64.95,3,2.25,3.07s2.42-1.25,2.49-2.89c0,0,0-.08,0-.12a1.17,1.17,0,0,1,1.52,0,.51.51,0,0,0,0,.13,3,3,0,0,0,5.92.41l6.85,1.14,0-.37-6.85-1.14a3,3,0,0,0-5.86-.59,1.54,1.54,0,0,0-1.6-.06,2.57,2.57,0,0,0-2.23-2.51A2.73,2.73,0,0,0,279.29,234.55Zm6.6.25a2.61,2.61,0,1,1,2.5,2.71A2.6,2.6,0,0,1,285.89,234.8Zm-6.23-.24a2.07,2.07,0,1,1,1.9,2.69C280.45,237.21,279.6,236,279.66,234.56Z" style="fill:#103A9C"></path><path d="M279.29,234.55c-.06,1.64.95,3,2.25,3.07s2.42-1.25,2.49-2.89c0,0,0-.08,0-.12a1.17,1.17,0,0,1,1.52,0,.51.51,0,0,0,0,.13,3,3,0,0,0,5.92.41l6.85,1.14,0-.37-6.85-1.14a3,3,0,0,0-5.86-.59,1.54,1.54,0,0,0-1.6-.06,2.57,2.57,0,0,0-2.23-2.51A2.73,2.73,0,0,0,279.29,234.55Zm6.6.25a2.61,2.61,0,1,1,2.5,2.71A2.6,2.6,0,0,1,285.89,234.8Zm-6.23-.24a2.07,2.07,0,1,1,1.9,2.69C280.45,237.21,279.6,236,279.66,234.56Z" style="fill:#fff;opacity:0.5"></path><path d="M299.81,239.21a3.93,3.93,0,0,1-2.42,2.16c-1.37.38-2-1.11-1.66-2.63s1.48-3.21,2.85-2.91S300.44,237.87,299.81,239.21Z" style="fill:#ffc3bd"></path><polygon points="292.17 255.84 293.17 259.04 276.47 264.23 275.53 263.69 274.73 262.31 275.27 261.08 276.88 260.59 292.17 255.84" style="fill:#263238"></polygon><polygon points="292.17 255.84 293.17 259.04 276.47 264.23 275.53 263.69 274.73 262.31 275.27 261.08 276.88 260.59 292.17 255.84" style="fill:#fff;opacity:0.7000000000000001"></polygon><path d="M274.56,263.29l6.26,20.15a2.24,2.24,0,0,0,2.75,1.21l15.89-4.93a.51.51,0,0,0,.33-.63h0l-6.26-20.16-17,5.28-1-.52Z" style="fill:#103A9C"></path><path d="M276.44,264.15l-.91-.46-1-.4,6.26,20.15a2.19,2.19,0,0,0,2,1.31Z" style="fill:#263238"></path><path d="M293.2,259.56l-15.88,4.94a2.27,2.27,0,0,1-2.76-1.21,2.19,2.19,0,0,1,1.36-3l16-5a.51.51,0,0,1,.63.33h0a.51.51,0,0,1-.33.64l-15.91,4.94a1.21,1.21,0,0,0-.87,1.37,1.17,1.17,0,0,0,1.5.9l16-5a.51.51,0,0,1,.63.33h0A.5.5,0,0,1,293.2,259.56Z" style="fill:#103A9C"></path><g style="opacity:0.2"><path d="M293.2,259.56l-15.88,4.94a2.27,2.27,0,0,1-2.76-1.21,2.19,2.19,0,0,1,1.36-3l16-5a.51.51,0,0,1,.63.33h0a.51.51,0,0,1-.33.64l-15.91,4.94a1.21,1.21,0,0,0-.87,1.37,1.17,1.17,0,0,0,1.5.9l16-5a.51.51,0,0,1,.63.33h0A.5.5,0,0,1,293.2,259.56Z"></path></g><rect x="282.09" y="264.14" width="9" height="6.1" transform="translate(-66.35 97.02) rotate(-17.25)" style="fill:#fff;opacity:0.9"></rect><polygon points="294.1 259.65 295.19 263.18 276.84 268.88 275.81 268.28 274.93 266.76 275.53 265.42 277.29 264.87 294.1 259.65" style="fill:#263238"></polygon><polygon points="294.1 259.65 295.19 263.18 276.84 268.88 275.81 268.28 274.93 266.76 275.53 265.42 277.29 264.87 294.1 259.65" style="fill:#fff;opacity:0.7000000000000001"></polygon><path d="M274.74,267.84,281.62,290a2.48,2.48,0,0,0,3,1.33l17.45-5.42a.56.56,0,0,0,.37-.69h0l-6.88-22.15-18.66,5.8-1.12-.57Z" style="fill:#103A9C"></path><path d="M276.81,268.79l-1-.51-1.07-.44L281.62,290a2.4,2.4,0,0,0,2.22,1.44Z" style="fill:#263238"></path><path d="M295.22,263.75l-17.45,5.42a2.48,2.48,0,0,1-3-1.33,2.41,2.41,0,0,1,1.5-3.24l17.56-5.45a.56.56,0,0,1,.69.37h0a.55.55,0,0,1-.36.69l-17.48,5.43a1.34,1.34,0,0,0-1,1.51,1.29,1.29,0,0,0,1.65,1l17.56-5.45a.55.55,0,0,1,.69.36h0A.56.56,0,0,1,295.22,263.75Z" style="fill:#103A9C"></path><g style="opacity:0.2"><path d="M295.22,263.75l-17.45,5.42a2.48,2.48,0,0,1-3-1.33,2.41,2.41,0,0,1,1.5-3.24l17.56-5.45a.56.56,0,0,1,.69.37h0a.55.55,0,0,1-.36.69l-17.48,5.43a1.34,1.34,0,0,0-1,1.51,1.29,1.29,0,0,0,1.65,1l17.56-5.45a.55.55,0,0,1,.69.36h0A.56.56,0,0,1,295.22,263.75Z"></path></g><rect x="283.02" y="268.78" width="9.89" height="6.7" transform="translate(-67.75 97.65) rotate(-17.25)" style="fill:#fff;opacity:0.9"></rect><path d="M287.78,274.64l-2.48-3.33-4.56,5.06s3,2.73,6.22,3l.46-.77A4.45,4.45,0,0,0,287.78,274.64Z" style="fill:#ffc3bd"></path><path d="M280.73,271.07,279.38,273a2,2,0,0,0,.49,2.74l.87.61,4.56-5.06-2.16-.94A2,2,0,0,0,280.73,271.07Z" style="fill:#ffc3bd"></path><path d="M308.51,269a43,43,0,0,0-1.34-5.75c-.28-.93-.58-1.85-.92-2.75-.17-.46-.34-.91-.53-1.37s-.36-.87-.62-1.42a4.72,4.72,0,0,0-8.71,3.65l.08.2.4,1.05.41,1.14c.27.77.54,1.54.78,2.32.5,1.54.91,3.1,1.24,4.62a26.55,26.55,0,0,1,.6,4.42,14.07,14.07,0,0,1-.07,2.09h-.09a24.6,24.6,0,0,1-3.78-.53c-1.34-.27-2.72-.62-4.11-1l-4.18-1.15-.09,0a2.37,2.37,0,0,0-2,4.2,40.35,40.35,0,0,0,3.95,2.57,41.44,41.44,0,0,0,4.26,2.16,25,25,0,0,0,4.89,1.61,12.7,12.7,0,0,0,3.17.27,7.61,7.61,0,0,0,2.13-.39,6.76,6.76,0,0,0,2.55-1.53,3.79,3.79,0,0,0,.81-1.15l.08-.19a17.81,17.81,0,0,0,1.53-6.84A30,30,0,0,0,308.51,269Z" style="fill:#ffc3bd"></path><path d="M297.52,267.5a18,18,0,0,1,11.09-1.76s-2.39-13.06-9.12-11.56C292.13,255.83,297.52,267.5,297.52,267.5Z" style="fill:#103A9C"></path><path d="M297.52,267.5a18,18,0,0,1,11.09-1.76s-2.39-13.06-9.12-11.56C292.13,255.83,297.52,267.5,297.52,267.5Z" style="fill:#fff;opacity:0.4"></path><g style="opacity:0.5"><path d="M298.32,265.67h0a.58.58,0,0,1,.24-.83,12.85,12.85,0,0,1,8.59-1,.59.59,0,0,1,.39.76h0a.6.6,0,0,1-.73.38,11.84,11.84,0,0,0-7.73,1A.58.58,0,0,1,298.32,265.67Z" style="fill:#fff"></path></g></g><g id="freepik--character-2--inject-1"><path d="M160.29,304.49s-15.55,35.6-2.41,40.05,8-40.75,8-40.75l-2.3,1s3.09,37.63-5.05,37.3,3.08-37.43,3.08-37.43Z" style="fill:#263238"></path><polygon points="184.24 261.59 179.88 270.29 182.99 272.36 186.18 262.52 184.24 261.59" style="fill:#263238"></polygon><path d="M232,257.67a1.76,1.76,0,0,0-2.47.32l-.05.06a79.33,79.33,0,0,1-5.56,6.62c-.48.49-1,1-1.44,1.36a10.66,10.66,0,0,1-.89.66q-2.09-3.81-4.22-7.58c-1.46-2.6-3-5.22-4.43-7.74l0,0a3.55,3.55,0,0,0-6.19,3.46c1.47,2.73,3,5.31,4.6,7.9s3.23,5.11,4.92,7.62l.4.59a6.07,6.07,0,0,0,.77.9,5.08,5.08,0,0,0,2.64,1.34,5.29,5.29,0,0,0,2.63-.26,7.54,7.54,0,0,0,1.66-.87,12.08,12.08,0,0,0,2.14-1.94,24.88,24.88,0,0,0,1.58-2,43,43,0,0,0,4.5-8.34A1.77,1.77,0,0,0,232,257.67Z" style="fill:#b55b52"></path><path d="M233.65,251.5l-1.86.68a2.3,2.3,0,0,0-1.42,1.55l-.92,3.34a4.33,4.33,0,0,0,.81,3.84l.55.66c3.15-.91,5.87-4.22,5.87-4.22l.89-.86a1.91,1.91,0,0,0,.1-2.71L236,252A2.19,2.19,0,0,0,233.65,251.5Z" style="fill:#b55b52"></path><path d="M208.51,245.6c6.42,1.18,7.47,5.5,12.27,14.15a13.61,13.61,0,0,1-9.22,7.27S200.47,251.9,208.51,245.6Z" style="fill:#103A9C"></path><path d="M208.51,245.6c6.42,1.18,7.47,5.5,12.27,14.15a13.61,13.61,0,0,1-9.22,7.27S200.47,251.9,208.51,245.6Z" style="fill:#fff;opacity:0.4"></path><path d="M215.48,257.73a28.63,28.63,0,0,0,2.15,6.15,13.09,13.09,0,0,1-6.07,3.14,40.59,40.59,0,0,1-4.38-7.95Z" style="opacity:0.2"></path><g style="opacity:0.5"><path d="M217.37,262.52l-.31-.5-.31-.51a6,6,0,0,0,2-2.35.57.57,0,0,1,.73-.27h0a.6.6,0,0,1,.31.83A7.16,7.16,0,0,1,217.37,262.52Z" style="fill:#fff"></path></g><path d="M189.19,233.31s-5.61-2.68-6.2,6.59-4.54,10.59-4.54,10.59,9.32.59,11.39-6.5S193.16,235.11,189.19,233.31Z" style="fill:#263238"></path><path d="M191,234.24c-.34.41-1.11.32-1.73-.19s-.83-1.26-.49-1.66,1.11-.33,1.73.18S191.29,233.83,191,234.24Z" style="fill:#103A9C"></path><path d="M213.87,286s4.45,34.63,4.06,56.62c1.55,20.63,2.84,63.92,5.19,68.59-.08,1.06-3.76,1.29-4.75.66,0,0-15.42-35.76-13.34-69.25C190.86,307.65,191.71,286,191.71,286Z" style="fill:#b55b52"></path><path d="M210.32,388.81A77.07,77.07,0,0,1,220.76,387c.61.09.73,3.13.57,3.51a.58.58,0,0,1-.19.1c.23,4.62,1.19,14.07,2.29,20.51,0,0-4.83,1-6,.83-1.66-3.77-5-15.28-6.15-19.48h-.13A10.82,10.82,0,0,1,210.32,388.81Z" style="fill:#103A9C"></path><path d="M210.32,388.81A77.07,77.07,0,0,1,220.76,387c.61.09.73,3.13.57,3.51a.58.58,0,0,1-.19.1c.23,4.62,1.19,14.07,2.29,20.51,0,0-4.83,1-6,.83-1.66-3.77-5-15.28-6.15-19.48h-.13A10.82,10.82,0,0,1,210.32,388.81Z" style="fill:#fff;opacity:0.5"></path><path d="M232,414.94c-4.73.81-5.26.59-7.95,1-2.3.31-2.49.85-4.79,1.25-1.53.26-2.4-1.38-2.34-2.73,0-.81.2-1.76.19-2.76a1.07,1.07,0,0,1,.9-1.08l4.9-.85A1.46,1.46,0,0,1,224,410a10.42,10.42,0,0,0,7.81,2.18C234.43,411.93,233.86,414.61,232,414.94Z" style="fill:#263238"></path><path d="M207.84,286S197.71,325,193.7,344.23c-4.21,20.16-9.76,54-8.59,67.43-1.13.67-3.22.75-5.5,0,0,0-9-45,.06-66.58-4-47.74,8.64-59.17,8.64-59.17Z" style="fill:#b55b52"></path><path d="M176.08,387.23a77.92,77.92,0,0,1,10.6-.14c.59.19.22,3.21,0,3.55,0,0-.09.05-.2.08-.51,4.6-1.07,14.08-1,20.61,0,0-4.93.22-6.07-.15-1-4-2.52-15.87-3-20.2l-.13,0A10.84,10.84,0,0,1,176.08,387.23Z" style="fill:#103A9C"></path><path d="M176.08,387.23a77.92,77.92,0,0,1,10.6-.14c.59.19.22,3.21,0,3.55,0,0-.09.05-.2.08-.51,4.6-1.07,14.08-1,20.61,0,0-4.93.22-6.07-.15-1-4-2.52-15.87-3-20.2l-.13,0A10.84,10.84,0,0,1,176.08,387.23Z" style="fill:#fff;opacity:0.5"></path><path d="M191.12,417.15c-4.9,0-4.55-.08-7.31-.17-2.36-.09-2.9.21-4.8.17-1.58,0-1.63-1.55-1.27-3.29.14-.67.34-1.45.54-2.42a1.16,1.16,0,0,1,1.16-.94h5.73a1.35,1.35,0,0,1,1.08.54,8.22,8.22,0,0,0,5.69,3.2C194.6,414.6,193.07,417.15,191.12,417.15Z" style="fill:#263238"></path><path d="M216.24,254.24a105.25,105.25,0,0,1-.17,11.37c-.2,4.94.65,19-2.84,19.89-2.71,1.59-16.41,1-25.17-.12-4.16-1.22,2.9-12.15-4.83-32.62-1.35-3.57,1.35-7.16,5.27-7.54,1.05-.1,2.16-.18,3.3-.23a88.9,88.9,0,0,1,12,0c1.31.11,2.66.27,3.95.43C212.42,246,216.1,249.86,216.24,254.24Z" style="fill:#103A9C"></path><path d="M216.24,254.24a105.25,105.25,0,0,1-.17,11.37c-.2,4.94.65,19-2.84,19.89-2.71,1.59-16.41,1-25.17-.12-4.16-1.22,2.9-12.15-4.83-32.62-1.35-3.57,1.35-7.16,5.27-7.54,1.05-.1,2.16-.18,3.3-.23a88.9,88.9,0,0,1,12,0c1.31.11,2.66.27,3.95.43C212.42,246,216.1,249.86,216.24,254.24Z" style="fill:#fff;opacity:0.4"></path><path d="M189.34,258.18c.44,4.53-1.54,9.06-2.42,10.8a54.66,54.66,0,0,0-1.11-7.58Z" style="opacity:0.2"></path><path d="M200.65,250.82s1.45,3.94,1.64,13.8a1,1,0,0,0,1,1h0a1,1,0,0,0,1-1A88.42,88.42,0,0,0,203,250.82l-.87.85Z" style="fill:#103A9C"></path><path d="M200.65,250.82s1.45,3.94,1.64,13.8a1,1,0,0,0,1,1h0a1,1,0,0,0,1-1A88.42,88.42,0,0,0,203,250.82l-.87.85Z" style="fill:#fff;opacity:0.8"></path><g style="opacity:0.5"><path d="M214.81,257.23a20.19,20.19,0,0,0-2.57-7.71.6.6,0,0,1,.12-.77h0a.59.59,0,0,1,.88.12,21.55,21.55,0,0,1,2.74,8.18.59.59,0,0,1-.5.68h0A.59.59,0,0,1,214.81,257.23Z" style="fill:#fff"></path></g><path d="M187.68,286.66s-12,6-10.21,56c0,0,18.32,5.32,41.76-1.77,0,0-2.26-37.74-4.92-54.72Z" style="fill:#103A9C"></path><path d="M214.24,287.84a124.83,124.83,0,0,1-27.19,0,.61.61,0,0,1-.47-.85l.66-1.52a.58.58,0,0,1,.58-.36,121.6,121.6,0,0,0,26.15,0,.59.59,0,0,1,.63.54c.06.53.11,1,.16,1.58A.59.59,0,0,1,214.24,287.84Z" style="fill:#263238"></path><path d="M202.21,313.14h-.1l-4.53,31.4a83.22,83.22,0,0,0,10.81-1.1C201.07,339.62,201.87,318.65,202.21,313.14Z" style="opacity:0.2"></path><path d="M200.79,237.34c-.27,6.8,3.55,7.63,3.55,7.63s-.9,6.45-2.2,6.7-9.26-7.19-9.26-7.19c1.58-3.5.59-10.15.59-10.15Z" style="fill:#b55b52"></path><path d="M205.16,289.31H201.8v-.79h3.36a.34.34,0,0,0,.33-.34v-2.07a.34.34,0,0,0-.33-.34H201.8V285h3.36a1.12,1.12,0,0,1,1.12,1.12v2.07A1.13,1.13,0,0,1,205.16,289.31Z" style="fill:#263238"></path><g style="opacity:0.6000000000000001"><path d="M205.16,289.31H201.8v-.79h3.36a.34.34,0,0,0,.33-.34v-2.07a.34.34,0,0,0-.33-.34H201.8V285h3.36a1.12,1.12,0,0,1,1.12,1.12v2.07A1.13,1.13,0,0,1,205.16,289.31Z" style="fill:#fff"></path></g><path d="M200.79,237.34l-6.67-2.74c.4.78,3,5.38,6.79,5.32A13.82,13.82,0,0,1,200.79,237.34Z" style="opacity:0.2"></path><path d="M191.29,213.91s10.55-5.48,16,.63-12.25,8.13-12.57,14.6-3.29,7.81-7.29,1.28S187.08,214.57,191.29,213.91Z" style="fill:#263238"></path><path d="M189.34,223.73c1.18,6.24,1.54,8.9,5.1,11.89,5.35,4.5,12.71,2.12,13.41-4.24.63-5.72-1.39-15-7.82-17A8.13,8.13,0,0,0,189.34,223.73Z" style="fill:#b55b52"></path><path d="M199.22,224.77c.08.53.41.94.75.91s.55-.47.48-1-.41-.93-.75-.91S199.15,224.25,199.22,224.77Z" style="fill:#263238"></path><path d="M205.59,224.4c.08.53.41.93.75.91s.55-.47.48-1-.41-.94-.75-.91S205.52,223.87,205.59,224.4Z" style="fill:#263238"></path><path d="M205.92,223.44l1.19-.46S206.62,224,205.92,223.44Z" style="fill:#263238"></path><path d="M203.94,225.39a16,16,0,0,0,2.33,3.24,2.1,2.1,0,0,1-1.79.48Z" style="fill:#a02724"></path><path d="M201.79,231.28a5,5,0,0,0,.87,0,.14.14,0,0,0,.13-.17.15.15,0,0,0-.17-.14,4.45,4.45,0,0,1-3.57-1.39.16.16,0,0,0-.22,0,.16.16,0,0,0,0,.22A4.64,4.64,0,0,0,201.79,231.28Z" style="fill:#263238"></path><path d="M197.44,221.94a.27.27,0,0,0,.22-.1,2.31,2.31,0,0,1,2-.77.28.28,0,0,0,.34-.24.34.34,0,0,0-.26-.37,2.86,2.86,0,0,0-2.57.95.32.32,0,0,0,0,.44A.3.3,0,0,0,197.44,221.94Z" style="fill:#263238"></path><path d="M207,221.37a.34.34,0,0,0,.22-.07.31.31,0,0,0,0-.44,3.24,3.24,0,0,0-2.64-1.17.28.28,0,0,0-.25.34.33.33,0,0,0,.36.27,2.6,2.6,0,0,1,2.08,1A.39.39,0,0,0,207,221.37Z" style="fill:#263238"></path><path d="M199.55,223.81l1.19-.45S200.25,224.39,199.55,223.81Z" style="fill:#263238"></path><path d="M191.94,229.54s2.88,1.54,2-9.19c0,0,2,0,12.55-2,0,0-4.23-8.47-14.58-3.55C191.94,214.83,181.87,221.28,191.94,229.54Z" style="fill:#263238"></path><path d="M188.74,229.75a4.35,4.35,0,0,0,2.65,2.32c1.45.39,2.08-1.28,1.6-2.94-.44-1.5-1.72-3.5-3.13-3.14S188,228.29,188.74,229.75Z" style="fill:#b55b52"></path><path d="M192,217.24c-.67.47.67,3.55.85,3.81s.88.11,1.55-.36,1.06-1.06.88-1.32S192.64,216.78,192,217.24Zm2.06,3c-.48.34-1,.45-1.11.26s-1.09-2.41-.61-2.74,2.22,1.33,2.35,1.53S194.52,219.88,194,220.21Z" style="fill:#103A9C"></path><path d="M192.78,244s5.91,2.68,9.24,7.19a39,39,0,0,0,1.75-6.8l2.15.62a4.75,4.75,0,0,1,2.34,5.42,7,7,0,0,0-6.23,2.11s-6.24-5.13-8.87-.86c0,0,.59-3.41-2.8-6.6Z" style="fill:#103A9C"></path><path d="M192.78,244s5.91,2.68,9.24,7.19a39,39,0,0,0,1.75-6.8l2.15.62a4.75,4.75,0,0,1,2.34,5.42,7,7,0,0,0-6.23,2.11s-6.24-5.13-8.87-.86c0,0,.59-3.41-2.8-6.6Z" style="fill:#fff;opacity:0.9"></path><path d="M179.11,305.12c-5.88,3.2-22.33.92-26.43-4.38-5-6.51,2.46-27.21,9.45-31.57,5-3.12,19.93-1,23.29,3.85C190.08,279.74,186.29,301.2,179.11,305.12Z" style="fill:#103A9C"></path><path d="M179.11,305.12c-5.88,3.2-22.33.92-26.43-4.38-5-6.51,2.46-27.21,9.45-31.57,5-3.12,19.93-1,23.29,3.85C190.08,279.74,186.29,301.2,179.11,305.12Z" style="opacity:0.2"></path><path d="M162.13,269.17a14.17,14.17,0,0,0-3.6,3.56,3.3,3.3,0,0,0,1.94,5.21h.06l6.35,1.05a8.47,8.47,0,0,0,8.23-3.45,9.71,9.71,0,0,1,9-3.86C179.25,267.81,166.65,266.35,162.13,269.17Z" style="fill:#fff;opacity:0.30000000000000004"></path><path d="M162,276.56a38.13,38.13,0,0,0-2.67,8.15,1.59,1.59,0,0,0,1.26,1.9h0a1.58,1.58,0,0,0,1.82-1.22,35.49,35.49,0,0,1,2.44-7.48,1.58,1.58,0,0,0-1.16-2.24h0A1.59,1.59,0,0,0,162,276.56Z" style="fill:#263238"></path><path d="M155.69,288.55,167,290.91a2,2,0,0,1,1.57,2.31l-.88,5.37a4.86,4.86,0,0,1-6.06,3.9l-6-1.6a4.86,4.86,0,0,1-3.48-5.81l1.18-5A2,2,0,0,1,155.69,288.55Z" style="fill:#fff;opacity:0.30000000000000004"></path><path d="M185.5,273.16c-9-2.14-13.89,10.29-15.68,23.36-.82,6,.55,8.79,2.41,10.05a16.18,16.18,0,0,0,6.88-1.45C186.25,301.22,190,280,185.5,273.16Z" style="opacity:0.2"></path><path d="M190.25,244.78s7.38,11.44,6.38,29.91c-.93,17.11-19.39,28.89-19.39,28.89l-2.77-1.48s20.05-12.31,19.79-30.92-5.49-26.31-5.49-26.31Z" style="fill:#263238"></path><path d="M195.54,273.86h0c-1.51.07-3.09.16-4.62.17s-3.05,0-4.53,0a21.33,21.33,0,0,1-4.09-.54c-.21-.05-.4-.12-.58-.18.75-2.83,1.68-5.65,2.72-8.45.59-1.57,1.19-3.14,1.82-4.7s1.31-3.14,1.94-4.61l0-.07a3.55,3.55,0,0,0-6.45-3c-.83,1.69-1.48,3.3-2.16,5s-1.27,3.34-1.83,5.05-1.06,3.44-1.51,5.19-.82,3.55-1.13,5.36l0,.14a3.12,3.12,0,0,0,0,.54,5.25,5.25,0,0,0,.92,2.81,5.73,5.73,0,0,0,1.88,1.7,9.53,9.53,0,0,0,3.28,1,23.4,23.4,0,0,0,5.35,0,46.26,46.26,0,0,0,4.92-.76c1.61-.36,3.17-.73,4.76-1.24a1.77,1.77,0,0,0-.62-3.45Z" style="fill:#b55b52"></path><path d="M199.13,269.63l-2,0a2.28,2.28,0,0,0-1.86,1l-2,2.84a4.31,4.31,0,0,0-.53,3.89l.29.81c3.27.2,6.95-2,6.95-2l1.12-.5a1.92,1.92,0,0,0,1-2.52l-1-2.24A2.21,2.21,0,0,0,199.13,269.63Z" style="fill:#b55b52"></path><path d="M188.26,245.28c-4.31.67-9.13,5.14-12.65,13.79,4.07,7,10.12,7.95,10.12,7.95S194.17,255.29,188.26,245.28Z" style="fill:#103A9C"></path><path d="M188.26,245.28c-4.31.67-9.13,5.14-12.65,13.79,4.07,7,10.12,7.95,10.12,7.95S194.17,255.29,188.26,245.28Z" style="fill:#fff;opacity:0.4"></path><g style="opacity:0.5"><path d="M185,265.06a21.69,21.69,0,0,1-7.67-6,.59.59,0,0,1,.11-.85h0a.59.59,0,0,1,.8.1A20.9,20.9,0,0,0,185.5,264a.59.59,0,0,1,.32.76h0A.6.6,0,0,1,185,265.06Z" style="fill:#fff"></path></g><g style="opacity:0.5"><path d="M190,257h0a.59.59,0,0,1-.47-.68c.79-5.26-.61-8.07-1.24-9a.58.58,0,0,1,.09-.74h0a.58.58,0,0,1,.9.1c.78,1.17,2.26,4.24,1.41,9.86A.59.59,0,0,1,190,257Z" style="fill:#fff"></path></g></g><g id="freepik--character-1--inject-1"><path d="M159.75,240.66l3.37-6.27-8.08-.85s-1.64,6,1.39,7.33Z" style="fill:#7f3e3b"></path><path d="M160.41,227.86l-2.88.22a2.35,2.35,0,0,0-2.17,2.13l-.3,3.37,8.09.76-.23-4.26A2.35,2.35,0,0,0,160.41,227.86Z" style="fill:#7f3e3b"></path><path d="M136.79,242.8s5.76,10.27,8.81,10.27,9.46-14.51,9.46-14.51l5.74.13s-6.8,24-15.93,24c-7.84,0-14.43-14-14.43-14Z" style="fill:#7f3e3b"></path><path d="M160.17,228.77l.56-4.69a.66.66,0,0,1,.66-.59h0a.67.67,0,0,1,.66.63l.43,7.46Z" style="fill:#7f3e3b"></path><path d="M132.73,255.43a16.51,16.51,0,0,1,7.64-9.08,30.43,30.43,0,0,0-4.55-7.68c-3.41-3.87-7-7.79-12-3.79C115.53,241.37,132.73,255.43,132.73,255.43Z" style="fill:#103A9C"></path><path d="M132.73,255.43a16.51,16.51,0,0,1,7.64-9.08,30.43,30.43,0,0,0-4.55-7.68c-3.41-3.87-7-7.79-12-3.79C115.53,241.37,132.73,255.43,132.73,255.43Z" style="fill:#fff;opacity:0.4"></path><path d="M134.35,241.9l-1.46-2.44-6.15,1.41-3.09,4.52c3.24,5.27,9.08,10,9.08,10a16.22,16.22,0,0,1,4.75-7C135.34,247,134.35,241.9,134.35,241.9Z" style="opacity:0.2"></path><path d="M84,259.24c-5.91,3.07-8.24,9.16-8.42,15.52,0,1.18,1.81,1.42,1.84.22.16-5.62,2-11.27,7.31-14,1.06-.55.33-2.27-.73-1.71Z" style="fill:#103A9C"></path><g style="opacity:0.2"><path d="M84,259.24c-5.91,3.07-8.24,9.16-8.42,15.52,0,1.18,1.81,1.42,1.84.22.16-5.62,2-11.27,7.31-14,1.06-.55.33-2.27-.73-1.71Z"></path></g><path d="M99,239.05l14.11,1.74a11.47,11.47,0,0,1,10.08,11.65v.08a261,261,0,0,1-3.91,31.77c-.06.32-.15.7-.26,1.14A11.39,11.39,0,0,1,106.54,294L86.8,291.56a11.29,11.29,0,0,1-9.75-8.9,4.16,4.16,0,0,1-.08-.54c-.42-4.11.31-12.64,2-16.4,1-2.1,5.18-4.76,6.14-6.86,1.47-3.23,0-11,1.73-14.11A16.09,16.09,0,0,1,91,241.07,11.47,11.47,0,0,1,99,239.05Z" style="fill:#103A9C"></path><path d="M99,239.05l14.11,1.74a11.47,11.47,0,0,1,10.08,11.65v.08a261,261,0,0,1-3.91,31.77c-.06.32-.15.7-.26,1.14A11.39,11.39,0,0,1,106.54,294L86.8,291.56a11.29,11.29,0,0,1-9.75-8.9,4.16,4.16,0,0,1-.08-.54c-.42-4.11.31-12.64,2-16.4,1-2.1,5.18-4.76,6.14-6.86,1.47-3.23,0-11,1.73-14.11A16.09,16.09,0,0,1,91,241.07,11.47,11.47,0,0,1,99,239.05Z" style="opacity:0.5"></path><path d="M93.08,240.78a2.34,2.34,0,0,0-.58-.62,10.48,10.48,0,0,0-1.55.91,16.09,16.09,0,0,0-4.09,3.68c-1.75,3.09-.26,10.88-1.73,14.11-1,2.1-5.19,4.76-6.14,6.86-1.71,3.76-2.44,12.29-2,16.4a4.16,4.16,0,0,0,.08.54A11.25,11.25,0,0,0,85,291.18a4,4,0,0,0,1.13-.56C88,289.13,94.85,244.19,93.08,240.78Z" style="fill:#103A9C"></path><path d="M93.08,240.78a2.34,2.34,0,0,0-.58-.62,10.48,10.48,0,0,0-1.55.91,16.09,16.09,0,0,0-4.09,3.68c-1.75,3.09-.26,10.88-1.73,14.11-1,2.1-5.19,4.76-6.14,6.86-1.71,3.76-2.44,12.29-2,16.4a4.16,4.16,0,0,0,.08.54A11.25,11.25,0,0,0,85,291.18a4,4,0,0,0,1.13-.56C88,289.13,94.85,244.19,93.08,240.78Z" style="fill:#fff;opacity:0.2"></path><path d="M77.43,271.84A46.48,46.48,0,0,0,77,282.12a4.16,4.16,0,0,0,.08.54A11.25,11.25,0,0,0,85,291.18a4,4,0,0,0,1.13-.56c.75-.59,2.28-8.06,3.75-17.05C84.41,275,79.26,272.77,77.43,271.84Zm.74,4.16-.38-.61a1.14,1.14,0,0,1,0-1.23l.38-.61a.36.36,0,0,1,.61,0l.39.61a1.18,1.18,0,0,1,0,1.23l-.39.61A.36.36,0,0,1,78.17,276ZM80,284l-.38.61a.36.36,0,0,1-.61,0l-.39-.61a1.18,1.18,0,0,1,0-1.23l.39-.61a.36.36,0,0,1,.61,0l.38.61A1.14,1.14,0,0,1,80,284Zm0-3.85-.49-.76a1.47,1.47,0,0,1,0-1.54l.49-.77a.45.45,0,0,1,.76,0l.48.77a1.43,1.43,0,0,1,0,1.54l-.48.76A.44.44,0,0,1,80.05,280.19Zm2.87,2.65-.48.77a.46.46,0,0,1-.77,0l-.48-.77a1.43,1.43,0,0,1,0-1.54l.48-.77a.46.46,0,0,1,.77,0l.48.77A1.47,1.47,0,0,1,82.92,282.84Zm-.09-5.1-.38-.61a1.14,1.14,0,0,1,0-1.23l.38-.61a.37.37,0,0,1,.62,0l.38.61a1.18,1.18,0,0,1,0,1.23l-.38.61A.36.36,0,0,1,82.83,277.74Zm1.41,4.2-.48-.76a1.47,1.47,0,0,1,0-1.54l.48-.77a.46.46,0,0,1,.77,0l.48.77a1.43,1.43,0,0,1,0,1.54l-.48.76A.45.45,0,0,1,84.24,281.94Zm2.16,3-.38.61a.36.36,0,0,1-.61,0l-.39-.61a1.18,1.18,0,0,1,0-1.23l.39-.61a.36.36,0,0,1,.61,0l.38.61A1.14,1.14,0,0,1,86.4,284.91Zm.49-5.77a.37.37,0,0,1-.62,0l-.38-.62a1.16,1.16,0,0,1,0-1.22l.38-.61a.36.36,0,0,1,.62,0l.38.61a1.12,1.12,0,0,1,0,1.22Z" style="opacity:0.2"></path><path d="M95.83,392.89c-.79,3.94-3.93,15.09-4,18-2.48,2.42-4.85,2.37-5.71.22s1.12-17.82,1.12-17.82Z" style="fill:#103A9C"></path><path d="M95.83,392.89c-.79,3.94-3.93,15.09-4,18-2.48,2.42-4.85,2.37-5.71.22s1.12-17.82,1.12-17.82Z" style="fill:#fff;opacity:0.5"></path><path d="M95.72,349.64c4.38-28.78,2.81-44.8,4.69-58.34l29.38-.18c0,5.12-3.81,26-16.51,58.2-7.32,18.57-17.7,50.39-17.7,50.39l-9.14-2.48S88.46,372.05,95.72,349.64Z" style="fill:#103A9C"></path><path d="M103.76,415.57s-9.68-2.85-10.39-6.66a.66.66,0,0,0-.78-.56l-7,1.18a.89.89,0,0,0-.71.62l-1.64,5.23A1.26,1.26,0,0,0,84.39,417c4.71.1,17.72.33,19.49-.16C104.22,415.92,103.76,415.57,103.76,415.57Z" style="fill:#263238"></path><path d="M85.7,402.26c1.67.67,7.75,1.42,9.07,1.09s2-5,2-5-9.6-3.16-10.59-2.56S85.7,402.26,85.7,402.26Z" style="fill:#103A9C"></path><path d="M128.38,301.11c-5.12,3.27-13.56-13.26-20.27,3.41-6,15,2.49,35.32,6,42.65C122.1,326.57,126.4,310.83,128.38,301.11Z" style="opacity:0.2"></path><path d="M142.84,390.57c1,3.89,4.27,14.7,5.54,17.36-1.16,3.27-4.27,3.33-6,1.78s-7-15-7-15Z" style="fill:#103A9C"></path><path d="M142.84,390.57c1,3.89,4.27,14.7,5.54,17.36-1.16,3.27-4.27,3.33-6,1.78s-7-15-7-15Z" style="fill:#fff;opacity:0.5"></path><path d="M117.27,346.2c-9-27.58-23-39.56-22.66-54.86l26.47-.22s10.29,38.88,13.53,57.1,10.26,47.93,10.26,47.93l-7.45,3.61S120.19,367.53,117.27,346.2Z" style="fill:#103A9C"></path><path d="M161.79,406.55s-10.33,1.88-13.16-1a.78.78,0,0,0-1-.12L142,409.52a.78.78,0,0,0-.28.84l1.4,4.64a1.81,1.81,0,0,0,2.49,1.12c4.54-2.11,15.79-7.39,17.06-8.55C162.4,406.64,161.79,406.55,161.79,406.55Z" style="fill:#263238"></path><path d="M137.51,404.09c1.75-.42,7.69-3.68,8.58-4.71s-1.24-5.26-1.24-5.26-8.71,2.89-9.39,3.82S137.51,404.09,137.51,404.09Z" style="fill:#103A9C"></path><path d="M100.69,231.57a114.86,114.86,0,0,1,23.55-.15A13.11,13.11,0,0,1,136,244.48c0,12-3.19,15.91-5.2,34.41,1.66,2.16.44,5.26-1,5.6-11.72,2.78-29.14-.55-34.91-1.91-2.54-.6-1.07-4-1.07-4,0-6.25,1.24-5.75.91-13.47-1-7.63-.23-13.36-1.72-23.49A8.85,8.85,0,0,1,100.69,231.57Z" style="fill:#103A9C"></path><path d="M100.69,231.57a114.86,114.86,0,0,1,23.55-.15A13.11,13.11,0,0,1,136,244.48c0,12-3.19,15.91-5.2,34.41,1.66,2.16.44,5.26-1,5.6-11.72,2.78-29.14-.55-34.91-1.91-2.54-.6-1.07-4-1.07-4,0-6.25,1.24-5.75.91-13.47-1-7.63-.23-13.36-1.72-23.49A8.85,8.85,0,0,1,100.69,231.57Z" style="fill:#fff;opacity:0.4"></path><path d="M100.86,241.9c.81,7-3.68,18.82-6.1,24.51,0-.4,0-.83,0-1.29-.65-4.76-.58-8.78-.8-13.59Z" style="opacity:0.2"></path><path d="M129.79,291.12a31.93,31.93,0,0,0,0-6.63c0-.7-32.23-2-34.91-1.91-3.35.13-.49,15.46,2.14,20.67C120.38,304.78,129.06,295.15,129.79,291.12Z" style="fill:#103A9C"></path><path d="M130,283.8c-3.88-.62-29.23-2.17-36.07-1.7a.47.47,0,0,0-.42.32,5.8,5.8,0,0,0-.24,2.2.47.47,0,0,0,.47.45c2.41.05,14.94.35,36.17,1.8a.5.5,0,0,0,.53-.47c0-.67,0-1.62,0-2.14A.47.47,0,0,0,130,283.8Z" style="fill:#263238"></path><path d="M117.27,237.21l1,.53,1.41-.87s2.45,11.49,0,11.84C117.73,249,118.93,242.74,117.27,237.21Z" style="fill:#103A9C"></path><path d="M117.27,237.21l1,.53,1.41-.87s2.45,11.49,0,11.84C117.73,249,118.93,242.74,117.27,237.21Z" style="fill:#fff;opacity:0.8"></path><path d="M121,231.15a117.31,117.31,0,0,0-15.91,0c-.43,1.1,0,3.44,6.12,7.53,0,0,2.3-3.21,7.51-.3,0,0,4.16-3.31,5.29-.4C124,238,125.72,233.16,121,231.15Z" style="fill:#103A9C"></path><path d="M121,231.15a117.31,117.31,0,0,0-15.91,0c-.43,1.1,0,3.44,6.12,7.53,0,0,2.3-3.21,7.51-.3,0,0,4.16-3.31,5.29-.4C124,238,125.72,233.16,121,231.15Z" style="fill:#fff;opacity:0.9"></path><path d="M109.68,217.64a31.61,31.61,0,0,1-2.61,13.44.84.84,0,0,0,.2.95c2.43,2.19,11.17,4.84,11.17,4.84s3.88-3.09,2.7-4.84a2,2,0,0,0-.65-.6c-3.4-2-2.72-3.92-1.77-5.55Z" style="fill:#7f3e3b"></path><path d="M109.68,217.64l9,8.24a3.86,3.86,0,0,0-.19,3.46,7.63,7.63,0,0,1-5.2-1.87c-2.33-2-3.12-4.32-3.7-7.62C109.67,219.15,109.68,218.42,109.68,217.64Z" style="opacity:0.2"></path><path d="M107,213.39c.4,6.07-.47,7,2.62,10.11,4.64,4.63,12.19,5.52,13.26-.64,1-5.54,1.5-15.57-4.47-17.91A8.38,8.38,0,0,0,107,213.39Z" style="fill:#7f3e3b"></path><path d="M121.05,220.78a37.59,37.59,0,0,0-6.5-1.11c.45,1.39,1.4,2.6,3.87,2.86S121.05,220.78,121.05,220.78Z" style="fill:#fff"></path><path d="M114.33,214c0,.52.26.57.6.55s.65-.09.63-.61-.31-.92-.65-.9S114.31,213.46,114.33,214Z" style="fill:#263238"></path><path d="M120.67,214.35c0,.51.26.56.6.54s.65-.09.62-.61-.31-.92-.65-.9S120.65,213.83,120.67,214.35Z" style="fill:#263238"></path><path d="M119.69,214.12a14,14,0,0,0,1.84,3.42,2.31,2.31,0,0,1-1.91.34Z" style="fill:#630f0f"></path><path d="M113.37,211.65a.27.27,0,0,1-.14-.07.31.31,0,0,1,0-.43,3.05,3.05,0,0,1,2.58-1.05.31.31,0,0,1,.26.35.32.32,0,0,1-.35.25h0a2.44,2.44,0,0,0-2,.86A.3.3,0,0,1,113.37,211.65Z" style="fill:#263238"></path><path d="M123.75,213.34a.29.29,0,0,1-.27-.09,2.43,2.43,0,0,0-2-.81.3.3,0,0,1-.35-.24.32.32,0,0,1,.25-.36,3,3,0,0,1,2.59,1,.31.31,0,0,1-.18.51Z" style="fill:#263238"></path><path d="M107,216.81s2,.59,2.07-2.39,3.43-4.71,3.29-6.94,5.4,1.57,9.88,0c1.38-.48,1.59-7.17-3.69-4.52,0,0-1.14-5.31-5.22-1.12,0,0-3.15-3-4.64,2,0,0-4.32-1.07-2.76,3.73,0,0-3,.12-1.44,3.89,0,0-2.51,1.22,0,4.3Z" style="fill:#263238"></path><path d="M104.23,217.45a5.47,5.47,0,0,0,2.81,3c1.62.7,2.51-.89,2.13-2.71-.34-1.64-1.61-4-3.27-3.89S103.54,215.79,104.23,217.45Z" style="fill:#7f3e3b"></path><path d="M123.45,287.05l-3.72-.08,0-.87,3.72.08a.37.37,0,0,0,.38-.36l.05-2.3a.38.38,0,0,0-.37-.38l-3.71-.08v-.87l3.72.08a1.24,1.24,0,0,1,1.22,1.27l0,2.29A1.24,1.24,0,0,1,123.45,287.05Z" style="fill:#263238"></path><g style="opacity:0.6000000000000001"><path d="M123.45,287.05l-3.72-.08,0-.87,3.72.08a.37.37,0,0,0,.38-.36l.05-2.3a.38.38,0,0,0-.37-.38l-3.71-.08v-.87l3.72.08a1.24,1.24,0,0,1,1.22,1.27l0,2.29A1.24,1.24,0,0,1,123.45,287.05Z" style="fill:#fff"></path></g><circle cx="161.38" cy="208.3" r="13.4" style="fill:#103A9C"></circle><g style="opacity:0.30000000000000004"><path d="M161.27,220.39h0a12,12,0,0,0-12-12h0a1.21,1.21,0,0,1,1.34-1.21,13.29,13.29,0,0,1,11.86,11.86A1.24,1.24,0,0,1,161.27,220.39Z"></path><path d="M172.12,209.41a13.31,13.31,0,0,1-11.86-11.86,1.22,1.22,0,0,1,1.22-1.34h0a12,12,0,0,0,12,12h0A1.22,1.22,0,0,1,172.12,209.41Z"></path></g><g style="opacity:0.30000000000000004"><path d="M169.67,216.59h0a.65.65,0,0,1-.91,0l-15.68-15.68a.65.65,0,0,1,0-.91h0a.65.65,0,0,1,.91,0l15.68,15.69A.63.63,0,0,1,169.67,216.59Z"></path></g><g style="opacity:0.30000000000000004"><path d="M157.05,213.53l-2.86,2.86a.65.65,0,0,1-.91,0h0a.65.65,0,0,1,0-.91l2.87-2.86a.63.63,0,0,1,.9,0h0A.65.65,0,0,1,157.05,213.53Z"></path><path d="M169.47,201.11,166.6,204a.63.63,0,0,1-.9,0h0a.63.63,0,0,1,0-.9l2.86-2.86a.65.65,0,0,1,.91,0h0A.63.63,0,0,1,169.47,201.11Z"></path></g><path d="M141.9,212.46a.58.58,0,0,1-.41.34l-.8.17c-.28-1.36,1.4-2.83,5.15-4.49a.58.58,0,0,1,.78.31h0a.58.58,0,0,1-.31.77C143.24,210.92,142.14,211.94,141.9,212.46Z" style="fill:#103A9C"></path><path d="M145.58,214.33a.6.6,0,0,1-.65.56l-1.1-.12a.59.59,0,0,1-.48-.71h0a.57.57,0,0,1,.65-.46l1,.11a.59.59,0,0,1,.54.62Z" style="fill:#103A9C"></path><path d="M162.53,213.07a82,82,0,0,1-14.46,1.9.58.58,0,0,1-.59-.59h0a.56.56,0,0,1,.57-.59,80.43,80.43,0,0,0,14.23-1.88c12.94-2.75,19.24-6.39,19-7.57,0-.2-.44-.5-1.39-.73a.59.59,0,0,1-.45-.67h0a.6.6,0,0,1,.74-.47c1.35.32,2.09.86,2.26,1.63C183.14,207.43,170.91,211.29,162.53,213.07Z" style="fill:#103A9C"></path><path d="M177.22,203.3l-.69,0a.59.59,0,0,1-.59-.58h0a.59.59,0,0,1,.6-.59l.74,0a.6.6,0,0,1,.56.63h0A.6.6,0,0,1,177.22,203.3Z" style="fill:#103A9C"></path><path d="M143.22,216.19a.59.59,0,0,1-.82.37,1.92,1.92,0,0,1-1.21-1.28l.79-.17a.58.58,0,0,1,.51.13,2.51,2.51,0,0,0,.89.43Z" style="fill:#103A9C"></path><path d="M153.34,217a46.45,46.45,0,0,1-7.15.3.59.59,0,0,1-.55-.63h0a.59.59,0,0,1,.61-.55,46.33,46.33,0,0,0,7-.29.59.59,0,0,1,.66.51h0A.59.59,0,0,1,153.34,217Z" style="fill:#103A9C"></path><path d="M163,215.38c-1.08.23-2.17.44-3.24.64a.59.59,0,0,1-.69-.49h0a.57.57,0,0,1,.47-.67c1.07-.2,2.14-.41,3.21-.64a88.14,88.14,0,0,0,11.29-3.12.59.59,0,0,1,.75.35h0a.59.59,0,0,1-.35.76A90.45,90.45,0,0,1,163,215.38Z" style="fill:#103A9C"></path><path d="M177,210.6h0a.6.6,0,0,1,.32-.77c3.08-1.36,4.19-2.38,4.42-2.91a.59.59,0,0,1,.42-.33l.79-.17c.29,1.36-1.4,2.83-5.16,4.5A.59.59,0,0,1,177,210.6Z" style="fill:#103A9C"></path><g style="opacity:0.7000000000000001"><path d="M141.9,212.46a.58.58,0,0,1-.41.34l-.8.17c-.28-1.36,1.4-2.83,5.15-4.49a.58.58,0,0,1,.78.31h0a.58.58,0,0,1-.31.77C143.24,210.92,142.14,211.94,141.9,212.46Z" style="fill:#fff"></path><path d="M145.58,214.33a.6.6,0,0,1-.65.56l-1.1-.12a.59.59,0,0,1-.48-.71h0a.57.57,0,0,1,.65-.46l1,.11a.59.59,0,0,1,.54.62Z" style="fill:#fff"></path><path d="M162.53,213.07a82,82,0,0,1-14.46,1.9.58.58,0,0,1-.59-.59h0a.56.56,0,0,1,.57-.59,80.43,80.43,0,0,0,14.23-1.88c12.94-2.75,19.24-6.39,19-7.57,0-.2-.44-.5-1.39-.73a.59.59,0,0,1-.45-.67h0a.6.6,0,0,1,.74-.47c1.35.32,2.09.86,2.26,1.63C183.14,207.43,170.91,211.29,162.53,213.07Z" style="fill:#fff"></path><path d="M177.22,203.3l-.69,0a.59.59,0,0,1-.59-.58h0a.59.59,0,0,1,.6-.59l.74,0a.6.6,0,0,1,.56.63h0A.6.6,0,0,1,177.22,203.3Z" style="fill:#fff"></path><path d="M143.22,216.19a.59.59,0,0,1-.82.37,1.92,1.92,0,0,1-1.21-1.28l.79-.17a.58.58,0,0,1,.51.13,2.51,2.51,0,0,0,.89.43Z" style="fill:#fff"></path><path d="M153.34,217a46.45,46.45,0,0,1-7.15.3.59.59,0,0,1-.55-.63h0a.59.59,0,0,1,.61-.55,46.33,46.33,0,0,0,7-.29.59.59,0,0,1,.66.51h0A.59.59,0,0,1,153.34,217Z" style="fill:#fff"></path><path d="M163,215.38c-1.08.23-2.17.44-3.24.64a.59.59,0,0,1-.69-.49h0a.57.57,0,0,1,.47-.67c1.07-.2,2.14-.41,3.21-.64a88.14,88.14,0,0,0,11.29-3.12.59.59,0,0,1,.75.35h0a.59.59,0,0,1-.35.76A90.45,90.45,0,0,1,163,215.38Z" style="fill:#fff"></path><path d="M177,210.6h0a.6.6,0,0,1,.32-.77c3.08-1.36,4.19-2.38,4.42-2.91a.59.59,0,0,1,.42-.33l.79-.17c.29,1.36-1.4,2.83-5.16,4.5A.59.59,0,0,1,177,210.6Z" style="fill:#fff"></path></g><path d="M104.33,230.78a1.15,1.15,0,0,0-1,1.46c2,6.79,10.48,37,4.8,40.62-5.19,3.31-15,4.08-18.44,4.26a1.65,1.65,0,0,0-1.53,1.32l-.4,2.05a1.65,1.65,0,0,0,1.73,2c5.85-.43,21.86-2.22,24-9.19,2.35-7.73-5.62-36.29-7.17-41.71a1.14,1.14,0,0,0-1.18-.83Z" style="fill:#263238"></path><path d="M103.52,272l6.46-2,.19,8.11s-6.07,1.15-7.2-2Z" style="fill:#7f3e3b"></path><path d="M116,273.37l-.44,2.85a2.35,2.35,0,0,1-2.3,2l-3.39,0-.1-8.12,4.23.57A2.34,2.34,0,0,1,116,273.37Z" style="fill:#7f3e3b"></path><path d="M95.65,250.63s-9,11.71-8.79,13.91S106,271.86,106,271.86l-1.32,5.31s-28.36-1.41-28.36-11.32c0-7.63,13.17-24,13.17-24Z" style="fill:#7f3e3b"></path><path d="M86.06,244a36.9,36.9,0,0,1,9.12,8.82s3.08-3.13,5.78-6.35c3.31-3.95,6.65-8.08,1.94-12.48C95.23,226.82,86.06,244,86.06,244Z" style="fill:#103A9C"></path><path d="M86.06,244a36.9,36.9,0,0,1,9.12,8.82s3.08-3.13,5.78-6.35c3.31-3.95,6.65-8.08,1.94-12.48C95.23,226.82,86.06,244,86.06,244Z" style="fill:#fff;opacity:0.4"></path><g style="opacity:0.5"><path d="M94.83,250.39A18.21,18.21,0,0,0,88,243.6a.61.61,0,0,1-.26-.77h0a.59.59,0,0,1,.83-.28,19.23,19.23,0,0,1,7.35,7.27.61.61,0,0,1-.25.83h0A.61.61,0,0,1,94.83,250.39Z" style="fill:#fff"></path></g><g style="opacity:0.5"><path d="M101.08,245.35h0a.61.61,0,0,1-.17-.83c3.35-5.39,2.33-8.65,1.77-9.75a.59.59,0,0,1,.17-.74h0a.6.6,0,0,1,.9.19c.69,1.39,1.81,5.11-1.82,10.94A.6.6,0,0,1,101.08,245.35Z" style="fill:#fff"></path></g><g style="opacity:0.5"><path d="M136.84,247a1.44,1.44,0,0,1-.65-.14,1.74,1.74,0,0,1-.75-1.81,10.55,10.55,0,0,0-2.74-7.37.6.6,0,0,1,0-.81h0a.59.59,0,0,1,.88,0,11.72,11.72,0,0,1,3,8.25c0,.5.07.66.1.68.2.1.87-.18,1.51-.61a.6.6,0,0,1,.81.12h0a.6.6,0,0,1-.13.87A4.13,4.13,0,0,1,136.84,247Z" style="fill:#fff"></path></g></g></svg>