<svg xmlns="http://www.w3.org/2000/svg" viewBox="0 0 500 500"><g id="freepik--background-complete--inject-361"><rect y="382.4" width="500" height="0.25" style="fill:#ebebeb"></rect><rect x="131.47" y="397.82" width="33.12" height="0.25" style="fill:#ebebeb"></rect><rect x="250.15" y="395.11" width="8.69" height="0.25" style="fill:#ebebeb"></rect><rect x="52.46" y="390.89" width="19.19" height="0.25" style="fill:#ebebeb"></rect><rect x="389.7" y="389.21" width="26.08" height="0.25" style="fill:#ebebeb"></rect><rect x="357.35" y="389.21" width="23.44" height="0.25" style="fill:#ebebeb"></rect><rect x="356.23" y="401.21" width="93.68" height="0.25" style="fill:#ebebeb"></rect><path d="M237,337.8H43.91a5.71,5.71,0,0,1-5.7-5.71V60.66A5.71,5.71,0,0,1,43.91,55H237a5.71,5.71,0,0,1,5.71,5.71V332.09A5.71,5.71,0,0,1,237,337.8ZM43.91,55.2a5.46,5.46,0,0,0-5.45,5.46V332.09a5.46,5.46,0,0,0,5.45,5.46H237a5.47,5.47,0,0,0,5.46-5.46V60.66A5.47,5.47,0,0,0,237,55.2Z" style="fill:#ebebeb"></path><path d="M453.31,337.8H260.21a5.72,5.72,0,0,1-5.71-5.71V60.66A5.72,5.72,0,0,1,260.21,55h193.1A5.71,5.71,0,0,1,459,60.66V332.09A5.71,5.71,0,0,1,453.31,337.8ZM260.21,55.2a5.47,5.47,0,0,0-5.46,5.46V332.09a5.47,5.47,0,0,0,5.46,5.46h193.1a5.47,5.47,0,0,0,5.46-5.46V60.66a5.47,5.47,0,0,0-5.46-5.46Z" style="fill:#ebebeb"></path><rect x="318.61" y="276.38" width="23.55" height="103.04" transform="translate(660.76 655.8) rotate(180)" style="fill:#f0f0f0"></rect><rect x="233.94" y="379.42" width="103.69" height="2.98" transform="translate(571.58 761.82) rotate(180)" style="fill:#f0f0f0"></rect><rect x="229.42" y="276.38" width="89.18" height="103.04" style="fill:#f5f5f5"></rect><rect x="238.68" y="282.16" width="70.66" height="43.44" style="fill:#f0f0f0"></rect><rect x="238.68" y="330.2" width="70.66" height="43.44" style="fill:#f0f0f0"></rect><path d="M292.33,289.73H255.7A8.69,8.69,0,0,1,247,281h54A8.69,8.69,0,0,1,292.33,289.73Z" style="fill:#f5f5f5"></path><path d="M292.33,337.77H255.7a8.69,8.69,0,0,1-8.69-8.69h54A8.69,8.69,0,0,1,292.33,337.77Z" style="fill:#f5f5f5"></path><rect x="414.78" y="276.38" width="23.55" height="103.04" transform="translate(853.11 655.8) rotate(180)" style="fill:#f0f0f0"></rect><rect x="330.12" y="379.42" width="103.69" height="2.98" transform="translate(763.93 761.82) rotate(180)" style="fill:#f0f0f0"></rect><rect x="325.6" y="276.38" width="89.18" height="103.04" style="fill:#f5f5f5"></rect><rect x="334.86" y="282.16" width="70.66" height="43.44" style="fill:#f0f0f0"></rect><rect x="334.86" y="330.2" width="70.66" height="43.44" style="fill:#f0f0f0"></rect><path d="M388.5,289.73H351.87a8.69,8.69,0,0,1-8.69-8.69h54A8.69,8.69,0,0,1,388.5,289.73Z" style="fill:#f5f5f5"></path><path d="M388.5,337.77H351.87a8.69,8.69,0,0,1-8.69-8.69h54A8.69,8.69,0,0,1,388.5,337.77Z" style="fill:#f5f5f5"></path><rect x="111.42" y="91.32" width="40.34" height="46.63" transform="translate(263.18 229.26) rotate(180)" style="fill:#e6e6e6"></rect><rect x="106.82" y="91.32" width="43.86" height="46.63" transform="translate(257.5 229.26) rotate(180)" style="fill:#f5f5f5"></rect><rect x="109.11" y="96.38" width="39.28" height="36.51" transform="translate(243.38 -14.12) rotate(90)" style="fill:#fff"></rect><path d="M138.16,124.75v-1.43a18.82,18.82,0,0,0-18.81-18.81h0v1.43a18.81,18.81,0,0,0,18.81,18.81Z" style="fill:#f5f5f5"></path><rect x="286.63" y="84.06" width="151.7" height="141.9" transform="translate(724.97 310.01) rotate(180)" style="fill:#e6e6e6"></rect><rect x="281.93" y="84.06" width="154.2" height="141.9" transform="translate(718.07 310.01) rotate(180)" style="fill:#f0f0f0"></rect><rect x="286.63" y="225.95" width="151.7" height="5.06" transform="translate(724.97 456.96) rotate(180)" style="fill:#e6e6e6"></rect><rect x="274.1" y="225.95" width="154.2" height="5.06" transform="translate(702.4 456.96) rotate(180)" style="fill:#f0f0f0"></rect><rect x="295.7" y="84.49" width="126.66" height="141.04" transform="translate(514.04 -204.03) rotate(90)" style="fill:#fafafa"></rect><polygon points="389.56 218.34 366.07 91.67 327.37 91.67 350.86 218.34 389.56 218.34" style="fill:#fff"></polygon><path d="M426.51,175.36a.51.51,0,0,0,.47-.54V96.63a.47.47,0,1,0-.94,0v78.19A.51.51,0,0,0,426.51,175.36Z" style="fill:#f0f0f0"></path><polygon points="342.54 218.34 319.06 91.67 303.97 91.67 327.45 218.34 342.54 218.34" style="fill:#fff"></polygon><rect x="225.6" y="154.59" width="126.66" height="0.84" transform="translate(443.94 -133.93) rotate(90)" style="fill:#e6e6e6"></rect><polygon points="280.38 101.42 432.07 101.42 432.68 94.64 280.98 94.64 280.38 101.42" style="fill:#e6e6e6;opacity:0.4"></polygon><polygon points="280.38 109.23 432.07 109.23 432.68 102.44 280.98 102.44 280.38 109.23" style="fill:#e6e6e6;opacity:0.4"></polygon><polygon points="280.38 117.03 432.07 117.03 432.68 110.25 280.98 110.25 280.38 117.03" style="fill:#e6e6e6;opacity:0.4"></polygon><polygon points="280.38 124.84 432.07 124.84 432.68 118.05 280.98 118.05 280.38 124.84" style="fill:#e6e6e6;opacity:0.4"></polygon><polygon points="280.38 132.64 432.07 132.64 432.68 125.86 280.98 125.86 280.38 132.64" style="fill:#e6e6e6;opacity:0.4"></polygon><polygon points="280.38 140.45 432.07 140.45 432.68 133.66 280.98 133.66 280.38 140.45" style="fill:#e6e6e6;opacity:0.4"></polygon><polygon points="280.38 148.25 432.07 148.25 432.68 141.47 280.98 141.47 280.38 148.25" style="fill:#e6e6e6;opacity:0.4"></polygon><polygon points="280.38 156.06 432.07 156.06 432.68 149.27 280.98 149.27 280.38 156.06" style="fill:#e6e6e6;opacity:0.4"></polygon><polygon points="280.38 163.86 432.07 163.86 432.68 157.08 280.98 157.08 280.38 163.86" style="fill:#e6e6e6;opacity:0.4"></polygon><rect x="82.82" y="177.9" width="31.47" height="36.11" transform="translate(197.11 391.91) rotate(180)" style="fill:#e6e6e6"></rect><rect x="79.26" y="177.9" width="33.97" height="36.11" transform="translate(192.49 391.91) rotate(180)" style="fill:#f5f5f5"></rect><rect x="81.03" y="181.81" width="30.42" height="28.28" transform="translate(292.2 99.71) rotate(90)" style="fill:#fff"></rect><path d="M103.53,196.51V195.4a7.28,7.28,0,0,0-7.29-7.28h0A7.28,7.28,0,0,0,89,195.4v1.11a7.28,7.28,0,0,0,7.28,7.28h0A7.28,7.28,0,0,0,103.53,196.51Z" style="fill:#f5f5f5"></path><rect x="161.32" y="151.3" width="43.21" height="49.78" transform="translate(365.84 352.37) rotate(180)" style="fill:#e6e6e6"></rect><rect x="156.41" y="151.3" width="46.82" height="49.78" transform="translate(359.64 352.37) rotate(180)" style="fill:#f5f5f5"></rect><rect x="158.86" y="156.7" width="41.93" height="38.98" transform="translate(356.01 -3.63) rotate(90)" style="fill:#fff"></rect><path d="M181.45,168.41l7.4,12.82a1.88,1.88,0,0,1-1.63,2.82h-14.8a1.88,1.88,0,0,1-1.63-2.82l7.4-12.82A1.89,1.89,0,0,1,181.45,168.41Z" style="fill:#f5f5f5"></path><rect x="90.02" y="307.52" width="23.75" height="74.88" transform="translate(203.79 689.91) rotate(180)" style="fill:#e6e6e6"></rect><polygon points="94.53 382.4 90.02 382.4 90.02 369.57 99.26 369.57 94.53 382.4" style="fill:#f0f0f0"></polygon><rect x="178.77" y="307.52" width="23.75" height="74.88" transform="translate(381.29 689.91) rotate(180)" style="fill:#e6e6e6"></rect><rect x="90.02" y="307.52" width="92.68" height="67.01" transform="translate(272.73 682.04) rotate(180)" style="fill:#f0f0f0"></rect><rect x="90.8" y="314.44" width="46.77" height="41.33" transform="translate(-220.92 449.29) rotate(-90)" style="fill:#e6e6e6"></rect><rect x="135.16" y="314.44" width="46.77" height="41.33" transform="translate(-176.56 493.65) rotate(-90)" style="fill:#e6e6e6"></rect><path d="M154.46,315.31h8.17a12.93,12.93,0,0,0,9.39-4h-27A12.91,12.91,0,0,0,154.46,315.31Z" style="fill:#f0f0f0"></path><path d="M109.68,315.31h8.18a12.94,12.94,0,0,0,9.39-4h-27A12.93,12.93,0,0,0,109.68,315.31Z" style="fill:#f0f0f0"></path><polygon points="178.2 382.4 182.71 382.4 182.71 369.57 173.47 369.57 178.2 382.4" style="fill:#f0f0f0"></polygon><path d="M153.75,297.48a5.15,5.15,0,1,0,5.15-5.14A5.16,5.16,0,0,0,153.75,297.48Z" style="fill:#e0e0e0"></path><circle cx="161.23" cy="294.14" r="5.14" style="fill:#e0e0e0"></circle><path d="M128,298.31a5.14,5.14,0,1,0,5.14-5.14A5.14,5.14,0,0,0,128,298.31Z" style="fill:#e0e0e0"></path><circle cx="168.11" cy="294.98" r="6.31" style="fill:#e0e0e0"></circle><path d="M149.3,289.17a6.31,6.31,0,1,0,6.31-6.3A6.32,6.32,0,0,0,149.3,289.17Z" style="fill:#e0e0e0"></path><path d="M139.3,290.78a6.31,6.31,0,1,0,6.31-6.3A6.31,6.31,0,0,0,139.3,290.78Z" style="fill:#e0e0e0"></path><path d="M143.53,295.87a6,6,0,1,0,6-6A6,6,0,0,0,143.53,295.87Z" style="fill:#e0e0e0"></path><path d="M133.09,295.48a6.48,6.48,0,1,0,6.48-6.48A6.48,6.48,0,0,0,133.09,295.48Z" style="fill:#e0e0e0"></path><path d="M178.17,297.48s-.7,10-27.77,10-27.78-10-27.78-10Z" style="fill:#f0f0f0"></path></g></svg>