<svg xmlns="http://www.w3.org/2000/svg" viewBox="0 0 500 500"><g id="freepik--Desk--inject-361"><rect x="101.83" y="286.51" width="231.54" height="3.71" style="fill:#0F3EA8"></rect><rect x="333.37" y="286.51" width="50.24" height="3.71" transform="translate(716.98 576.73) rotate(180)" style="fill:#0F3EA8"></rect><rect x="333.37" y="286.51" width="50.24" height="3.71" transform="translate(716.98 576.73) rotate(180)" style="opacity:0.2"></rect><polygon points="366.83 294.19 118.61 294.19 110.31 290.22 375.13 290.22 366.83 294.19" style="fill:#0F3EA8"></polygon><polygon points="366.83 294.19 118.61 294.19 110.31 290.22 375.13 290.22 366.83 294.19" style="fill:#fff;opacity:0.6000000000000001"></polygon><polygon points="126.11 294.19 126.11 412.53 129.29 412.53 133.29 294.19 126.11 294.19" style="fill:#0F3EA8"></polygon><polygon points="163.65 294.19 163.65 412.53 166.83 412.53 170.83 294.19 163.65 294.19" style="fill:#0F3EA8"></polygon><polygon points="366.83 294.19 366.83 412.53 363.66 412.53 359.65 294.19 366.83 294.19" style="fill:#0F3EA8"></polygon><polygon points="329.3 294.19 329.3 412.53 326.12 412.53 322.12 294.19 329.3 294.19" style="fill:#0F3EA8"></polygon><polygon points="253.74 241.59 243.29 284.16 243.29 284.16 243 286.51 315.08 286.51 315.38 284.16 325.82 241.59 253.74 241.59" style="fill:#0F3EA8"></polygon><polygon points="253.74 241.59 243.29 284.16 243.29 284.16 243 286.51 315.08 286.51 315.38 284.16 325.82 241.59 253.74 241.59" style="opacity:0.30000000000000004"></polygon><polygon points="323.61 241.59 251.52 241.59 241.08 284.16 313.16 284.16 323.61 241.59" style="fill:#0F3EA8"></polygon><polygon points="311.63 282.21 321.13 243.54 253.05 243.54 243.56 282.21 311.63 282.21" style="fill:#fff"></polygon><polygon points="294.38 284.16 294.08 286.51 214.71 286.51 215 284.16 294.38 284.16" style="fill:#0F3EA8"></polygon><polygon points="294.38 284.16 294.08 286.51 214.71 286.51 215 284.16 294.38 284.16" style="fill:#fff;opacity:0.6000000000000001"></polygon><path d="M144.44,278.77a6.35,6.35,0,0,0-5.63-6.1v-1.15a.5.5,0,0,0-.52-.49h-10.8a.51.51,0,0,0-.53.49v15h11.85v-1.64A6.34,6.34,0,0,0,144.44,278.77Zm-5.63,4.17v-8.33a4.21,4.21,0,0,1,0,8.33Z" style="fill:#0F3EA8"></path><polygon points="346.56 286.51 356.6 286.51 353.63 264.52 346.56 264.52 346.56 286.51" style="fill:#263238"></polygon><polygon points="331.84 286.51 350.86 286.51 354.39 260.77 335.38 260.77 331.84 286.51" style="fill:#0F3EA8"></polygon><polygon points="331.84 286.51 350.86 286.51 354.39 260.77 335.38 260.77 331.84 286.51" style="opacity:0.30000000000000004"></polygon><polygon points="329.3 286.51 349.09 286.51 352.63 260.77 332.84 260.77 329.3 286.51" style="fill:#0F3EA8"></polygon><polygon points="347.34 284.48 350.32 262.8 334.59 262.8 331.61 284.48 347.34 284.48" style="fill:#fff;opacity:0.4"></polygon></g></svg>