<svg xmlns="http://www.w3.org/2000/svg" viewBox="0 0 500 500"><g id="freepik--Gear--inject-361"><path d="M307.77,119.9a42.3,42.3,0,0,0-3.22-7.76l2-6.55L293.62,92.65l-6.55,2a42.3,42.3,0,0,0-7.76-3.22l-3.22-6h-18.3l-3.21,6a42,42,0,0,0-7.76,3.22l-6.55-2-12.94,12.94,2,6.55a43,43,0,0,0-3.21,7.76l-6.05,3.22v18.3l6.05,3.21a42.67,42.67,0,0,0,3.21,7.76l-2,6.55,12.94,12.94,6.55-2a42.67,42.67,0,0,0,7.76,3.21l3.21,6h18.3l3.22-6a43,43,0,0,0,7.76-3.21l6.55,2,12.94-12.94-2-6.55a42,42,0,0,0,3.22-7.76l6.05-3.21v-18.3Zm-40.83,38.36a26,26,0,1,1,26-26A26,26,0,0,1,266.94,158.26Z" style="fill:#0F3EA8"></path><path d="M307.77,119.9a42.3,42.3,0,0,0-3.22-7.76l2-6.55L293.62,92.65l-6.55,2a42.3,42.3,0,0,0-7.76-3.22l-3.22-6h-18.3l-3.21,6a42,42,0,0,0-7.76,3.22l-6.55-2-12.94,12.94,2,6.55a43,43,0,0,0-3.21,7.76l-6.05,3.22v18.3l6.05,3.21a42.67,42.67,0,0,0,3.21,7.76l-2,6.55,12.94,12.94,6.55-2a42.67,42.67,0,0,0,7.76,3.21l3.21,6h18.3l3.22-6a43,43,0,0,0,7.76-3.21l6.55,2,12.94-12.94-2-6.55a42,42,0,0,0,3.22-7.76l6.05-3.21v-18.3Zm-40.83,38.36a26,26,0,1,1,26-26A26,26,0,0,1,266.94,158.26Z" style="fill:#fff;opacity:0.2"></path><path d="M266.94,123.65a8.62,8.62,0,1,0,8.62,8.62A8.62,8.62,0,0,0,266.94,123.65Z" style="fill:#0F3EA8"></path><path d="M438,148.93a61.16,61.16,0,0,0-4.59-11.1h0l2.86-9.36L417.8,110l-9.37,2.87h0a58.11,58.11,0,0,0-11.09-4.6h0l-4.59-8.64H366.6l-4.6,8.64a58.65,58.65,0,0,0-11.09,4.6h0L341.55,110l-18.49,18.49,2.86,9.36h0a59.76,59.76,0,0,0-4.59,11.1l-8.65,4.59v26.15l8.64,4.6h0a59.39,59.39,0,0,0,4.59,11.09h0l-2.86,9.35,18.49,18.49,9.36-2.86A58.61,58.61,0,0,0,362,224.94l4.6,8.65h26.15l4.59-8.64h0a59.42,59.42,0,0,0,11.09-4.6l9.37,2.86,18.49-18.49-2.86-9.36h0A60.77,60.77,0,0,0,438,184.27h0l8.64-4.6V153.52ZM379.67,214a47.41,47.41,0,1,1,47.41-47.41A47.41,47.41,0,0,1,379.67,214Z" style="fill:#0F3EA8"></path><path d="M379.67,125.83a40.77,40.77,0,1,0,40.78,40.77A40.82,40.82,0,0,0,379.67,125.83Zm0,76.11A35.34,35.34,0,1,1,415,166.6,35.38,35.38,0,0,1,379.67,201.94Z" style="fill:#0F3EA8"></path><path d="M379.67,125.83a40.77,40.77,0,1,0,40.78,40.77A40.82,40.82,0,0,0,379.67,125.83Zm0,76.11A35.34,35.34,0,1,1,415,166.6,35.38,35.38,0,0,1,379.67,201.94Z" style="opacity:0.2"></path><path d="M286,236.16a1,1,0,0,1-1-1v-2a1,1,0,1,1,2,0v2A1,1,0,0,1,286,236.16Z" style="fill:#0F3EA8"></path><path d="M270.43,210.32a5.41,5.41,0,0,1-2.06-2.45,1,1,0,0,0-1.84.79,7.55,7.55,0,0,0,2.81,3.34,1,1,0,0,0,.54.16,1,1,0,0,0,.55-1.84Z" style="fill:#0F3EA8"></path><path d="M266.94,197.83a1,1,0,0,0,1-1V193a1,1,0,0,0-2,0v3.83A1,1,0,0,0,266.94,197.83Z" style="fill:#0F3EA8"></path><path d="M277.35,211.2h-3.84a1,1,0,0,0,0,2h3.84a1,1,0,0,0,0-2Z" style="fill:#0F3EA8"></path><path d="M267.94,204.5v-3.83a1,1,0,0,0-2,0v3.83a1,1,0,0,0,2,0Z" style="fill:#0F3EA8"></path><path d="M286.94,217.7a1,1,0,0,0-1.12-.86A1,1,0,0,0,285,218a5.36,5.36,0,0,1,.05.7v3a1,1,0,0,0,2,0v-3A7.73,7.73,0,0,0,286.94,217.7Z" style="fill:#0F3EA8"></path><path d="M286,224.49a1,1,0,0,0-1,1v3.84a1,1,0,1,0,2,0v-3.84A1,1,0,0,0,286,224.49Z" style="fill:#0F3EA8"></path><path d="M285.13,213.73a7.41,7.41,0,0,0-3.71-2.29,1,1,0,0,0-.5,1.94,5.39,5.39,0,0,1,2.71,1.67,1,1,0,0,0,.75.34,1,1,0,0,0,.75-1.66Z" style="fill:#0F3EA8"></path><path d="M266.94,190.12a1,1,0,0,1-1-1v-2a1,1,0,0,1,2,0v2A1,1,0,0,1,266.94,190.12Z" style="fill:#0F3EA8"></path></g></svg>